SplineFontDB: 3.0
FontName: aghtex_mathbb
FullName: aghtex_mathbb
FamilyName: aghtex_mathbb
Weight: Book
Copyright: Copyright (C) 2012-2015, Koichi Murase, 1997, 2009, American Mathematical Society (<http://www.ams.org>), with Reserved Font Name MSBM10, CMSY10, LASY10.
Version: 1.1.26/2015-11-04
ItalicAngle: 0
UnderlinePosition: -136
UnderlineWidth: 20
Ascent: 819
Descent: 205
LayerCount: 2
Layer: 0 1 "+gMyXYgAA"  1
Layer: 1 1 "+Uk2XYgAA"  0
NeedsXUIDChange: 1
UniqueID: 4702302
FSType: 0
OS2Version: 1
OS2_WeightWidthSlopeOnly: 0
OS2_UseTypoMetrics: 0
CreationTime: 878738956
ModificationTime: 1446585996
PfmFamily: 17
TTFWeight: 400
TTFWidth: 5
LineGap: 92
VLineGap: 0
OS2TypoAscent: 0
OS2TypoAOffset: 1
OS2TypoDescent: 0
OS2TypoDOffset: 1
OS2TypoLinegap: 92
OS2WinAscent: 0
OS2WinAOffset: 1
OS2WinDescent: 0
OS2WinDOffset: 1
HheadAscent: 0
HheadAOffset: 1
HheadDescent: 0
HheadDOffset: 1
OS2Vendor: 'PfEd'
MarkAttachClasses: 1
DEI: 91125
ShortTable: maxp 16
  0
  0
  0
  0
  0
  0
  0
  2
  1
  2
  22
  0
  256
  0
  0
  0
EndShort
TtTable: prep
PUSHW_1
 511
SCANCTRL
PUSHB_1
 1
SCANTYPE
SVTCA[y-axis]
MPPEM
PUSHB_1
 8
LT
IF
PUSHB_2
 1
 1
INSTCTRL
EIF
PUSHB_2
 70
 6
CALL
IF
POP
PUSHB_1
 16
EIF
MPPEM
PUSHB_1
 20
GT
IF
POP
PUSHB_1
 128
EIF
SCVTCI
PUSHB_1
 6
CALL
NOT
IF
SVTCA[y-axis]
PUSHB_1
 6
DUP
RCVT
PUSHB_1
 3
CALL
WCVTP
PUSHB_1
 7
DUP
RCVT
PUSHB_3
 6
 58
 2
CALL
PUSHB_1
 3
CALL
WCVTP
PUSHB_1
 8
DUP
RCVT
PUSHB_3
 6
 34
 2
CALL
PUSHB_1
 3
CALL
WCVTP
SVTCA[x-axis]
PUSHB_1
 9
DUP
RCVT
PUSHB_1
 3
CALL
WCVTP
PUSHB_1
 10
DUP
RCVT
PUSHB_3
 9
 58
 2
CALL
PUSHB_2
 3
 70
SROUND
CALL
WCVTP
PUSHB_1
 11
DUP
RCVT
PUSHB_3
 9
 24
 2
CALL
PUSHB_2
 3
 70
SROUND
CALL
WCVTP
EIF
PUSHB_1
 20
CALL
EndTTInstrs
TtTable: fpgm
PUSHB_1
 0
FDEF
PUSHB_1
 0
SZP0
MPPEM
PUSHB_1
 71
LT
IF
PUSHB_1
 74
SROUND
EIF
PUSHB_1
 0
SWAP
MIAP[rnd]
RTG
PUSHB_1
 6
CALL
IF
RTDG
EIF
MPPEM
PUSHB_1
 71
LT
IF
RDTG
EIF
DUP
MDRP[rp0,rnd,grey]
PUSHB_1
 1
SZP0
MDAP[no-rnd]
RTG
ENDF
PUSHB_1
 1
FDEF
DUP
MDRP[rp0,min,white]

StartChar: followsorequal
Encoding: -1 8829 1
Width: 799
VWidth: 1000
Flags: MW
HStem: -246 60<502 612.5 502 624.5> -63 60<186 296> 429 43<599.5 693 599.5 693>
VStem: 57 30<-220 -212 -212 -180 -220 -163> 711 30<-69 -37 -37 -29>
LayerCount: 2
Fore
SplineSet
72 -246 m 128,-1,1
 60 -246 60 -246 57 -220 c 1,2,-1
 57 -212 l 2,3,4
 57 -132 57 -132 104.5 -67.5 c 128,-1,5
 152 -3 152 -3 228 -3 c 0,6,7
 267 -3 267 -3 304.5 -22 c 128,-1,8
 342 -41 342 -41 372 -67.5 c 128,-1,9
 402 -94 402 -94 431.5 -121 c 128,-1,10
 461 -148 461 -148 497 -167 c 128,-1,11
 533 -186 533 -186 570 -186 c 0,12,13
 632 -186 632 -186 671.5 -139 c 128,-1,14
 711 -92 711 -92 711 -29 c 1,15,16
 714 -3 714 -3 726 -3 c 128,-1,17
 738 -3 738 -3 741 -29 c 1,18,-1
 741 -37 l 2,19,20
 741 -117 741 -117 694 -181.5 c 128,-1,21
 647 -246 647 -246 570 -246 c 0,22,23
 531 -246 531 -246 493.5 -227 c 128,-1,24
 456 -208 456 -208 426 -181 c 128,-1,25
 396 -154 396 -154 366.5 -127.5 c 128,-1,26
 337 -101 337 -101 301 -82 c 128,-1,27
 265 -63 265 -63 228 -63 c 0,28,29
 167 -63 167 -63 127 -110.5 c 128,-1,30
 87 -158 87 -158 87 -220 c 1,31,0
 84 -246 84 -246 72 -246 c 128,-1,1
108 149 m 0,32,33
 86 149 86 149 86 173 c 1,34,35
 108 391 108 391 417 451 c 1,36,37
 108 509 108 509 86 729 c 0,38,39
 86 738 86 738 92 745 c 128,-1,40
 98 752 98 752 108 752 c 0,41,42
 125 752 125 752 129 733 c 1,43,44
 134 682 134 682 159 641 c 128,-1,45
 184 600 184 600 218.5 573.5 c 128,-1,46
 253 547 253 547 303.5 527 c 128,-1,47
 354 507 354 507 400 497 c 128,-1,48
 446 487 446 487 504.5 481 c 128,-1,49
 563 475 563 475 603.5 473.5 c 128,-1,50
 644 472 644 472 693 472 c 1,51,52
 712 468 712 468 712 451 c 0,53,54
 712 433 712 433 693 429 c 1,55,56
 644 429 644 429 603.5 427.5 c 128,-1,57
 563 426 563 426 504 420 c 128,-1,58
 445 414 445 414 399 404 c 128,-1,59
 353 394 353 394 303 374 c 128,-1,60
 253 354 253 354 218.5 327.5 c 128,-1,61
 184 301 184 301 159 260.5 c 128,-1,62
 134 220 134 220 129 169 c 1,63,64
 125 149 125 149 108 149 c 0,32,33
EndSplineSet
Validated: 1
EndChar

StartChar: nleqq
Encoding: 8816 8816 2
Width: 799
VWidth: 1000
Flags: W
HStem: -201 63<77.4768 213 301 695> 2 63<77.4768 282 370 695>
LayerCount: 2
Fore
SplineSet
142 -413 m 2,0,-1
 213 -201 l 1,1,-1
 105 -201 l 1,2,-1
 104 -201 l 2,3,4
 95 -199 95 -199 91 -196 c 0,5,6
 75 -187 75 -187 76 -170 c 0,7,8
 76 -165 76 -165 77 -162 c 0,9,10
 80 -149 80 -149 92 -143 c 0,11,12
 97 -140 97 -140 104 -138 c 2,13,-1
 105 -138 l 1,14,-1
 235 -138 l 1,15,-1
 282 2 l 1,16,-1
 105 2 l 1,17,-1
 104 2 l 2,18,19
 95 4 95 4 91 7 c 0,20,21
 75 16 75 16 76 33 c 0,22,23
 76 38 76 38 77 41 c 0,24,25
 80 54 80 54 92 60 c 0,26,27
 97 63 97 63 104 65 c 2,28,-1
 105 65 l 1,29,-1
 303 65 l 1,30,-1
 385 305 l 1,31,-1
 93 446 l 2,32,33
 76 454 76 454 76 473 c 0,34,35
 76 485 76 485 84 493 c 0,36,37
 89 498 89 498 96 502 c 2,38,-1
 520 706 l 1,39,-1
 597 936 l 2,40,41
 603 954 603 954 621 956 c 0,42,43
 624 956 624 956 627 956 c 0,44,45
 636 956 636 956 642 952 c 0,46,47
 646 950 646 950 649 947 c 0,48,49
 652 943 652 943 654 940 c 0,50,51
 658 933 658 933 658 925 c 0,52,53
 658 921 658 921 658 920 c 0,54,55
 658 918 l 0,56,57
 658 916 658 916 657 915 c 0,58,59
 656 914 l 2,60,-1
 599 744 l 1,61,-1
 679 782 l 2,62,63
 685 785 685 785 691 785 c 0,64,65
 700 785 700 785 706 781 c 0,66,67
 709 779 709 779 713 776 c 0,68,69
 723 766 723 766 722 753 c 0,70,71
 722 748 722 748 721 745 c 0,72,73
 720 740 720 740 717 736 c 0,74,75
 712 729 712 729 704 724 c 2,76,-1
 571 661 l 1,77,-1
 462 338 l 1,78,-1
 706 221 l 1,79,80
 718 213 718 213 721 201 c 0,81,82
 722 197 722 197 722 193 c 128,-1,83
 722 189 722 189 722 188 c 0,84,85
 720 177 720 177 712 171 c 0,86,87
 707 167 707 167 704 165 c 0,88,89
 698 162 698 162 691 162 c 0,90,91
 687 162 687 162 686 162 c 128,-1,92
 685 162 685 162 684 162 c 128,-1,93
 683 162 683 162 681 163 c 0,94,95
 680 163 680 163 679 164 c 2,96,-1
 442 278 l 1,97,-1
 370 65 l 1,98,-1
 695 65 l 1,99,-1
 696 65 l 2,100,101
 707 61 707 61 712 56 c 0,102,103
 720 49 720 49 722 38 c 0,104,105
 722 35 722 35 722 33 c 0,106,107
 721 13 721 13 705 6 c 0,108,109
 700 4 700 4 695 2 c 2,110,-1
 694 2 l 1,111,-1
 348 2 l 1,112,-1
 301 -138 l 1,113,-1
 695 -138 l 1,114,-1
 696 -138 l 2,115,116
 707 -142 707 -142 712 -147 c 0,117,118
 720 -154 720 -154 722 -165 c 0,119,120
 722 -168 722 -168 722 -170 c 0,121,122
 721 -190 721 -190 705 -197 c 0,123,124
 700 -199 700 -199 695 -201 c 2,125,-1
 694 -201 l 1,126,-1
 280 -201 l 1,127,-1
 201 -436 l 2,128,129
 195 -454 195 -454 177 -456 c 0,130,131
 174 -456 174 -456 171 -456 c 0,132,133
 162 -456 162 -456 156 -452 c 0,134,135
 152 -450 152 -450 149 -447 c 0,136,137
 146 -443 146 -443 144 -440 c 0,138,139
 140 -433 140 -433 140 -425 c 0,140,141
 140 -422 140 -422 140 -420 c 0,142,143
 140 -419 140 -419 140.5 -417.5 c 128,-1,144
 141 -416 141 -416 141.5 -415 c 128,-1,145
 142 -414 142 -414 142 -413 c 2,0,-1
180 473 m 1,146,-1
 405 365 l 1,147,-1
 492 623 l 1,148,-1
 180 473 l 1,146,-1
EndSplineSet
Validated: 3073
EndChar

StartChar: NameMe.8817
Encoding: 8817 8817 3
Width: 799
VWidth: 1000
Flags: W
HStem: -201 63<77.4768 213 301 695> 2 63<77.4768 282 370 695> 726 59<77.4983 93>
LayerCount: 2
Fore
SplineSet
142 -413 m 2,0,-1
 213 -201 l 1,1,-1
 105 -201 l 1,2,-1
 104 -201 l 2,3,4
 95 -199 95 -199 91 -196 c 0,5,6
 75 -187 75 -187 76 -170 c 0,7,8
 76 -165 76 -165 77 -162 c 0,9,10
 80 -149 80 -149 92 -143 c 0,11,12
 97 -140 97 -140 104 -138 c 2,13,-1
 105 -138 l 1,14,-1
 235 -138 l 1,15,-1
 282 2 l 1,16,-1
 105 2 l 1,17,-1
 104 2 l 2,18,19
 95 4 95 4 91 7 c 0,20,21
 75 16 75 16 76 33 c 0,22,23
 76 38 76 38 77 41 c 0,24,25
 80 54 80 54 92 60 c 0,26,27
 97 63 97 63 104 65 c 2,28,-1
 105 65 l 1,29,-1
 303 65 l 1,30,-1
 379 289 l 1,31,-1
 120 164 l 1,32,-1
 119 164 l 2,33,34
 114 162 114 162 108 162 c 0,35,36
 94 162 94 162 86 171 c 0,37,38
 78 179 78 179 76 188 c 0,39,40
 76 191 76 191 76 193 c 0,41,42
 77 206 77 206 84 213 c 0,43,44
 89 218 89 218 96 222 c 2,45,-1
 407 372 l 1,46,-1
 466 546 l 1,47,-1
 93 726 l 2,48,49
 76 734 76 734 76 753 c 0,50,51
 76 766 76 766 85.5 775.5 c 128,-1,52
 95 785 95 785 108 785 c 0,53,54
 112 785 112 785 119 782 c 2,55,-1
 120 782 l 1,56,-1
 486 606 l 1,57,-1
 597 936 l 2,58,59
 603 954 603 954 621 956 c 0,60,61
 624 956 624 956 627 956 c 0,62,63
 636 956 636 956 642 952 c 0,64,65
 646 950 646 950 649 947 c 0,66,67
 652 943 652 943 654 940 c 0,68,69
 658 933 658 933 658 925 c 0,70,71
 658 921 658 921 658 920 c 0,72,73
 658 918 l 0,74,75
 658 916 658 916 657 915 c 0,76,77
 656 914 l 2,78,-1
 543 579 l 1,79,-1
 706 501 l 1,80,81
 718 493 718 493 721 481 c 0,82,83
 722 477 722 477 722 473 c 0,84,85
 722 468 722 468 721 465 c 0,86,87
 720 460 720 460 717 456 c 0,88,89
 712 449 712 449 704 444 c 2,90,-1
 458 327 l 1,91,-1
 370 65 l 1,92,-1
 695 65 l 1,93,-1
 696 65 l 2,94,95
 707 61 707 61 712 56 c 0,96,97
 720 49 720 49 722 38 c 0,98,99
 722 35 722 35 722 33 c 0,100,101
 721 13 721 13 705 6 c 0,102,103
 700 4 700 4 695 2 c 2,104,-1
 694 2 l 1,105,-1
 348 2 l 1,106,-1
 301 -138 l 1,107,-1
 695 -138 l 1,108,-1
 696 -138 l 2,109,110
 707 -142 707 -142 712 -147 c 0,111,112
 720 -154 720 -154 722 -165 c 0,113,114
 722 -168 722 -168 722 -170 c 0,115,116
 721 -190 721 -190 705 -197 c 0,117,118
 700 -199 700 -199 695 -201 c 2,119,-1
 694 -201 l 1,120,-1
 280 -201 l 1,121,-1
 201 -436 l 2,122,123
 195 -454 195 -454 177 -456 c 0,124,125
 174 -456 174 -456 171 -456 c 0,126,127
 162 -456 162 -456 156 -452 c 0,128,129
 152 -450 152 -450 149 -447 c 0,130,131
 146 -443 146 -443 144 -440 c 0,132,133
 140 -433 140 -433 140 -425 c 0,134,135
 140 -422 140 -422 140 -420 c 0,136,137
 140 -419 140 -419 140.5 -417.5 c 128,-1,138
 141 -416 141 -416 141.5 -415 c 128,-1,139
 142 -414 142 -414 142 -413 c 2,0,-1
486 410 m 1,140,-1
 618 473 l 1,141,-1
 523 519 l 1,142,-1
 486 410 l 1,140,-1
EndSplineSet
Validated: 3073
EndChar

StartChar: nlslant
Encoding: 8820 8820 4
Width: 799
VWidth: 1000
Flags: W
HStem: 120 59<77.4983 93> 642 20G<688 695.5>
LayerCount: 2
Fore
SplineSet
142 -290 m 2,0,-1
 275 32 l 1,1,-1
 93 120 l 2,2,3
 76 128 76 128 76 147 c 0,4,5
 76 160 76 160 85.5 169.5 c 128,-1,6
 95 179 95 179 108 179 c 0,7,8
 112 179 112 179 119 176 c 2,9,-1
 120 176 l 1,10,-1
 299 91 l 1,11,-1
 345 201 l 1,12,-1
 93 323 l 2,13,14
 76 331 76 331 76 350 c 0,15,16
 76 362 76 362 84 370 c 0,17,18
 89 375 89 375 96 379 c 2,19,-1
 498 572 l 1,20,-1
 598 814 l 2,21,22
 606 831 606 831 622 833 c 0,23,24
 625 833 625 833 627 833 c 0,25,26
 636 833 636 833 642 829 c 0,27,28
 646 827 646 827 649 824 c 0,29,30
 652 820 652 820 654 817 c 0,31,32
 658 810 658 810 658 802 c 0,33,34
 658 798 658 798 658 797 c 0,35,36
 658 795 l 0,37,38
 658 793 658 793 657 792 c 0,39,40
 657 791 657 791 656 790 c 2,41,-1
 583 613 l 1,42,-1
 679 659 l 2,43,44
 685 662 685 662 691 662 c 0,45,46
 700 662 700 662 706 658 c 0,47,48
 709 656 709 656 713 653 c 0,49,50
 723 643 723 643 722 630 c 0,51,52
 722 625 722 625 721 622 c 0,53,54
 720 617 720 617 717 613 c 0,55,56
 712 606 712 606 704 601 c 2,57,-1
 548 527 l 1,58,-1
 426 232 l 1,59,-1
 706 98 l 1,60,61
 718 90 718 90 721 78 c 0,62,63
 722 74 722 74 722 70 c 128,-1,64
 722 66 722 66 722 65 c 0,65,66
 720 54 720 54 712 48 c 0,67,68
 707 44 707 44 704 42 c 0,69,70
 698 39 698 39 691 39 c 0,71,72
 687 39 687 39 686 39 c 128,-1,73
 685 39 685 39 684 39 c 128,-1,74
 683 39 683 39 681 40 c 0,75,76
 680 40 680 40 679 41 c 2,77,-1
 402 174 l 1,78,-1
 356 63 l 1,79,-1
 706 -105 l 1,80,81
 718 -113 718 -113 721 -125 c 0,82,83
 722 -129 722 -129 722 -133 c 128,-1,84
 722 -137 722 -137 722 -138 c 0,85,86
 720 -149 720 -149 712 -155 c 0,87,88
 707 -159 707 -159 704 -161 c 0,89,90
 698 -164 698 -164 691 -164 c 0,91,92
 687 -164 687 -164 686 -164 c 128,-1,93
 685 -164 685 -164 684 -164 c 128,-1,94
 683 -164 683 -164 681 -163 c 0,95,96
 680 -163 680 -163 679 -162 c 2,97,-1
 332 4 l 1,98,-1
 200 -314 l 2,99,100
 192 -331 192 -331 176 -333 c 0,101,102
 173 -333 173 -333 171 -333 c 0,103,104
 162 -333 162 -333 156 -329 c 0,105,106
 152 -327 152 -327 149 -324 c 0,107,108
 146 -320 146 -320 144 -317 c 0,109,110
 140 -310 140 -310 140 -302 c 0,111,112
 140 -299 140 -299 140 -297 c 0,113,114
 140 -296 140 -296 140.5 -294.5 c 128,-1,115
 141 -293 141 -293 141 -292 c 0,116,117
 142 -291 142 -291 142 -290 c 2,0,-1
180 350 m 1,118,-1
 369 260 l 1,119,-1
 462 486 l 1,120,-1
 180 350 l 1,118,-1
EndSplineSet
Validated: 3073
EndChar

StartChar: ngslant
Encoding: 8821 8821 5
Width: 799
VWidth: 1000
Flags: W
HStem: 601 61<77.4496 96>
LayerCount: 2
Fore
SplineSet
142 -290 m 2,0,-1
 214 -117 l 1,1,-1
 120 -162 l 1,2,-1
 119 -162 l 2,3,4
 114 -164 114 -164 108 -164 c 0,5,6
 94 -164 94 -164 86 -155 c 0,7,8
 78 -147 78 -147 76 -138 c 0,9,10
 76 -135 76 -135 76 -133 c 0,11,12
 76 -129 76 -129 76 -128 c 0,13,14
 78 -112 78 -112 93 -105 c 2,15,-1
 249 -30 l 1,16,-1
 318 137 l 1,17,-1
 120 41 l 1,18,-1
 119 41 l 2,19,20
 114 39 114 39 108 39 c 0,21,22
 94 39 94 39 86 48 c 0,23,24
 78 56 78 56 76 65 c 0,25,26
 76 68 76 68 76 70 c 0,27,28
 76 74 76 74 76 75 c 0,29,30
 78 91 78 91 93 98 c 2,31,-1
 354 223 l 1,32,-1
 441 435 l 1,33,-1
 96 601 l 2,34,35
 88 606 88 606 84 610 c 0,36,37
 76 618 76 618 76 630 c 0,38,39
 76 643 76 643 85.5 652.5 c 128,-1,40
 95 662 95 662 108 662 c 0,41,42
 112 662 112 662 119 659 c 2,43,-1
 120 659 l 1,44,-1
 466 494 l 1,45,-1
 598 814 l 2,46,47
 606 831 606 831 622 833 c 0,48,49
 625 833 625 833 627 833 c 0,50,51
 636 833 636 833 642 829 c 0,52,53
 646 827 646 827 649 824 c 0,54,55
 652 820 652 820 654 817 c 0,56,57
 658 810 658 810 658 802 c 0,58,59
 658 798 658 798 658 797 c 0,60,61
 658 795 l 0,62,63
 658 793 658 793 657 792 c 0,64,65
 657 791 657 791 656 790 c 2,66,-1
 522 466 l 1,67,-1
 704 379 l 1,68,69
 714 373 714 373 717 367 c 0,70,71
 720 363 720 363 721 358 c 0,72,73
 722 354 722 354 722 350 c 0,74,75
 722 331 722 331 706 323 c 2,76,-1
 403 178 l 1,77,-1
 334 11 l 1,78,-1
 679 176 l 2,79,80
 685 179 685 179 691 179 c 0,81,82
 700 179 700 179 706 175 c 0,83,84
 709 173 709 173 713 170 c 0,85,86
 722 161 722 161 722 147 c 0,87,88
 722 128 722 128 706 120 c 2,89,-1
 299 -76 l 1,90,-1
 200 -314 l 2,91,92
 192 -331 192 -331 176 -333 c 0,93,94
 173 -333 173 -333 171 -333 c 0,95,96
 162 -333 162 -333 156 -329 c 0,97,98
 152 -327 152 -327 149 -324 c 0,99,100
 146 -320 146 -320 144 -317 c 0,101,102
 140 -310 140 -310 140 -302 c 0,103,104
 140 -299 140 -299 140 -297 c 0,105,106
 140 -296 140 -296 140.5 -294.5 c 128,-1,107
 141 -293 141 -293 141 -292 c 0,108,109
 142 -291 142 -291 142 -290 c 2,0,-1
439 264 m 1,110,-1
 618 350 l 1,111,-1
 498 407 l 1,112,-1
 439 264 l 1,110,-1
EndSplineSet
Validated: 3073
EndChar

StartChar: npreceq
Encoding: 8929 8928 6
Width: 799
VWidth: 1000
Flags: W
HStem: -164 63<77.4768 194 288 695> 280 58<469 503.144> 319 63<77.4485 337.943> 642 20G<689 698>
VStem: 659 63<49.3132 142.11>
LayerCount: 2
Fore
SplineSet
142 -290 m 2,0,1
 194 -164 l 1,2,-1
 105 -164 l 1,3,-1
 104 -164 l 2,4,5
 95 -162 95 -162 91 -159 c 0,6,7
 75 -150 75 -150 76 -133 c 0,8,9
 76 -128 76 -128 77 -125 c 0,10,11
 80 -112 80 -112 92 -106 c 0,12,13
 97 -103 97 -103 104 -101 c 2,14,-1
 105 -101 l 1,15,-1
 220 -101 l 1,16,-1
 384 296 l 1,17,18
 269 319 269 319 106 319 c 2,19,-1
 105 319 l 1,20,-1
 104 319 l 2,21,22
 96 321 96 321 92 324 c 0,23,24
 80 331 80 331 77 343 c 0,25,26
 76 347 76 347 76 351 c 0,27,28
 77 369 77 369 91 377 c 0,29,30
 97 380 97 380 104 382 c 2,31,-1
 105 382 l 1,32,-1
 106 382 l 2,33,34
 307 382 307 382 434 417 c 1,35,-1
 598 814 l 2,36,37
 606 831 606 831 622 833 c 0,38,39
 625 833 625 833 627 833 c 0,40,41
 636 833 636 833 642 829 c 0,42,43
 646 827 646 827 649 824 c 0,44,45
 652 820 652 820 654 817 c 0,46,47
 658 810 658 810 658 802 c 0,48,49
 658 798 658 798 658 797 c 0,50,-1
 658 795 l 0,51,52
 658 793 658 793 657 792 c 0,53,54
 657 791 657 791 656 790 c 2,55,-1
 514 446 l 1,56,57
 646 507 646 507 659 634 c 0,58,59
 660 640 660 640 664 646 c 0,60,61
 671 658 671 658 683 661 c 0,62,63
 687 662 687 662 691 662 c 0,64,65
 705 662 705 662 714 652 c 0,66,67
 722 642 722 642 722 628 c 2,68,-1
 722 627 l 1,69,70
 702 437 702 437 481 366 c 1,71,-1
 469 338 l 1,72,73
 570 307 570 307 638 245 c 0,74,75
 710 178 710 178 722 73 c 0,76,-1
 722 72 l 2,77,78
 722 59 722 59 714 49 c 0,79,80
 705 38 705 38 691 39 c 0,81,82
 686 39 686 39 683 40 c 0,83,84
 667 43 667 43 661 58 c 0,85,86
 659 63 659 63 659 67 c 0,87,88
 643 221 643 221 446 280 c 1,89,-1
 288 -101 l 1,90,-1
 694 -101 l 1,91,-1
 695 -101 l 2,92,93
 702 -103 702 -103 705 -105 c 0,94,95
 718 -111 718 -111 721 -125 c 0,96,97
 722 -130 722 -130 722 -133 c 0,98,99
 721 -153 721 -153 705 -160 c 0,100,101
 700 -162 700 -162 695 -164 c 2,102,-1
 694 -164 l 1,103,-1
 263 -164 l 1,104,-1
 200 -314 l 2,105,106
 192 -331 192 -331 176 -333 c 0,107,108
 173 -333 173 -333 171 -333 c 0,109,110
 162 -333 162 -333 156 -329 c 0,111,112
 152 -327 152 -327 149 -324 c 0,113,114
 146 -320 146 -320 144 -317 c 0,115,116
 140 -310 140 -310 140 -302 c 0,117,118
 140 -299 140 -299 140 -297 c 0,119,120
 140 -296 140 -296 140.5 -294.5 c 128,-1,121
 141 -293 141 -293 141 -292 c 0,122,123
 142 -291 142 -291 142 -290 c 2,0,1
422 349 m 1,124,125
 414 351 414 351 382 360 c 1,126,-1
 383 340 l 1,127,128
 390 342 390 342 402.5 345 c 128,-1,129
 415 348 415 348 422 349 c 1,124,125
EndSplineSet
Validated: 3073
EndChar

StartChar: nsucceq
Encoding: 8930 8929 7
Width: 799
VWidth: 1000
Flags: W
HStem: -164 63<77.4768 194 288 695> 319 63<494.725 695> 642 20G<92 117>
VStem: 77 62<628.249 660.552>
LayerCount: 2
Fore
SplineSet
142 -290 m 2,0,-1
 194 -164 l 1,1,-1
 105 -164 l 1,2,-1
 104 -164 l 2,3,4
 95 -162 95 -162 91 -159 c 0,5,6
 75 -150 75 -150 76 -133 c 0,7,8
 76 -128 76 -128 77 -125 c 0,9,10
 80 -112 80 -112 92 -106 c 0,11,12
 97 -103 97 -103 104 -101 c 2,13,-1
 105 -101 l 1,14,-1
 220 -101 l 1,15,-1
 380 288 l 1,16,17
 157 232 157 232 139 67 c 0,18,19
 139 63 139 63 137 58 c 0,20,21
 131 41 131 41 113 39 c 0,22,23
 110 39 110 39 108 39 c 0,24,25
 103 39 103 39 100 40 c 0,26,27
 91 42 91 42 84 49 c 0,28,29
 75 60 75 60 76 72 c 0,30,31
 81 136 81 136 114 190 c 0,32,33
 146 242 146 242 196 275 c 0,34,35
 245 308 245 308 299 328 c 0,36,37
 333 341 333 341 372 351 c 1,38,39
 332 361 332 361 298 374 c 0,40,41
 247 393 247 393 196 425 c 0,42,43
 144 457 144 457 113.5 508.5 c 128,-1,44
 83 560 83 560 76 627 c 0,45,-1
 76 628 l 2,46,47
 76 636 76 636 77 639 c 0,48,49
 82 659 82 659 102 662 c 0,50,51
 106 662 106 662 108 662 c 0,52,53
 126 661 126 661 134 647 c 0,54,55
 138 640 138 640 139 633 c 0,56,57
 158 452 158 452 428 402 c 1,58,-1
 598 814 l 2,59,60
 606 831 606 831 622 833 c 0,61,62
 625 833 625 833 627 833 c 0,63,64
 636 833 636 833 642 829 c 0,65,66
 646 827 646 827 649 824 c 0,67,68
 652 820 652 820 654 817 c 0,69,70
 658 810 658 810 658 802 c 0,71,72
 658 798 658 798 658 797 c 0,73,74
 658 795 l 0,75,76
 658 793 658 793 657 792 c 0,77,78
 657 791 657 791 656 790 c 2,79,-1
 492 392 l 1,80,81
 579 382 579 382 693 382 c 2,82,-1
 694 382 l 1,83,-1
 695 382 l 2,84,85
 702 380 702 380 705 378 c 0,86,87
 722 370 722 370 722 351 c 0,88,89
 722 346 722 346 721 343 c 0,90,91
 718 329 718 329 705 323 c 0,92,93
 700 321 700 321 695 319 c 2,94,-1
 694 319 l 1,95,-1
 693 319 l 2,96,97
 555 319 555 319 455 303 c 1,98,-1
 288 -101 l 1,99,-1
 694 -101 l 1,100,-1
 695 -101 l 2,101,102
 702 -103 702 -103 705 -105 c 0,103,104
 718 -111 718 -111 721 -125 c 0,105,106
 722 -130 722 -130 722 -133 c 0,107,108
 721 -153 721 -153 705 -160 c 0,109,110
 700 -162 700 -162 695 -164 c 2,111,-1
 694 -164 l 1,112,-1
 263 -164 l 1,113,-1
 200 -314 l 2,114,115
 192 -331 192 -331 176 -333 c 0,116,117
 173 -333 173 -333 171 -333 c 0,118,119
 162 -333 162 -333 156 -329 c 0,120,121
 152 -327 152 -327 149 -324 c 0,122,123
 146 -320 146 -320 144 -317 c 0,124,125
 140 -310 140 -310 140 -302 c 0,126,127
 140 -299 140 -299 140 -297 c 0,128,129
 140 -296 140 -296 140.5 -294.5 c 128,-1,130
 141 -293 141 -293 141 -292 c 0,131,132
 142 -291 142 -291 142 -290 c 2,0,-1
EndSplineSet
Validated: 3073
EndChar

StartChar: lnvert
Encoding: 8808 8808 8
Width: 799
VWidth: 1000
Flags: W
HStem: -202 63<77.4648 368 431 695> 1 63<77.4485 368 431 695>
VStem: 368 63<-307.899 -202 -139 1 64 169.899>
LayerCount: 2
Fore
SplineSet
76 -171 m 0,0,1
 76 -166 76 -166 77 -163 c 0,2,3
 80 -150 80 -150 92 -144 c 0,4,5
 97 -141 97 -141 104 -139 c 2,6,-1
 105 -139 l 1,7,-1
 368 -139 l 1,8,-1
 368 1 l 1,9,-1
 105 1 l 1,10,-1
 104 1 l 2,11,12
 96 3 96 3 92 6 c 0,13,14
 80 13 80 13 77 25 c 0,15,16
 76 29 76 29 76 33 c 0,17,18
 77 51 77 51 91 59 c 0,19,20
 97 62 97 62 104 64 c 2,21,-1
 105 64 l 1,22,-1
 368 64 l 1,23,-1
 368 142 l 1,24,-1
 368 143 l 2,25,26
 369 149 369 149 373 156 c 0,27,28
 381 171 381 171 392 171 c 0,29,-1
 404 171 l 0,30,31
 416 169 416 169 423 160 c 0,32,33
 428 154 428 154 431 143 c 2,34,-1
 431 142 l 1,35,-1
 431 64 l 1,36,-1
 694 64 l 1,37,-1
 695 64 l 2,38,39
 702 62 702 62 705 60 c 0,40,41
 722 52 722 52 722 33 c 0,42,43
 722 28 722 28 721 25 c 0,44,45
 718 11 718 11 705 5 c 0,46,47
 700 3 700 3 695 1 c 2,48,-1
 694 1 l 1,49,-1
 431 1 l 1,50,-1
 431 -139 l 1,51,-1
 694 -139 l 1,52,-1
 695 -139 l 2,53,54
 702 -141 702 -141 705 -143 c 0,55,56
 718 -149 718 -149 721 -163 c 0,57,58
 722 -168 722 -168 722 -171 c 0,59,60
 721 -191 721 -191 705 -198 c 0,61,62
 700 -200 700 -200 695 -202 c 2,63,-1
 694 -202 l 1,64,-1
 431 -202 l 1,65,-1
 431 -280 l 1,66,-1
 431 -281 l 2,67,68
 428 -292 428 -292 423 -298 c 0,69,70
 416 -307 416 -307 404 -309 c 0,71,72
 401 -309 401 -309 391 -308.5 c 128,-1,73
 381 -308 381 -308 373 -294 c 0,74,75
 370 -288 370 -288 368 -281 c 2,76,-1
 368 -280 l 1,77,-1
 368 -202 l 1,78,-1
 105 -202 l 1,79,-1
 104 -202 l 2,80,81
 95 -200 95 -200 91 -197 c 0,82,83
 76 -189 76 -189 76 -171 c 0,0,1
76 473 m 0,84,85
 77 486 77 486 84 493 c 0,86,87
 89 498 89 498 96 502 c 2,88,-1
 679 782 l 1,89,90
 685 784 685 784 686 784 c 0,91,92
 688 784 l 0,93,94
 690 784 690 784 691 784 c 0,95,96
 700 783 700 783 706 780 c 0,97,98
 710 778 710 778 713 775 c 0,99,100
 716 771 716 771 718 768 c 0,101,102
 723 761 723 761 722 753 c 0,103,104
 722 748 722 748 721 745 c 0,105,106
 719 734 719 734 710 728 c 0,107,108
 707 726 707 726 703 724 c 2,109,-1
 180 473 l 1,110,-1
 706 220 l 2,111,112
 722 212 722 212 722 193 c 0,113,114
 722 179 722 179 713 170 c 0,115,116
 709 166 709 166 706 165 c 0,117,118
 699 161 699 161 691 161 c 0,119,120
 686 161 686 161 685 161 c 0,121,122
 681 162 681 162 678 165 c 2,123,-1
 93 445 l 1,124,125
 79 453 79 453 76 468 c 0,126,127
 76 471 76 471 76 473 c 0,84,85
EndSplineSet
Validated: 3073
EndChar

StartChar: gnvert
Encoding: 8809 8809 9
Width: 799
VWidth: 1000
Flags: W
HStem: -202 63<77.4648 368 431 695> 1 63<77.4485 368 431 695> 161 61<77.1226 96>
VStem: 368 63<-307.899 -202 -139 1 64 169.899>
LayerCount: 2
Fore
SplineSet
76 -171 m 0,0,1
 76 -166 76 -166 77 -163 c 0,2,3
 80 -150 80 -150 92 -144 c 0,4,5
 97 -141 97 -141 104 -139 c 2,6,-1
 105 -139 l 1,7,-1
 368 -139 l 1,8,-1
 368 1 l 1,9,-1
 105 1 l 1,10,-1
 104 1 l 2,11,12
 96 3 96 3 92 6 c 0,13,14
 80 13 80 13 77 25 c 0,15,16
 76 29 76 29 76 33 c 0,17,18
 77 51 77 51 91 59 c 0,19,20
 97 62 97 62 104 64 c 2,21,-1
 105 64 l 1,22,-1
 368 64 l 1,23,-1
 368 142 l 1,24,-1
 368 143 l 2,25,26
 369 149 369 149 373 156 c 0,27,28
 381 171 381 171 392 171 c 0,29,-1
 404 171 l 0,30,31
 416 169 416 169 423 160 c 0,32,33
 428 154 428 154 431 143 c 2,34,-1
 431 142 l 1,35,-1
 431 64 l 1,36,-1
 694 64 l 1,37,-1
 695 64 l 2,38,39
 702 62 702 62 705 60 c 0,40,41
 722 52 722 52 722 33 c 0,42,43
 722 28 722 28 721 25 c 0,44,45
 718 11 718 11 705 5 c 0,46,47
 700 3 700 3 695 1 c 2,48,-1
 694 1 l 1,49,-1
 431 1 l 1,50,-1
 431 -139 l 1,51,-1
 694 -139 l 1,52,-1
 695 -139 l 2,53,54
 702 -141 702 -141 705 -143 c 0,55,56
 718 -149 718 -149 721 -163 c 0,57,58
 722 -168 722 -168 722 -171 c 0,59,60
 721 -191 721 -191 705 -198 c 0,61,62
 700 -200 700 -200 695 -202 c 2,63,-1
 694 -202 l 1,64,-1
 431 -202 l 1,65,-1
 431 -280 l 1,66,-1
 431 -281 l 2,67,68
 428 -292 428 -292 423 -298 c 0,69,70
 416 -307 416 -307 404 -309 c 0,71,72
 401 -309 401 -309 391 -308.5 c 128,-1,73
 381 -308 381 -308 373 -294 c 0,74,75
 370 -288 370 -288 368 -281 c 2,76,-1
 368 -280 l 1,77,-1
 368 -202 l 1,78,-1
 105 -202 l 1,79,-1
 104 -202 l 2,80,81
 95 -200 95 -200 91 -197 c 0,82,83
 76 -189 76 -189 76 -171 c 0,0,1
96 222 m 2,84,-1
 618 473 l 1,85,-1
 93 725 l 1,86,87
 79 733 79 733 76 748 c 0,88,89
 76 751 76 751 76 753 c 0,90,91
 76 762 76 762 80 768 c 0,92,93
 82 771 82 771 88.5 777.5 c 128,-1,94
 95 784 95 784 108 784 c 0,95,96
 115 784 115 784 119 782 c 2,97,-1
 120 782 l 1,98,-1
 706 500 l 2,99,100
 722 492 722 492 722 473 c 0,101,102
 722 469 722 469 721 465 c 0,103,104
 719 454 719 454 710 448 c 0,105,106
 707 446 707 446 703 444 c 2,107,-1
 121 164 l 2,108,109
 116 161 116 161 108 161 c 0,110,111
 95 161 95 161 85 171 c 128,-1,112
 75 181 75 181 76 193 c 128,-1,113
 77 205 77 205 84 213 c 0,114,115
 89 218 89 218 96 222 c 2,84,-1
EndSplineSet
Validated: 3073
EndChar

StartChar: varsubsetneqq
Encoding: 10952 10952 10
Width: 799
VWidth: 1000
Flags: W
HStem: -245 63<77.4648 269 383 695> -42 63<77.4768 397 511 695> 161 63<292.876 526 640 695> 721 63<292.876 695>
VStem: 76 63<370.183 575.094>
LayerCount: 2
Fore
SplineSet
76 -214 m 0,0,1
 76 -209 76 -209 77 -206 c 0,2,3
 80 -193 80 -193 92 -187 c 0,4,5
 97 -184 97 -184 104 -182 c 2,6,-1
 105 -182 l 1,7,-1
 308 -182 l 1,8,-1
 397 -42 l 1,9,-1
 105 -42 l 1,10,-1
 104 -42 l 2,11,12
 95 -40 95 -40 91 -37 c 0,13,14
 75 -28 75 -28 76 -11 c 0,15,16
 76 -6 76 -6 77 -3 c 0,17,18
 80 10 80 10 92 16 c 0,19,20
 97 19 97 19 104 21 c 2,21,-1
 105 21 l 1,22,-1
 437 21 l 1,23,-1
 526 161 l 1,24,-1
 397 161 l 2,25,26
 266 161 266 161 171 252 c 128,-1,27
 76 343 76 343 76 473 c 0,28,29
 76 602 76 602 171 693 c 128,-1,30
 266 784 266 784 397 784 c 2,31,-1
 694 784 l 1,32,-1
 695 784 l 2,33,34
 702 782 702 782 705 780 c 0,35,36
 722 772 722 772 722 753 c 0,37,38
 722 748 722 748 721 745 c 0,39,40
 718 731 718 731 705 725 c 0,41,42
 700 723 700 723 695 721 c 2,43,-1
 694 721 l 1,44,-1
 401 721 l 2,45,46
 294 721 294 721 216.5 649.5 c 128,-1,47
 139 578 139 578 139 473 c 0,48,49
 139 367 139 367 216.5 295.5 c 128,-1,50
 294 224 294 224 401 224 c 2,51,-1
 566 224 l 1,52,-1
 629 324 l 1,53,54
 636 338 636 338 655 338 c 0,55,56
 669 338 669 338 675 331.5 c 128,-1,57
 681 325 681 325 683 322 c 0,58,59
 687 315 687 315 687 307 c 0,60,61
 687 302 l 0,62,63
 686 295 686 295 682 290 c 2,64,-1
 640 224 l 1,65,-1
 694 224 l 1,66,-1
 695 224 l 2,67,68
 702 222 702 222 705 220 c 0,69,70
 722 212 722 212 722 193 c 0,71,72
 722 188 722 188 721 185 c 0,73,74
 718 171 718 171 705 165 c 0,75,76
 700 163 700 163 695 161 c 2,77,-1
 694 161 l 1,78,-1
 600 161 l 1,79,-1
 511 21 l 1,80,-1
 694 21 l 1,81,-1
 695 21 l 2,82,83
 702 19 702 19 705 17 c 0,84,85
 718 11 718 11 721 -3 c 0,86,87
 722 -8 722 -8 722 -11 c 0,88,89
 721 -31 721 -31 705 -38 c 0,90,91
 700 -40 700 -40 695 -42 c 2,92,-1
 694 -42 l 1,93,-1
 472 -42 l 1,94,-1
 383 -182 l 1,95,-1
 694 -182 l 1,96,-1
 695 -182 l 2,97,98
 702 -184 702 -184 705 -186 c 0,99,100
 718 -192 718 -192 721 -206 c 0,101,102
 722 -211 722 -211 722 -214 c 0,103,104
 721 -234 721 -234 705 -241 c 0,105,106
 700 -243 700 -243 695 -245 c 2,107,-1
 694 -245 l 1,108,-1
 343 -245 l 1,109,-1
 279 -345 l 1,110,111
 271 -356 271 -356 261 -358 c 0,112,113
 257 -359 257 -359 253 -359 c 0,114,115
 248 -359 l 0,116,117
 237 -357 237 -357 232 -350.5 c 128,-1,118
 227 -344 227 -344 225 -341 c 0,119,120
 222 -335 222 -335 222 -328 c 0,121,122
 222 -319 222 -319 226 -312 c 2,123,-1
 269 -245 l 1,124,-1
 105 -245 l 1,125,-1
 104 -245 l 2,126,127
 95 -243 95 -243 91 -240 c 0,128,129
 76 -232 76 -232 76 -214 c 0,0,1
EndSplineSet
Validated: 3073
EndChar

StartChar: varsupsetneqq
Encoding: 10953 10953 11
Width: 799
VWidth: 1000
Flags: W
HStem: -245 63<77.4768 142 236 695> -42 63<77.4768 224 318 695> 161 63<77.4485 306 400 505.124> 721 63<77.4485 505.124>
VStem: 111 61<-357.734 -340> 659 63<370.502 575.024>
LayerCount: 2
Fore
SplineSet
114 -316 m 2,0,-1
 142 -245 l 1,1,-1
 105 -245 l 1,2,-1
 104 -245 l 2,3,4
 95 -243 95 -243 91 -240 c 0,5,6
 75 -231 75 -231 76 -214 c 0,7,8
 76 -209 76 -209 77 -206 c 0,9,10
 80 -193 80 -193 92 -187 c 0,11,12
 97 -184 97 -184 104 -182 c 2,13,-1
 105 -182 l 1,14,-1
 167 -182 l 1,15,-1
 224 -42 l 1,16,-1
 105 -42 l 1,17,-1
 104 -42 l 2,18,19
 95 -40 95 -40 91 -37 c 0,20,21
 75 -28 75 -28 76 -11 c 0,22,23
 76 -6 76 -6 77 -3 c 0,24,25
 80 10 80 10 92 16 c 0,26,27
 97 19 97 19 104 21 c 2,28,-1
 105 21 l 1,29,-1
 249 21 l 1,30,-1
 306 161 l 1,31,-1
 105 161 l 1,32,-1
 104 161 l 2,33,34
 96 163 96 163 92 166 c 0,35,36
 80 173 80 173 77 185 c 0,37,38
 76 189 76 189 76 193 c 0,39,40
 77 211 77 211 91 219 c 0,41,42
 97 222 97 222 104 224 c 2,43,-1
 105 224 l 1,44,-1
 331 224 l 1,45,-1
 370 319 l 1,46,47
 378 336 378 336 394 338 c 0,48,49
 397 338 397 338 399 338 c 0,50,51
 413 338 413 338 422 329 c 0,52,53
 426 325 426 325 427 322 c 0,54,55
 431 315 431 315 431 307 c 0,56,57
 431 301 431 301 428 295 c 2,58,-1
 400 224 l 1,59,60
 505 225 505 225 582 296 c 0,61,62
 659 368 659 368 659 473 c 128,-1,63
 659 578 659 578 582 649 c 0,64,65
 504 721 504 721 397 721 c 2,66,-1
 105 721 l 1,67,-1
 104 721 l 2,68,69
 96 723 96 723 92 726 c 0,70,71
 80 733 80 733 77 745 c 0,72,73
 76 749 76 749 76 753 c 0,74,75
 77 771 77 771 91 779 c 0,76,77
 97 782 97 782 104 784 c 2,78,-1
 105 784 l 1,79,-1
 401 784 l 2,80,81
 532 784 532 784 627 693 c 128,-1,82
 722 602 722 602 722 473 c 0,83,84
 722 343 722 343 627 252 c 128,-1,85
 532 161 532 161 401 161 c 2,86,-1
 374 161 l 1,87,-1
 318 21 l 1,88,-1
 694 21 l 1,89,-1
 695 21 l 2,90,91
 702 19 702 19 705 17 c 0,92,93
 718 11 718 11 721 -3 c 0,94,95
 722 -8 722 -8 722 -11 c 0,96,97
 721 -31 721 -31 705 -38 c 0,98,99
 700 -40 700 -40 695 -42 c 2,100,-1
 694 -42 l 1,101,-1
 292 -42 l 1,102,-1
 236 -182 l 1,103,-1
 694 -182 l 1,104,-1
 695 -182 l 2,105,106
 702 -184 702 -184 705 -186 c 0,107,108
 718 -192 718 -192 721 -206 c 0,109,110
 722 -211 722 -211 722 -214 c 0,111,112
 721 -234 721 -234 705 -241 c 0,113,114
 700 -243 700 -243 695 -245 c 2,115,-1
 694 -245 l 1,116,-1
 210 -245 l 1,117,-1
 172 -340 l 1,118,-1
 172 -341 l 1,119,120
 166 -350 166 -350 160 -354 c 0,121,122
 156 -357 156 -357 151 -358 c 0,123,124
 147 -359 147 -359 143 -359 c 0,125,126
 129 -359 129 -359 120 -350 c 0,127,128
 116 -346 116 -346 115 -343 c 0,129,130
 111 -336 111 -336 111 -328 c 0,131,132
 111 -322 111 -322 114 -316 c 2,0,-1
EndSplineSet
Validated: 3073
EndChar

StartChar: varsubsetneq
Encoding: 8842 8842 12
Width: 799
VWidth: 1000
Flags: W
HStem: -164 63<117 249 382 695> 39 63<292.876 416 549 695> 599 63<292.876 695>
VStem: 76 63<248.253 452.775>
LayerCount: 2
Fore
SplineSet
198 -226 m 2,0,-1
 249 -164 l 1,1,-1
 126 -164 l 1,2,-1
 125 -164 l 2,3,4
 119 -163 119 -163 117 -162 c 0,5,6
 100 -156 100 -156 98 -138 c 0,7,8
 98 -135 98 -135 98 -133 c 0,9,10
 98 -128 98 -128 99 -125 c 0,11,12
 102 -109 102 -109 117 -103 c 0,13,14
 121 -102 121 -102 125 -101 c 2,15,-1
 126 -101 l 1,16,-1
 300 -101 l 1,17,-1
 416 39 l 1,18,-1
 397 39 l 2,19,20
 266 39 266 39 171 130 c 128,-1,21
 76 221 76 221 76 351 c 0,22,23
 76 480 76 480 171 571 c 128,-1,24
 266 662 266 662 397 662 c 2,25,-1
 694 662 l 1,26,-1
 695 662 l 2,27,28
 702 660 702 660 705 658 c 0,29,30
 722 650 722 650 722 631 c 0,31,32
 722 626 722 626 721 623 c 0,33,34
 718 609 718 609 705 603 c 0,35,36
 700 601 700 601 695 599 c 2,37,-1
 694 599 l 1,38,-1
 401 599 l 2,39,40
 294 599 294 599 216 527 c 0,41,42
 139 455 139 455 139 351 c 0,43,44
 139 245 139 245 216 174 c 0,45,46
 294 102 294 102 401 102 c 2,47,-1
 467 102 l 1,48,-1
 554 207 l 1,49,50
 562 214 562 214 568 215 c 0,51,52
 572 216 572 216 576 216 c 0,53,54
 590 216 590 216 599 207 c 0,55,56
 603 203 603 203 604 200 c 0,57,58
 609 192 609 192 608 185 c 0,59,60
 608 181 608 181 607 178 c 0,61,62
 607 176 607 176 606 175 c 0,63,64
 604 169 604 169 600 164 c 2,65,-1
 549 102 l 1,66,-1
 694 102 l 1,67,-1
 695 102 l 2,68,69
 702 100 702 100 705 98 c 0,70,71
 722 90 722 90 722 71 c 0,72,73
 722 66 722 66 721 63 c 0,74,75
 718 49 718 49 705 43 c 0,76,77
 700 41 700 41 695 39 c 2,78,-1
 694 39 l 1,79,-1
 498 39 l 1,80,-1
 382 -101 l 1,81,-1
 694 -101 l 1,82,-1
 695 -101 l 2,83,84
 702 -103 702 -103 705 -105 c 0,85,86
 718 -111 718 -111 721 -125 c 0,87,88
 722 -130 722 -130 722 -133 c 0,89,90
 721 -153 721 -153 705 -160 c 0,91,92
 700 -162 700 -162 695 -164 c 2,93,-1
 694 -164 l 1,94,-1
 331 -164 l 1,95,-1
 244 -269 l 1,96,97
 236 -276 236 -276 230 -277 c 0,98,99
 226 -278 226 -278 222 -278 c 0,100,101
 208 -278 208 -278 199 -269 c 0,102,103
 195 -265 195 -265 194 -262 c 0,104,105
 189 -254 189 -254 190 -247 c 0,106,107
 190 -243 190 -243 191 -240 c 0,108,109
 191 -239 191 -239 191 -238 c 2,110,-1
 192 -237 l 2,111,112
 194 -232 194 -232 198 -226 c 2,0,-1
191 -238 m 1,113,-1
 191 -238 l 1,113,-1
EndSplineSet
Validated: 3073
EndChar

StartChar: varsupsetneq
Encoding: 8843 8843 13
Width: 799
VWidth: 1000
Flags: W
HStem: -164 63<77.4768 124 242 699.552> 39 63<77.4485 258 376 505.124> 599 63<77.4485 505.124>
VStem: 659 63<248.183 453.094>
LayerCount: 2
Fore
SplineSet
81 -230 m 2,0,-1
 124 -164 l 1,1,-1
 105 -164 l 1,2,-1
 104 -164 l 2,3,4
 95 -162 95 -162 91 -159 c 0,5,6
 75 -150 75 -150 76 -133 c 0,7,8
 76 -128 76 -128 77 -125 c 0,9,10
 80 -112 80 -112 92 -106 c 0,11,12
 97 -103 97 -103 104 -101 c 2,13,-1
 105 -101 l 1,14,-1
 167 -101 l 1,15,-1
 258 39 l 1,16,-1
 105 39 l 1,17,-1
 104 39 l 2,18,19
 96 41 96 41 92 44 c 0,20,21
 80 51 80 51 77 63 c 0,22,23
 76 67 76 67 76 71 c 0,24,25
 77 89 77 89 91 97 c 0,26,27
 97 100 97 100 104 102 c 2,28,-1
 105 102 l 1,29,-1
 301 102 l 1,30,-1
 367 203 l 1,31,32
 375 213 375 213 385 215 c 0,33,34
 389 216 389 216 393 216 c 0,35,36
 398 216 l 0,37,38
 409 214 409 214 414 207.5 c 128,-1,39
 419 201 419 201 421 198 c 0,40,41
 424 192 424 192 424 184 c 128,-1,42
 424 176 424 176 421 172 c 0,43,44
 420 170 420 170 419 168 c 2,45,-1
 376 102 l 1,46,-1
 397 102 l 2,47,48
 504 102 504 102 581.5 173.5 c 128,-1,49
 659 245 659 245 659 351 c 0,50,51
 659 456 659 456 581.5 527.5 c 128,-1,52
 504 599 504 599 397 599 c 2,53,-1
 105 599 l 1,54,-1
 104 599 l 2,55,56
 96 601 96 601 92 604 c 0,57,58
 80 611 80 611 77 623 c 0,59,60
 76 627 76 627 76 631 c 0,61,62
 77 649 77 649 91 657 c 0,63,64
 97 660 97 660 104 662 c 2,65,-1
 105 662 l 1,66,-1
 401 662 l 2,67,68
 532 662 532 662 627 571 c 128,-1,69
 722 480 722 480 722 351 c 0,70,71
 722 221 722 221 627 130 c 128,-1,72
 532 39 532 39 401 39 c 2,73,-1
 334 39 l 1,74,-1
 242 -101 l 1,75,-1
 672 -101 l 1,76,-1
 673 -101 l 2,77,78
 681 -103 681 -103 685 -106 c 0,79,80
 697 -113 697 -113 700 -125 c 0,81,82
 701 -129 701 -129 701 -133 c 0,83,84
 700 -151 700 -151 686 -159 c 0,85,86
 680 -162 680 -162 673 -164 c 2,87,-1
 672 -164 l 1,88,-1
 200 -164 l 1,89,-1
 133 -265 l 2,90,91
 124 -278 124 -278 108 -278 c 0,92,93
 94 -278 94 -278 88 -271.5 c 128,-1,94
 82 -265 82 -265 80 -262 c 0,95,96
 75 -255 75 -255 76 -247 c 0,97,98
 76 -244 76 -244 76 -242 c 0,99,100
 77 -235 77 -235 81 -230 c 2,0,-1
EndSplineSet
Validated: 3073
EndChar

StartChar: nsubseteqq
Encoding: 8840 8840 14
Width: 799
VWidth: 1000
Flags: W
HStem: -245 63<77.4768 147 243 695> -42 63<77.4768 236 332 695> 161 63<422 695> 169 59<284.546 329> 721 63<292.876 573 669 695>
VStem: 76 63<371.292 575.094> 111 61<-361.55 -343> 626 61<843 861.55>
LayerCount: 2
Fore
SplineSet
114 -319 m 2,0,-1
 147 -245 l 1,1,-1
 105 -245 l 1,2,-1
 104 -245 l 2,3,4
 95 -243 95 -243 91 -240 c 0,5,6
 75 -231 75 -231 76 -214 c 0,7,8
 76 -209 76 -209 77 -206 c 0,9,10
 80 -193 80 -193 92 -187 c 0,11,12
 97 -184 97 -184 104 -182 c 2,13,-1
 105 -182 l 1,14,-1
 174 -182 l 1,15,-1
 236 -42 l 1,16,-1
 105 -42 l 1,17,-1
 104 -42 l 2,18,19
 95 -40 95 -40 91 -37 c 0,20,21
 75 -28 75 -28 76 -11 c 0,22,23
 76 -6 76 -6 77 -3 c 0,24,25
 80 10 80 10 92 16 c 0,26,27
 97 19 97 19 104 21 c 2,28,-1
 105 21 l 1,29,-1
 263 21 l 1,30,-1
 329 169 l 1,31,32
 224 192 224 192 150 275 c 128,-1,33
 76 358 76 358 76 473 c 0,34,35
 76 602 76 602 171 693 c 128,-1,36
 266 784 266 784 397 784 c 2,37,-1
 600 784 l 1,38,-1
 626 843 l 1,39,40
 631 851 631 851 635 855 c 0,41,42
 643 863 643 863 655 863 c 0,43,44
 668 863 668 863 677.5 853.5 c 128,-1,45
 687 844 687 844 687 831 c 0,46,47
 687 827 687 827 684 819 c 2,48,-1
 669 784 l 1,49,-1
 694 784 l 1,50,-1
 695 784 l 2,51,52
 702 782 702 782 705 780 c 0,53,54
 722 772 722 772 722 753 c 0,55,56
 722 748 722 748 721 745 c 0,57,58
 718 731 718 731 705 725 c 0,59,60
 700 723 700 723 695 721 c 2,61,-1
 694 721 l 1,62,-1
 642 721 l 1,63,-1
 422 224 l 1,64,-1
 694 224 l 1,65,-1
 695 224 l 2,66,67
 702 222 702 222 705 220 c 0,68,69
 722 212 722 212 722 193 c 0,70,71
 722 188 722 188 721 185 c 0,72,73
 718 171 718 171 705 165 c 0,74,75
 700 163 700 163 695 161 c 2,76,-1
 694 161 l 1,77,-1
 395 161 l 1,78,-1
 332 21 l 1,79,-1
 694 21 l 1,80,-1
 695 21 l 2,81,82
 702 19 702 19 705 17 c 0,83,84
 718 11 718 11 721 -3 c 0,85,86
 722 -8 722 -8 722 -11 c 0,87,88
 721 -31 721 -31 705 -38 c 0,89,90
 700 -40 700 -40 695 -42 c 2,91,-1
 694 -42 l 1,92,-1
 305 -42 l 1,93,-1
 243 -182 l 1,94,-1
 694 -182 l 1,95,-1
 695 -182 l 2,96,97
 702 -184 702 -184 705 -186 c 0,98,99
 718 -192 718 -192 721 -206 c 0,100,101
 722 -211 722 -211 722 -214 c 0,102,103
 721 -234 721 -234 705 -241 c 0,104,105
 700 -243 700 -243 695 -245 c 2,106,-1
 694 -245 l 1,107,-1
 216 -245 l 1,108,-1
 172 -343 l 2,109,110
 167 -351 167 -351 163 -355 c 0,111,112
 155 -363 155 -363 143 -363 c 0,113,114
 130 -363 130 -363 120.5 -353.5 c 128,-1,115
 111 -344 111 -344 111 -331 c 0,116,117
 111 -327 111 -327 114 -319 c 2,0,-1
355 228 m 1,118,-1
 573 721 l 1,119,-1
 401 721 l 2,120,121
 294 721 294 721 216.5 649.5 c 128,-1,122
 139 578 139 578 139 473 c 0,123,124
 139 379 139 379 202 310.5 c 128,-1,125
 265 242 265 242 355 228 c 1,118,-1
EndSplineSet
Validated: 3073
EndChar

StartChar: nsupseteqq
Encoding: 8841 8841 15
Width: 799
VWidth: 1000
Flags: W
HStem: -245 63<77.4768 147 243 695> -42 63<77.4768 236 332 695> 161 63<77.4485 326> 721 63<77.4485 506.987>
VStem: 111 61<-361.55 -343> 626 61<843 861.55> 659 63<370.804 574.287>
LayerCount: 2
Fore
SplineSet
114 -319 m 2,0,-1
 147 -245 l 1,1,-1
 105 -245 l 1,2,-1
 104 -245 l 2,3,4
 95 -243 95 -243 91 -240 c 0,5,6
 75 -231 75 -231 76 -214 c 0,7,8
 76 -209 76 -209 77 -206 c 0,9,10
 80 -193 80 -193 92 -187 c 0,11,12
 97 -184 97 -184 104 -182 c 2,13,-1
 105 -182 l 1,14,-1
 174 -182 l 1,15,-1
 236 -42 l 1,16,-1
 105 -42 l 1,17,-1
 104 -42 l 2,18,19
 95 -40 95 -40 91 -37 c 0,20,21
 75 -28 75 -28 76 -11 c 0,22,23
 76 -6 76 -6 77 -3 c 0,24,25
 80 10 80 10 92 16 c 0,26,27
 97 19 97 19 104 21 c 2,28,-1
 105 21 l 1,29,-1
 263 21 l 1,30,-1
 326 161 l 1,31,-1
 105 161 l 1,32,-1
 104 161 l 2,33,34
 96 163 96 163 92 166 c 0,35,36
 80 173 80 173 77 185 c 0,37,38
 76 189 76 189 76 193 c 0,39,40
 77 211 77 211 91 219 c 0,41,42
 97 222 97 222 104 224 c 2,43,-1
 105 224 l 1,44,-1
 353 224 l 1,45,-1
 552 674 l 1,46,47
 485 721 485 721 397 721 c 2,48,-1
 105 721 l 1,49,-1
 104 721 l 2,50,51
 96 723 96 723 92 726 c 0,52,53
 80 733 80 733 77 745 c 0,54,55
 76 749 76 749 76 753 c 0,56,57
 77 771 77 771 91 779 c 0,58,59
 97 782 97 782 104 784 c 2,60,-1
 105 784 l 1,61,-1
 401 784 l 2,62,63
 497 784 497 784 578 733 c 1,64,-1
 626 843 l 2,65,66
 631 851 631 851 635 855 c 0,67,68
 643 863 643 863 655 863 c 0,69,70
 668 863 668 863 677.5 853.5 c 128,-1,71
 687 844 687 844 687 831 c 0,72,73
 687 827 687 827 684 819 c 2,74,-1
 628 692 l 1,75,76
 722 602 722 602 722 473 c 0,77,78
 722 343 722 343 627 252 c 128,-1,79
 532 161 532 161 401 161 c 2,80,-1
 395 161 l 1,81,-1
 332 21 l 1,82,-1
 694 21 l 1,83,-1
 695 21 l 2,84,85
 702 19 702 19 705 17 c 0,86,87
 718 11 718 11 721 -3 c 0,88,89
 722 -8 722 -8 722 -11 c 0,90,91
 721 -31 721 -31 705 -38 c 0,92,93
 700 -40 700 -40 695 -42 c 2,94,-1
 694 -42 l 1,95,-1
 305 -42 l 1,96,-1
 243 -182 l 1,97,-1
 694 -182 l 1,98,-1
 695 -182 l 2,99,100
 702 -184 702 -184 705 -186 c 0,101,102
 718 -192 718 -192 721 -206 c 0,103,104
 722 -211 722 -211 722 -214 c 0,105,106
 721 -234 721 -234 705 -241 c 0,107,108
 700 -243 700 -243 695 -245 c 2,109,-1
 694 -245 l 1,110,-1
 216 -245 l 1,111,-1
 172 -343 l 2,112,113
 167 -351 167 -351 163 -355 c 0,114,115
 155 -363 155 -363 143 -363 c 0,116,117
 130 -363 130 -363 120.5 -353.5 c 128,-1,118
 111 -344 111 -344 111 -331 c 0,119,120
 111 -327 111 -327 114 -319 c 2,0,-1
423 224 m 1,121,122
 514 229 514 229 586.5 300.5 c 128,-1,123
 659 372 659 372 659 473 c 0,124,125
 659 562 659 562 601 630 c 1,126,-1
 423 224 l 1,121,122
EndSplineSet
Validated: 3073
EndChar

StartChar: shortbar
Encoding: 8739 8739 16
Width: 228
VWidth: 1000
Flags: W
VStem: 83 63<-5 439.801>
LayerCount: 2
Fore
SplineSet
83 -4 m 1,0,-1
 83 413 l 1,1,-1
 83 414 l 2,2,3
 85 421 85 421 87 424 c 0,4,5
 95 441 95 441 114 441 c 0,6,7
 119 441 l 0,8,9
 130 439 130 439 137 431 c 0,10,11
 143 425 143 425 146 415 c 2,12,-1
 146 414 l 1,13,-1
 146 -5 l 1,14,-1
 146 -6 l 2,15,16
 142 -17 142 -17 137 -22 c 0,17,18
 130 -30 130 -30 119 -32 c 0,19,20
 116 -32 116 -32 114 -32 c 0,21,22
 94 -31 94 -31 87 -15 c 0,23,24
 85 -10 85 -10 83 -5 c 2,25,-1
 83 -4 l 1,0,-1
EndSplineSet
Validated: 3073
EndChar

StartChar: nshortbar
Encoding: 8740 8740 17
Width: 228
VWidth: 1000
Flags: W
VStem: 83 63<-5 171 330 439.801>
LayerCount: 2
Fore
SplineSet
83 171 m 1,0,-1
 23 107 l 2,1,2
 17 102 17 102 13 100 c 0,3,4
 7 98 7 98 0 98 c 0,5,6
 -14 98 -14 98 -23 107 c 0,7,8
 -27 111 -27 111 -28 114 c 0,9,10
 -33 122 -33 122 -32 129 c 0,11,12
 -32 133 -32 133 -31 136 c 0,13,14
 -31 137 -31 137 -31 138 c 2,15,-1
 -30 139 l 2,16,17
 -28 145 -28 145 -24 150 c 0,18,-1
 -23 151 l 1,19,-1
 83 263 l 1,20,-1
 83 413 l 1,21,-1
 83 414 l 2,22,23
 85 421 85 421 87 424 c 0,24,25
 95 441 95 441 114 441 c 0,26,27
 118 441 118 441 119 441 c 0,28,29
 130 439 130 439 137 431 c 0,30,31
 143 425 143 425 146 415 c 2,32,-1
 146 414 l 1,33,-1
 146 330 l 1,34,-1
 204 392 l 2,35,36
 211 400 211 400 221 402 c 0,37,38
 224 402 224 402 227 402 c 0,39,40
 241 402 241 402 250 393 c 0,41,42
 254 389 254 389 255 386 c 0,43,44
 260 378 260 378 259 371 c 0,45,46
 259 367 259 367 258 364 c 0,47,48
 258 362 258 362 257 361 c 0,49,50
 255 355 255 355 251 350 c 0,51,-1
 250 349 l 1,52,-1
 146 238 l 1,53,-1
 146 -5 l 1,54,-1
 146 -6 l 2,55,56
 142 -17 142 -17 137 -22 c 0,57,58
 130 -30 130 -30 119 -32 c 0,59,60
 116 -32 116 -32 114 -32 c 0,61,62
 94 -31 94 -31 87 -15 c 0,63,64
 85 -10 85 -10 83 -5 c 2,65,-1
 83 -4 l 1,66,-1
 83 171 l 1,0,-1
-31 138 m 1,67,-1
 -31 138 l 1,67,-1
EndSplineSet
Validated: 3073
EndChar

StartChar: shortparallel
Encoding: 8741 8741 18
Width: 399
VWidth: 1000
Flags: W
VStem: 47 63<-5 439.801> 289 63<-5 439.801>
LayerCount: 2
Fore
SplineSet
47 -4 m 1,0,-1
 47 413 l 1,1,-1
 47 414 l 2,2,3
 49 421 49 421 51 424 c 0,4,5
 59 441 59 441 78 441 c 0,6,7
 83 441 l 0,8,9
 94 439 94 439 101 431 c 0,10,11
 107 425 107 425 110 415 c 2,12,-1
 110 414 l 1,13,-1
 110 -5 l 1,14,-1
 110 -6 l 2,15,16
 106 -17 106 -17 101 -22 c 0,17,18
 94 -30 94 -30 83 -32 c 0,19,20
 80 -32 80 -32 78 -32 c 0,21,22
 58 -31 58 -31 51 -15 c 0,23,24
 49 -10 49 -10 47 -5 c 2,25,-1
 47 -4 l 1,0,-1
289 -4 m 1,26,-1
 289 413 l 1,27,-1
 289 414 l 2,28,29
 291 421 291 421 293 424 c 0,30,31
 301 441 301 441 320 441 c 0,32,33
 325 441 l 0,34,35
 336 439 336 439 343 431 c 0,36,37
 349 425 349 425 352 415 c 2,38,-1
 352 414 l 1,39,-1
 352 -5 l 1,40,-1
 352 -6 l 2,41,42
 348 -17 348 -17 343 -22 c 0,43,44
 336 -30 336 -30 325 -32 c 0,45,46
 322 -32 322 -32 320 -32 c 0,47,48
 300 -31 300 -31 293 -15 c 0,49,50
 291 -10 291 -10 289 -5 c 2,51,-1
 289 -4 l 1,26,-1
EndSplineSet
Validated: 3073
EndChar

StartChar: nshortparallel
Encoding: 8742 8742 19
Width: 399
VWidth: 1000
Flags: W
VStem: 47 63<-30.8005 121 233 414> 289 63<-5 267 379 414>
LayerCount: 2
Fore
SplineSet
47 121 m 1,0,-1
 16 102 l 2,1,2
 9 98 9 98 0 98 c 0,3,4
 -14 98 -14 98 -20 104.5 c 128,-1,5
 -26 111 -26 111 -28 114 c 0,6,7
 -32 121 -32 121 -32 129 c 0,8,9
 -32 145 -32 145 -19 155 c 0,10,-1
 -18 156 l 1,11,-1
 47 195 l 1,12,-1
 47 413 l 1,13,-1
 47 414 l 2,14,15
 49 421 49 421 51 424 c 0,16,17
 57 437 57 437 71 440 c 0,18,19
 76 441 76 441 79 441 c 0,20,21
 99 440 99 440 106 424 c 0,22,23
 108 419 108 419 110 414 c 2,24,-1
 110 413 l 1,25,-1
 110 233 l 1,26,-1
 289 341 l 1,27,-1
 289 413 l 1,28,-1
 289 414 l 2,29,30
 291 421 291 421 293 424 c 0,31,32
 301 441 301 441 320 441 c 0,33,34
 325 441 325 441 328 440 c 0,35,36
 342 437 342 437 348 424 c 0,37,38
 350 419 350 419 352 414 c 2,39,-1
 352 413 l 1,40,-1
 352 379 l 1,41,-1
 382 397 l 2,42,43
 388 401 388 401 394 402 c 0,44,45
 396 402 396 402 399 402 c 0,46,47
 413 402 413 402 419 395.5 c 128,-1,48
 425 389 425 389 427 386 c 0,49,50
 431 379 431 379 431 371 c 0,51,52
 431 355 431 355 418 345 c 0,53,-1
 417 344 l 1,54,-1
 352 305 l 1,55,-1
 352 -4 l 1,56,-1
 352 -5 l 2,57,58
 350 -12 350 -12 348 -15 c 0,59,60
 342 -28 342 -28 328 -31 c 0,61,62
 323 -32 323 -32 320 -32 c 0,63,64
 300 -31 300 -31 293 -15 c 0,65,66
 291 -10 291 -10 289 -5 c 2,67,-1
 289 -4 l 1,68,-1
 289 267 l 1,69,-1
 110 159 l 1,70,-1
 110 -4 l 1,71,-1
 110 -5 l 2,72,73
 108 -12 108 -12 106 -15 c 0,74,75
 98 -32 98 -32 79 -32 c 0,76,77
 74 -32 l 0,78,79
 63 -30 63 -30 56 -22 c 0,80,81
 50 -16 50 -16 47 -6 c 2,82,-1
 47 -5 l 1,83,-1
 47 121 l 1,0,-1
EndSplineSet
Validated: 3073
EndChar

StartChar: emptyset0
Encoding: 8709 8709 20
Width: 513
VWidth: 1000
Flags: W
HStem: -32 45<196.821 316.297> 681 45<192.388 316.426>
VStem: 37 91<145.032 546.329> 335 74<723.912 759.844> 385 91<141.544 545.75>
LayerCount: 2
Fore
SplineSet
177 -27 m 0,0,1
 176 -32 176 -32 171 -51 c 0,2,3
 165 -70 165 -70 159 -77.5 c 128,-1,4
 153 -85 153 -85 143 -87 c 0,5,6
 139 -88 139 -88 135 -88 c 0,7,8
 128 -88 128 -88 122.5 -85.5 c 128,-1,9
 117 -83 117 -83 114 -79 c 0,10,11
 108 -73 108 -73 105 -66 c 0,12,13
 104 -61 104 -61 104 -56 c 2,14,-1
 104 -55 l 1,15,-1
 126 22 l 1,16,17
 37 107 37 107 37 345 c 0,18,19
 37 516 37 516 82 608 c 0,20,21
 139 726 139 726 257 726 c 0,22,23
 298 726 298 726 332 710 c 1,24,25
 333 715 333 715 335 717 c 1,26,-1
 335 718 l 1,27,28
 335 722 335 722 337 724 c 1,29,-1
 337 725 l 2,30,31
 338 728 338 728 339 734 c 0,32,33
 339 735 339 735 342 745 c 0,34,35
 346 759 346 759 350 764 c 0,36,37
 354 770 354 770 359 775 c 0,38,39
 365 780 365 780 373 782 c 0,40,41
 376 782 376 782 378 782 c 0,42,43
 386 782 386 782 391 779.5 c 128,-1,44
 396 777 396 777 399 773 c 0,45,46
 405 767 405 767 408 760 c 0,47,48
 409 755 409 755 409 750 c 2,49,-1
 409 749 l 1,50,-1
 387 672 l 1,51,52
 476 583 476 583 476 345 c 0,53,54
 476 176 476 176 435 90 c 0,55,56
 377 -32 377 -32 256 -32 c 0,57,58
 215 -32 215 -32 180 -16 c 1,59,60
 177 -26 177 -26 177 -27 c 0,0,1
150 104 m 1,61,-1
 317 661 l 1,62,63
 287 681 287 681 257 681 c 0,64,65
 221 681 221 681 189.5 656.5 c 128,-1,66
 158 632 158 632 144 576 c 0,67,68
 128 512 128 512 128 357 c 0,69,70
 128 179 128 179 150 104 c 1,61,-1
363 594 m 1,71,-1
 196 35 l 1,72,73
 225 13 225 13 256 13 c 0,74,75
 291 13 291 13 324 40.5 c 128,-1,76
 357 68 357 68 371 131 c 128,-1,77
 385 194 385 194 385 357 c 0,78,79
 385 425 385 425 384 460.5 c 128,-1,80
 383 496 383 496 376.5 534.5 c 128,-1,81
 370 573 370 573 363 594 c 1,71,-1
EndSplineSet
Validated: 3073
EndChar

StartChar: accentrvec
Encoding: 8594 8594 21
Width: 500
VWidth: 635
Flags: W
HStem: 220 60<19.6169 359>
VStem: 367 60<291.242 348.172>
LayerCount: 2
Fore
SplineSet
64 220 m 2,0,1
 51 220 51 220 46 220.5 c 128,-1,2
 41 221 41 221 37 223 c 128,-1,3
 33 225 33 225 26 230.5 c 128,-1,4
 19 236 19 236 19 250 c 128,-1,5
 19 264 19 264 26 269.5 c 128,-1,6
 33 275 33 275 37 277 c 0,7,8
 42 279 42 279 47.5 279.5 c 128,-1,9
 53 280 53 280 64 280 c 2,10,-1
 383 280 l 1,11,12
 378 289 378 289 372.5 304.5 c 128,-1,13
 367 320 367 320 367 328 c 0,14,15
 367 338 367 338 374.5 348.5 c 128,-1,16
 382 359 382 359 397 359 c 0,17,18
 413 359 413 359 421 344 c 0,19,20
 423 341 423 341 427 330 c 0,21,22
 438 297 438 297 464 278 c 0,23,24
 473 272 473 272 477.5 264.5 c 128,-1,25
 482 257 482 257 482 250 c 0,26,27
 482 242 482 242 477 235 c 0,28,29
 472 227 472 227 460 220 c 1,30,31
 418 199 418 199 384 158 c 0,32,33
 378 151 378 151 371 146 c 0,34,35
 363 141 363 141 357 141 c 0,36,37
 348 141 348 141 341 146 c 0,38,39
 339 147 339 147 333 153 c 128,-1,40
 327 159 327 159 327 171 c 0,41,42
 327 175 327 175 329 180 c 0,43,44
 335 194 335 194 359 220 c 1,45,-1
 64 220 l 2,0,1
EndSplineSet
Validated: 19457
EndChar

StartChar: accentlvec
Encoding: 8592 8592 22
Width: 500
VWidth: 635
Flags: W
HStem: 220 60<143 481.262>
VStem: 74 60<154.281 209.254>
LayerCount: 2
Fore
SplineSet
437 280 m 2,0,1
 452 280 452 280 461 278 c 0,2,3
 482 273 482 273 482 250 c 0,4,5
 482 228 482 228 461 222 c 0,6,7
 453 220 453 220 437 220 c 2,8,-1
 118 220 l 1,9,10
 132 195 132 195 134 174 c 1,11,-1
 134 172 l 2,12,13
 134 163 134 163 128 154 c 0,14,15
 118 141 118 141 104 141 c 0,16,17
 87 141 87 141 79 157 c 0,18,19
 77 159 77 159 74 170 c 0,20,21
 63 205 63 205 37 222 c 0,22,23
 36 223 36 223 32 226 c 128,-1,24
 28 229 28 229 26 231 c 0,25,26
 19 239 19 239 19 250 c 0,27,28
 19 262 19 262 28 271 c 1,29,30
 38 279 38 279 41 280 c 0,31,32
 85 302 85 302 117 342 c 1,33,-1
 127 352 l 1,34,35
 136 359 136 359 144 359 c 0,36,37
 150 359 150 359 157 355 c 128,-1,38
 164 351 164 351 170 342 c 0,39,40
 174 335 174 335 174 329 c 0,41,42
 174 325 174 325 173 323 c 128,-1,43
 172 321 172 321 172 320 c 0,44,45
 167 304 167 304 143 280 c 1,46,-1
 437 280 l 2,0,1
EndSplineSet
Validated: 19457
EndChar

StartChar: accentlrvec
Encoding: 8596 8596 23
Width: 500
VWidth: 635
Flags: W
HStem: 220 60<143 358>
VStem: 74 60<157.065 205.758> 367 60<294.242 342.935>
LayerCount: 2
Fore
SplineSet
118 220 m 1,0,1
 132 195 132 195 134 174 c 1,2,-1
 134 172 l 2,3,4
 134 163 134 163 128 154 c 0,5,6
 118 141 118 141 104 141 c 0,7,8
 95 141 95 141 79 157 c 0,9,10
 77 159 77 159 74 170 c 0,11,12
 67 192 67 192 37 222 c 0,13,14
 36 223 36 223 32 226 c 128,-1,15
 28 229 28 229 26 231 c 0,16,17
 19 239 19 239 19 250 c 0,18,19
 19 262 19 262 28 271 c 1,20,21
 38 279 38 279 41 280 c 0,22,23
 77 292 77 292 117 342 c 1,24,-1
 127 352 l 1,25,26
 136 359 136 359 144 359 c 0,27,28
 150 359 150 359 157 355 c 128,-1,29
 164 351 164 351 170 342 c 0,30,31
 174 335 174 335 174 329 c 0,32,33
 174 325 174 325 173 323 c 128,-1,34
 172 321 172 321 172 320 c 0,35,36
 172 309 172 309 143 280 c 1,37,-1
 383 280 l 1,38,39
 369 305 369 305 367 326 c 1,40,-1
 367 328 l 2,41,42
 367 337 367 337 373 346 c 0,43,44
 383 359 383 359 397 359 c 0,45,46
 406 359 406 359 422 343 c 0,47,48
 424 341 424 341 427 330 c 0,49,50
 434 308 434 308 464 278 c 0,51,52
 465 277 465 277 469 274 c 128,-1,53
 473 271 473 271 475 269 c 0,54,55
 482 261 482 261 482 250 c 0,56,57
 482 238 482 238 473 229 c 1,58,59
 463 221 463 221 460 220 c 0,60,61
 424 208 424 208 384 158 c 1,62,-1
 374 148 l 1,63,64
 365 141 365 141 357 141 c 0,65,66
 351 141 351 141 344 145 c 128,-1,67
 337 149 337 149 331 158 c 0,68,69
 327 165 327 165 327 171 c 0,70,71
 327 175 327 175 328 177 c 128,-1,72
 329 179 329 179 329 180 c 0,73,74
 329 191 329 191 358 220 c 1,75,-1
 118 220 l 1,0,1
EndSplineSet
Validated: 19457
EndChar

StartChar: accentdotlow
Encoding: 46 46 24
Width: 500
VWidth: 1006
Flags: W
HStem: -205 152<196.69 303.31>
VStem: 174 152<-181.795 -76.2052>
LayerCount: 2
Fore
SplineSet
250 -205 m 128,-1,1
 218 -205 218 -205 196 -182.5 c 128,-1,2
 174 -160 174 -160 174 -129 c 128,-1,3
 174 -98 174 -98 196 -75.5 c 128,-1,4
 218 -53 218 -53 250 -53 c 128,-1,5
 282 -53 282 -53 304 -75.5 c 128,-1,6
 326 -98 326 -98 326 -129 c 128,-1,7
 326 -160 326 -160 304 -182.5 c 128,-1,0
 282 -205 282 -205 250 -205 c 128,-1,1
EndSplineSet
Validated: 19457
EndChar

StartChar: accentddddot
Encoding: 9481 9481 25
Width: 500
VWidth: 707
Flags: W
HStem: 186 128<-81.8528 11.9196 110.08 203.853 296.147 389.92 488.08 581.853>
VStem: -98 129<206.111 293.889> 91 129<206.111 293.889> 280 129<206.111 293.889> 469 129<206.111 293.889>
LayerCount: 2
Fore
SplineSet
-34 186 m 0,0,1
 -60 186 -60 186 -79 205 c 128,-1,2
 -98 224 -98 224 -98 250 c 128,-1,3
 -98 276 -98 276 -79 295 c 128,-1,4
 -60 314 -60 314 -34 314 c 0,5,6
 -6 314 -6 314 12.5 294.5 c 128,-1,7
 31 275 31 275 31 250 c 128,-1,8
 31 225 31 225 12.5 205.5 c 128,-1,9
 -6 186 -6 186 -34 186 c 0,0,1
156 186 m 0,10,11
 128 186 128 186 109.5 205.5 c 128,-1,12
 91 225 91 225 91 250 c 128,-1,13
 91 275 91 275 109.5 294.5 c 128,-1,14
 128 314 128 314 156 314 c 0,15,16
 182 314 182 314 201 295 c 128,-1,17
 220 276 220 276 220 250 c 128,-1,18
 220 224 220 224 201 205 c 128,-1,19
 182 186 182 186 156 186 c 0,10,11
344 186 m 0,20,21
 318 186 318 186 299 205 c 128,-1,22
 280 224 280 224 280 250 c 128,-1,23
 280 276 280 276 299 295 c 128,-1,24
 318 314 318 314 344 314 c 0,25,26
 372 314 372 314 390.5 294.5 c 128,-1,27
 409 275 409 275 409 250 c 128,-1,28
 409 225 409 225 390.5 205.5 c 128,-1,29
 372 186 372 186 344 186 c 0,20,21
534 186 m 0,30,31
 506 186 506 186 487.5 205.5 c 128,-1,32
 469 225 469 225 469 250 c 128,-1,33
 469 275 469 275 487 294.5 c 128,-1,34
 505 314 505 314 534 314 c 0,35,36
 560 314 560 314 579 295 c 128,-1,37
 598 276 598 276 598 250 c 128,-1,38
 598 224 598 224 579 205 c 128,-1,39
 560 186 560 186 534 186 c 0,30,31
EndSplineSet
Validated: 19457
EndChar

StartChar: accentdddot
Encoding: 8943 8943 26
Width: 500
VWidth: 707
Flags: W
HStem: 186 128<16.0804 109.853 202.147 295.92 394.08 487.853>
VStem: -3 129<206.111 293.889> 186 129<206.111 293.889> 375 129<206.111 293.889>
CounterMasks: 1 70
LayerCount: 2
Fore
SplineSet
62 186 m 0,0,1
 34 186 34 186 15.5 205.5 c 128,-1,2
 -3 225 -3 225 -3 250 c 128,-1,3
 -3 275 -3 275 15.5 294.5 c 128,-1,4
 34 314 34 314 62 314 c 0,5,6
 88 314 88 314 107 295 c 128,-1,7
 126 276 126 276 126 250 c 128,-1,8
 126 224 126 224 107 205 c 128,-1,9
 88 186 88 186 62 186 c 0,0,1
250 186 m 0,10,11
 224 186 224 186 205 205 c 128,-1,12
 186 224 186 224 186 250 c 128,-1,13
 186 276 186 276 205 295 c 128,-1,14
 224 314 224 314 250 314 c 0,15,16
 278 314 278 314 296.5 294.5 c 128,-1,17
 315 275 315 275 315 250 c 128,-1,18
 315 225 315 225 296.5 205.5 c 128,-1,19
 278 186 278 186 250 186 c 0,10,11
440 186 m 0,20,21
 412 186 412 186 393.5 205.5 c 128,-1,22
 375 225 375 225 375 250 c 128,-1,23
 375 275 375 275 393 294.5 c 128,-1,24
 411 314 411 314 440 314 c 0,25,26
 466 314 466 314 485 295 c 128,-1,27
 504 276 504 276 504 250 c 128,-1,28
 504 224 504 224 485 205 c 128,-1,29
 466 186 466 186 440 186 c 0,20,21
EndSplineSet
Validated: 19457
EndChar

StartChar: accenttie
Encoding: 8256 8256 27
Width: 500
VWidth: 1000
Flags: W
HStem: 624 51<404.554 624.012>
VStem: 654 47<528.053 543 545 596.602>
LayerCount: 2
Fore
SplineSet
656 562 m 1,0,1
 655 585 655 585 620 604.5 c 128,-1,2
 585 624 585 624 520 624 c 0,3,4
 462 624 462 624 408.5 603.5 c 128,-1,5
 355 583 355 583 338 544 c 0,6,7
 333 535 333 535 331 533 c 0,8,9
 330 532 330 532 324 529 c 0,10,11
 321 528 321 528 317 528 c 0,12,13
 305 530 305 530 304 531 c 0,14,15
 299 534 299 534 296 542 c 0,16,17
 295 544 295 544 295 549 c 0,18,19
 295 588 295 588 359.5 631.5 c 128,-1,20
 424 675 424 675 523 675 c 0,21,22
 603 675 603 675 652 642.5 c 128,-1,23
 701 610 701 610 701 564 c 0,24,25
 701 557 701 557 700 552 c 0,26,27
 697 528 697 528 677 528 c 0,28,29
 671 528 671 528 665 531 c 0,30,31
 655 536 655 536 655 543 c 1,32,-1
 654 545 l 2,33,34
 654 547 654 547 654 549 c 2,35,-1
 654 550 l 1,36,-1
 656 562 l 1,0,1
EndSplineSet
Validated: 19457
EndChar

StartChar: int
Encoding: 8747 8747 28
Width: 469
VWidth: 2418
Flags: W
HStem: -220 23<56.2615 93.9686> 811 23<385.586 412.754>
VStem: 15 58<-191.747 -144.766> 396 58<758.766 805.778>
LayerCount: 2
Fore
SplineSet
74 -197 m 4,0,1
 81 -197 81 -197 88.5 -191 c 132,-1,2
 96 -185 96 -185 102 -173.5 c 132,-1,3
 108 -162 108 -162 114 -148.5 c 132,-1,4
 120 -135 120 -135 125 -119 c 132,-1,5
 130 -103 130 -103 134 -88 c 132,-1,6
 138 -73 138 -73 141.5 -57 c 132,-1,7
 145 -41 145 -41 147 -30.5 c 132,-1,8
 149 -20 149 -20 151 -10 c 4,9,-1
 153 0 l 4,10,11
 164 50 164 50 180.5 146.5 c 132,-1,12
 197 243 197 243 211 309 c 4,13,14
 247 478 247 478 281 618 c 4,15,16
 281 619 281 619 285 635 c 132,-1,17
 289 651 289 651 291.5 661 c 132,-1,18
 294 671 294 671 299.5 690.5 c 132,-1,19
 305 710 305 710 310 724 c 132,-1,20
 315 738 315 738 322 756 c 132,-1,21
 329 774 329 774 337 786.5 c 132,-1,22
 345 799 345 799 354 810.5 c 132,-1,23
 363 822 363 822 373.5 828 c 132,-1,24
 384 834 384 834 395 834 c 4,25,26
 419 834 419 834 436.5 818.5 c 132,-1,27
 454 803 454 803 454 779 c 4,28,29
 454 767 454 767 445.5 758.5 c 132,-1,30
 437 750 437 750 425 750 c 132,-1,31
 413 750 413 750 404.5 758 c 132,-1,32
 396 766 396 766 396 779 c 4,33,34
 396 799 396 799 413 806 c 5,35,36
 405 811 405 811 396 811 c 4,37,38
 395 811 395 811 394 810 c 4,39,40
 377 799 377 799 354 705 c 132,-1,41
 331 611 331 611 303.5 459 c 132,-1,42
 276 307 276 307 276 305 c 4,43,44
 250 180 250 180 205 -4 c 4,45,46
 205 -5 205 -5 200.5 -24 c 132,-1,47
 196 -43 196 -43 193.5 -51.5 c 132,-1,48
 191 -60 191 -60 185 -81.5 c 132,-1,49
 179 -103 179 -103 173.5 -115 c 132,-1,50
 168 -127 168 -127 160 -145.5 c 132,-1,51
 152 -164 152 -164 143.5 -175.5 c 132,-1,52
 135 -187 135 -187 124.5 -198 c 132,-1,53
 114 -209 114 -209 101 -214.5 c 132,-1,54
 88 -220 88 -220 74 -220 c 4,55,56
 50 -220 50 -220 32.5 -204.5 c 132,-1,57
 15 -189 15 -189 15 -165 c 4,58,59
 15 -153 15 -153 23 -144.5 c 132,-1,60
 31 -136 31 -136 44 -136 c 4,61,62
 56 -136 56 -136 64.5 -144.5 c 132,-1,63
 73 -153 73 -153 73 -165 c 4,64,65
 73 -184 73 -184 56 -192 c 5,66,67
 65 -197 65 -197 74 -197 c 4,0,1
EndSplineSet
Validated: 19457
EndChar

StartChar: oint
Encoding: 8750 8750 29
Width: 469
VWidth: 2418
Flags: W
HStem: -220 23<56.2615 93.9686> 811 23<384.867 412.754>
VStem: 15 58<-191.747 -144.766> 108 30<253.611 359.724> 349 30<254.276 360.389> 396 58<758.766 805.778>
LayerCount: 2
Fore
SplineSet
74 -197 m 0,0,1
 81 -197 81 -197 88.5 -191 c 128,-1,2
 96 -185 96 -185 102 -173.5 c 128,-1,3
 108 -162 108 -162 114 -148.5 c 128,-1,4
 120 -135 120 -135 125 -119 c 128,-1,5
 130 -103 130 -103 134 -88 c 128,-1,6
 138 -73 138 -73 141.5 -57 c 128,-1,7
 145 -41 145 -41 147 -30.5 c 128,-1,8
 149 -20 149 -20 151 -10 c 0,9,-1
 153 0 l 0,10,11
 158 21 158 21 187 183 c 1,12,13
 151 199 151 199 129.5 233 c 128,-1,14
 108 267 108 267 108 307 c 0,15,16
 108 362 108 362 146.5 401.5 c 128,-1,17
 185 441 185 441 240 443 c 1,18,19
 263 545 263 545 281 618 c 0,20,21
 282 620 282 620 285.5 635 c 128,-1,22
 289 650 289 650 291.5 661 c 128,-1,23
 294 672 294 672 299.5 690.5 c 128,-1,24
 305 709 305 709 310 723.5 c 128,-1,25
 315 738 315 738 322 756 c 128,-1,26
 329 774 329 774 337 786.5 c 128,-1,27
 345 799 345 799 354 810.5 c 128,-1,28
 363 822 363 822 373.5 828 c 128,-1,29
 384 834 384 834 395 834 c 0,30,31
 419 834 419 834 436.5 818.5 c 128,-1,32
 454 803 454 803 454 779 c 0,33,34
 454 767 454 767 445.5 758.5 c 128,-1,35
 437 750 437 750 425 750 c 128,-1,36
 413 750 413 750 404.5 758 c 128,-1,37
 396 766 396 766 396 779 c 0,38,39
 396 799 396 799 413 806 c 1,40,41
 405 811 405 811 395 811 c 0,42,43
 394 811 394 811 393 810 c 0,44,45
 388 806 388 806 382 794.5 c 128,-1,46
 376 783 376 783 370 763.5 c 128,-1,47
 364 744 364 744 358.5 723 c 128,-1,48
 353 702 353 702 346.5 672.5 c 128,-1,49
 340 643 340 643 335 619.5 c 128,-1,50
 330 596 330 596 324 564 c 128,-1,51
 318 532 318 532 314.5 513.5 c 128,-1,52
 311 495 311 495 306 466.5 c 128,-1,53
 301 438 301 438 300 431 c 1,54,55
 336 415 336 415 357.5 381 c 128,-1,56
 379 347 379 347 379 307 c 0,57,58
 379 252 379 252 340.5 212.5 c 128,-1,59
 302 173 302 173 247 171 c 1,60,61
 233 108 233 108 205 -4 c 0,62,63
 204 -7 204 -7 200 -24.5 c 128,-1,64
 196 -42 196 -42 193.5 -52 c 128,-1,65
 191 -62 191 -62 185 -82 c 128,-1,66
 179 -102 179 -102 173.5 -115 c 128,-1,67
 168 -128 168 -128 160.5 -146 c 128,-1,68
 153 -164 153 -164 144 -175.5 c 128,-1,69
 135 -187 135 -187 124.5 -198 c 128,-1,70
 114 -209 114 -209 101 -214.5 c 128,-1,71
 88 -220 88 -220 74 -220 c 0,72,73
 50 -220 50 -220 32.5 -204.5 c 128,-1,74
 15 -189 15 -189 15 -165 c 0,75,76
 15 -153 15 -153 23 -144.5 c 128,-1,77
 31 -136 31 -136 44 -136 c 0,78,79
 56 -136 56 -136 64.5 -144.5 c 128,-1,80
 73 -153 73 -153 73 -165 c 0,81,82
 73 -184 73 -184 56 -192 c 1,83,84
 65 -197 65 -197 74 -197 c 0,0,1
253 202 m 1,85,86
 293 205 293 205 321 236 c 128,-1,87
 349 267 349 267 349 307 c 0,88,89
 349 335 349 335 334 360.5 c 128,-1,90
 319 386 319 386 294 400 c 1,91,92
 273 289 273 289 253 202 c 1,85,86
193 214 m 1,93,94
 214 324 214 324 234 412 c 1,95,96
 194 409 194 409 166 378 c 128,-1,97
 138 347 138 347 138 307 c 0,98,99
 138 279 138 279 153 253.5 c 128,-1,100
 168 228 168 228 193 214 c 1,93,94
EndSplineSet
Validated: 19457
EndChar

StartChar: iint
Encoding: 8748 8748 30
Width: 639
VWidth: 2418
Flags: W
HStem: -220 23<56.2615 93.9686 226.262 263.969> 811 23<385.586 412.754 555.586 582.754>
VStem: 15 58<-191.747 -144.766> 185 58<-191.747 -144.766> 396 58<758.766 805.778> 566 58<758.766 805.778>
LayerCount: 2
Fore
SplineSet
244 -197 m 0,0,1
 251 -197 251 -197 258.5 -191 c 128,-1,2
 266 -185 266 -185 272 -173.5 c 128,-1,3
 278 -162 278 -162 284 -148.5 c 128,-1,4
 290 -135 290 -135 295 -119 c 128,-1,5
 300 -103 300 -103 304 -88 c 128,-1,6
 308 -73 308 -73 311.5 -57 c 128,-1,7
 315 -41 315 -41 317 -30.5 c 128,-1,8
 319 -20 319 -20 321 -10 c 0,9,-1
 323 0 l 0,10,11
 334 50 334 50 350.5 146.5 c 128,-1,12
 367 243 367 243 381 309 c 0,13,14
 417 478 417 478 451 618 c 0,15,16
 451 619 451 619 455 635 c 128,-1,17
 459 651 459 651 461.5 661 c 128,-1,18
 464 671 464 671 469.5 690.5 c 128,-1,19
 475 710 475 710 480 724 c 128,-1,20
 485 738 485 738 492 756 c 128,-1,21
 499 774 499 774 507 786.5 c 128,-1,22
 515 799 515 799 524 810.5 c 128,-1,23
 533 822 533 822 543.5 828 c 128,-1,24
 554 834 554 834 565 834 c 0,25,26
 589 834 589 834 606.5 818.5 c 128,-1,27
 624 803 624 803 624 779 c 0,28,29
 624 767 624 767 615.5 758.5 c 128,-1,30
 607 750 607 750 595 750 c 128,-1,31
 583 750 583 750 574.5 758 c 128,-1,32
 566 766 566 766 566 779 c 0,33,34
 566 799 566 799 583 806 c 1,35,36
 575 811 575 811 566 811 c 0,37,38
 565 811 565 811 564 810 c 0,39,40
 547 799 547 799 524 705 c 128,-1,41
 501 611 501 611 473.5 459 c 128,-1,42
 446 307 446 307 446 305 c 0,43,44
 420 180 420 180 375 -4 c 0,45,46
 375 -5 375 -5 370.5 -24 c 128,-1,47
 366 -43 366 -43 363.5 -51.5 c 128,-1,48
 361 -60 361 -60 355 -81.5 c 128,-1,49
 349 -103 349 -103 343.5 -115 c 128,-1,50
 338 -127 338 -127 330 -145.5 c 128,-1,51
 322 -164 322 -164 313.5 -175.5 c 128,-1,52
 305 -187 305 -187 294.5 -198 c 128,-1,53
 284 -209 284 -209 271 -214.5 c 128,-1,54
 258 -220 258 -220 244 -220 c 0,55,56
 220 -220 220 -220 202.5 -204.5 c 128,-1,57
 185 -189 185 -189 185 -165 c 0,58,59
 185 -153 185 -153 193 -144.5 c 128,-1,60
 201 -136 201 -136 214 -136 c 0,61,62
 226 -136 226 -136 234.5 -144.5 c 128,-1,63
 243 -153 243 -153 243 -165 c 0,64,65
 243 -184 243 -184 226 -192 c 1,66,67
 235 -197 235 -197 244 -197 c 0,0,1
74 -197 m 0,68,69
 81 -197 81 -197 88.5 -191 c 128,-1,70
 96 -185 96 -185 102 -173.5 c 128,-1,71
 108 -162 108 -162 114 -148.5 c 128,-1,72
 120 -135 120 -135 125 -119 c 128,-1,73
 130 -103 130 -103 134 -88 c 128,-1,74
 138 -73 138 -73 141.5 -57 c 128,-1,75
 145 -41 145 -41 147 -30.5 c 128,-1,76
 149 -20 149 -20 151 -10 c 0,77,-1
 153 0 l 0,78,79
 164 50 164 50 180.5 146.5 c 128,-1,80
 197 243 197 243 211 309 c 0,81,82
 247 478 247 478 281 618 c 0,83,84
 281 619 281 619 285 635 c 128,-1,85
 289 651 289 651 291.5 661 c 128,-1,86
 294 671 294 671 299.5 690.5 c 128,-1,87
 305 710 305 710 310 724 c 128,-1,88
 315 738 315 738 322 756 c 128,-1,89
 329 774 329 774 337 786.5 c 128,-1,90
 345 799 345 799 354 810.5 c 128,-1,91
 363 822 363 822 373.5 828 c 128,-1,92
 384 834 384 834 395 834 c 0,93,94
 419 834 419 834 436.5 818.5 c 128,-1,95
 454 803 454 803 454 779 c 0,96,97
 454 767 454 767 445.5 758.5 c 128,-1,98
 437 750 437 750 425 750 c 128,-1,99
 413 750 413 750 404.5 758 c 128,-1,100
 396 766 396 766 396 779 c 0,101,102
 396 799 396 799 413 806 c 1,103,104
 405 811 405 811 396 811 c 0,105,106
 395 811 395 811 394 810 c 0,107,108
 377 799 377 799 354 705 c 128,-1,109
 331 611 331 611 303.5 459 c 128,-1,110
 276 307 276 307 276 305 c 0,111,112
 250 180 250 180 205 -4 c 0,113,114
 205 -5 205 -5 200.5 -24 c 128,-1,115
 196 -43 196 -43 193.5 -51.5 c 128,-1,116
 191 -60 191 -60 185 -81.5 c 128,-1,117
 179 -103 179 -103 173.5 -115 c 128,-1,118
 168 -127 168 -127 160 -145.5 c 128,-1,119
 152 -164 152 -164 143.5 -175.5 c 128,-1,120
 135 -187 135 -187 124.5 -198 c 128,-1,121
 114 -209 114 -209 101 -214.5 c 128,-1,122
 88 -220 88 -220 74 -220 c 0,123,124
 50 -220 50 -220 32.5 -204.5 c 128,-1,125
 15 -189 15 -189 15 -165 c 0,126,127
 15 -153 15 -153 23 -144.5 c 128,-1,128
 31 -136 31 -136 44 -136 c 0,129,130
 56 -136 56 -136 64.5 -144.5 c 128,-1,131
 73 -153 73 -153 73 -165 c 0,132,133
 73 -184 73 -184 56 -192 c 1,134,135
 65 -197 65 -197 74 -197 c 0,68,69
EndSplineSet
Validated: 19457
EndChar

StartChar: iiint
Encoding: 8749 8749 31
Width: 809
VWidth: 2418
Flags: W
HStem: -220 23<56.2615 93.9686 226.262 263.969 396.262 433.969> 811 23<385.586 412.754 555.586 582.754 725.586 752.754>
VStem: 15 58<-191.747 -144.766> 185 58<-191.747 -144.766> 355 58<-191.747 -144.766> 396 58<758.766 805.778> 566 58<758.766 805.778> 736 58<758.766 805.778>
LayerCount: 2
Fore
SplineSet
414 -197 m 0,0,1
 421 -197 421 -197 428.5 -191 c 128,-1,2
 436 -185 436 -185 442 -173.5 c 128,-1,3
 448 -162 448 -162 454 -148.5 c 128,-1,4
 460 -135 460 -135 465 -119 c 128,-1,5
 470 -103 470 -103 474 -88 c 128,-1,6
 478 -73 478 -73 481.5 -57 c 128,-1,7
 485 -41 485 -41 487 -30.5 c 128,-1,8
 489 -20 489 -20 491 -10 c 0,9,-1
 493 0 l 0,10,11
 504 50 504 50 520.5 146.5 c 128,-1,12
 537 243 537 243 551 309 c 0,13,14
 587 478 587 478 621 618 c 0,15,16
 621 619 621 619 625 635 c 128,-1,17
 629 651 629 651 631.5 661 c 128,-1,18
 634 671 634 671 639.5 690.5 c 128,-1,19
 645 710 645 710 650 724 c 128,-1,20
 655 738 655 738 662 756 c 128,-1,21
 669 774 669 774 677 786.5 c 128,-1,22
 685 799 685 799 694 810.5 c 128,-1,23
 703 822 703 822 713.5 828 c 128,-1,24
 724 834 724 834 735 834 c 0,25,26
 759 834 759 834 776.5 818.5 c 128,-1,27
 794 803 794 803 794 779 c 0,28,29
 794 767 794 767 785.5 758.5 c 128,-1,30
 777 750 777 750 765 750 c 128,-1,31
 753 750 753 750 744.5 758 c 128,-1,32
 736 766 736 766 736 779 c 0,33,34
 736 799 736 799 753 806 c 1,35,36
 745 811 745 811 736 811 c 0,37,38
 735 811 735 811 734 810 c 0,39,40
 717 799 717 799 694 705 c 128,-1,41
 671 611 671 611 643.5 459 c 128,-1,42
 616 307 616 307 616 305 c 0,43,44
 590 180 590 180 545 -4 c 0,45,46
 545 -5 545 -5 540.5 -24 c 128,-1,47
 536 -43 536 -43 533.5 -51.5 c 128,-1,48
 531 -60 531 -60 525 -81.5 c 128,-1,49
 519 -103 519 -103 513.5 -115 c 128,-1,50
 508 -127 508 -127 500 -145.5 c 128,-1,51
 492 -164 492 -164 483.5 -175.5 c 128,-1,52
 475 -187 475 -187 464.5 -198 c 128,-1,53
 454 -209 454 -209 441 -214.5 c 128,-1,54
 428 -220 428 -220 414 -220 c 0,55,56
 390 -220 390 -220 372.5 -204.5 c 128,-1,57
 355 -189 355 -189 355 -165 c 0,58,59
 355 -153 355 -153 363 -144.5 c 128,-1,60
 371 -136 371 -136 384 -136 c 0,61,62
 396 -136 396 -136 404.5 -144.5 c 128,-1,63
 413 -153 413 -153 413 -165 c 0,64,65
 413 -184 413 -184 396 -192 c 1,66,67
 405 -197 405 -197 414 -197 c 0,0,1
244 -197 m 0,68,69
 251 -197 251 -197 258.5 -191 c 128,-1,70
 266 -185 266 -185 272 -173.5 c 128,-1,71
 278 -162 278 -162 284 -148.5 c 128,-1,72
 290 -135 290 -135 295 -119 c 128,-1,73
 300 -103 300 -103 304 -88 c 128,-1,74
 308 -73 308 -73 311.5 -57 c 128,-1,75
 315 -41 315 -41 317 -30.5 c 128,-1,76
 319 -20 319 -20 321 -10 c 0,77,-1
 323 0 l 0,78,79
 334 50 334 50 350.5 146.5 c 128,-1,80
 367 243 367 243 381 309 c 0,81,82
 417 478 417 478 451 618 c 0,83,84
 451 619 451 619 455 635 c 128,-1,85
 459 651 459 651 461.5 661 c 128,-1,86
 464 671 464 671 469.5 690.5 c 128,-1,87
 475 710 475 710 480 724 c 128,-1,88
 485 738 485 738 492 756 c 128,-1,89
 499 774 499 774 507 786.5 c 128,-1,90
 515 799 515 799 524 810.5 c 128,-1,91
 533 822 533 822 543.5 828 c 128,-1,92
 554 834 554 834 565 834 c 0,93,94
 589 834 589 834 606.5 818.5 c 128,-1,95
 624 803 624 803 624 779 c 0,96,97
 624 767 624 767 615.5 758.5 c 128,-1,98
 607 750 607 750 595 750 c 128,-1,99
 583 750 583 750 574.5 758 c 128,-1,100
 566 766 566 766 566 779 c 0,101,102
 566 799 566 799 583 806 c 1,103,104
 575 811 575 811 566 811 c 0,105,106
 565 811 565 811 564 810 c 0,107,108
 547 799 547 799 524 705 c 128,-1,109
 501 611 501 611 473.5 459 c 128,-1,110
 446 307 446 307 446 305 c 0,111,112
 420 180 420 180 375 -4 c 0,113,114
 375 -5 375 -5 370.5 -24 c 128,-1,115
 366 -43 366 -43 363.5 -51.5 c 128,-1,116
 361 -60 361 -60 355 -81.5 c 128,-1,117
 349 -103 349 -103 343.5 -115 c 128,-1,118
 338 -127 338 -127 330 -145.5 c 128,-1,119
 322 -164 322 -164 313.5 -175.5 c 128,-1,120
 305 -187 305 -187 294.5 -198 c 128,-1,121
 284 -209 284 -209 271 -214.5 c 128,-1,122
 258 -220 258 -220 244 -220 c 0,123,124
 220 -220 220 -220 202.5 -204.5 c 128,-1,125
 185 -189 185 -189 185 -165 c 0,126,127
 185 -153 185 -153 193 -144.5 c 128,-1,128
 201 -136 201 -136 214 -136 c 0,129,130
 226 -136 226 -136 234.5 -144.5 c 128,-1,131
 243 -153 243 -153 243 -165 c 0,132,133
 243 -184 243 -184 226 -192 c 1,134,135
 235 -197 235 -197 244 -197 c 0,68,69
74 -197 m 0,136,137
 81 -197 81 -197 88.5 -191 c 128,-1,138
 96 -185 96 -185 102 -173.5 c 128,-1,139
 108 -162 108 -162 114 -148.5 c 128,-1,140
 120 -135 120 -135 125 -119 c 128,-1,141
 130 -103 130 -103 134 -88 c 128,-1,142
 138 -73 138 -73 141.5 -57 c 128,-1,143
 145 -41 145 -41 147 -30.5 c 128,-1,144
 149 -20 149 -20 151 -10 c 0,145,-1
 153 0 l 0,146,147
 164 50 164 50 180.5 146.5 c 128,-1,148
 197 243 197 243 211 309 c 0,149,150
 247 478 247 478 281 618 c 0,151,152
 281 619 281 619 285 635 c 128,-1,153
 289 651 289 651 291.5 661 c 128,-1,154
 294 671 294 671 299.5 690.5 c 128,-1,155
 305 710 305 710 310 724 c 128,-1,156
 315 738 315 738 322 756 c 128,-1,157
 329 774 329 774 337 786.5 c 128,-1,158
 345 799 345 799 354 810.5 c 128,-1,159
 363 822 363 822 373.5 828 c 128,-1,160
 384 834 384 834 395 834 c 0,161,162
 419 834 419 834 436.5 818.5 c 128,-1,163
 454 803 454 803 454 779 c 0,164,165
 454 767 454 767 445.5 758.5 c 128,-1,166
 437 750 437 750 425 750 c 128,-1,167
 413 750 413 750 404.5 758 c 128,-1,168
 396 766 396 766 396 779 c 0,169,170
 396 799 396 799 413 806 c 1,171,172
 405 811 405 811 396 811 c 0,173,174
 395 811 395 811 394 810 c 0,175,176
 377 799 377 799 354 705 c 128,-1,177
 331 611 331 611 303.5 459 c 128,-1,178
 276 307 276 307 276 305 c 0,179,180
 250 180 250 180 205 -4 c 0,181,182
 205 -5 205 -5 200.5 -24 c 128,-1,183
 196 -43 196 -43 193.5 -51.5 c 128,-1,184
 191 -60 191 -60 185 -81.5 c 128,-1,185
 179 -103 179 -103 173.5 -115 c 128,-1,186
 168 -127 168 -127 160 -145.5 c 128,-1,187
 152 -164 152 -164 143.5 -175.5 c 128,-1,188
 135 -187 135 -187 124.5 -198 c 128,-1,189
 114 -209 114 -209 101 -214.5 c 128,-1,190
 88 -220 88 -220 74 -220 c 0,191,192
 50 -220 50 -220 32.5 -204.5 c 128,-1,193
 15 -189 15 -189 15 -165 c 0,194,195
 15 -153 15 -153 23 -144.5 c 128,-1,196
 31 -136 31 -136 44 -136 c 0,197,198
 56 -136 56 -136 64.5 -144.5 c 128,-1,199
 73 -153 73 -153 73 -165 c 0,200,201
 73 -184 73 -184 56 -192 c 1,202,203
 65 -197 65 -197 74 -197 c 0,136,137
EndSplineSet
Validated: 19457
EndChar

StartChar: iiiint
Encoding: 10764 10764 32
Width: 979
VWidth: 2418
Flags: W
HStem: -220 23<56.2615 93.9686 226.262 263.969 396.262 433.969 566.262 603.969> 811 23<385.586 412.754 555.586 582.754 725.586 752.754 895.586 922.754>
VStem: 15 58<-191.747 -144.766> 185 58<-191.747 -144.766> 355 58<-191.747 -144.766> 396 58<758.766 805.778> 525 58<-191.747 -144.766> 566 58<758.766 805.778> 736 58<758.766 805.778> 906 58<758.766 805.778>
LayerCount: 2
Fore
SplineSet
584 -197 m 0,0,1
 591 -197 591 -197 598.5 -191 c 128,-1,2
 606 -185 606 -185 612 -173.5 c 128,-1,3
 618 -162 618 -162 624 -148.5 c 128,-1,4
 630 -135 630 -135 635 -119 c 128,-1,5
 640 -103 640 -103 644 -88 c 128,-1,6
 648 -73 648 -73 651.5 -57 c 128,-1,7
 655 -41 655 -41 657 -30.5 c 128,-1,8
 659 -20 659 -20 661 -10 c 0,9,-1
 663 0 l 0,10,11
 674 50 674 50 690.5 146.5 c 128,-1,12
 707 243 707 243 721 309 c 0,13,14
 757 478 757 478 791 618 c 0,15,16
 791 619 791 619 795 635 c 128,-1,17
 799 651 799 651 801.5 661 c 128,-1,18
 804 671 804 671 809.5 690.5 c 128,-1,19
 815 710 815 710 820 724 c 128,-1,20
 825 738 825 738 832 756 c 128,-1,21
 839 774 839 774 847 786.5 c 128,-1,22
 855 799 855 799 864 810.5 c 128,-1,23
 873 822 873 822 883.5 828 c 128,-1,24
 894 834 894 834 905 834 c 0,25,26
 929 834 929 834 946.5 818.5 c 128,-1,27
 964 803 964 803 964 779 c 0,28,29
 964 767 964 767 955.5 758.5 c 128,-1,30
 947 750 947 750 935 750 c 128,-1,31
 923 750 923 750 914.5 758 c 128,-1,32
 906 766 906 766 906 779 c 0,33,34
 906 799 906 799 923 806 c 1,35,36
 915 811 915 811 906 811 c 0,37,38
 905 811 905 811 904 810 c 0,39,40
 887 799 887 799 864 705 c 128,-1,41
 841 611 841 611 813.5 459 c 128,-1,42
 786 307 786 307 786 305 c 0,43,44
 760 180 760 180 715 -4 c 0,45,46
 715 -5 715 -5 710.5 -24 c 128,-1,47
 706 -43 706 -43 703.5 -51.5 c 128,-1,48
 701 -60 701 -60 695 -81.5 c 128,-1,49
 689 -103 689 -103 683.5 -115 c 128,-1,50
 678 -127 678 -127 670 -145.5 c 128,-1,51
 662 -164 662 -164 653.5 -175.5 c 128,-1,52
 645 -187 645 -187 634.5 -198 c 128,-1,53
 624 -209 624 -209 611 -214.5 c 128,-1,54
 598 -220 598 -220 584 -220 c 0,55,56
 560 -220 560 -220 542.5 -204.5 c 128,-1,57
 525 -189 525 -189 525 -165 c 0,58,59
 525 -153 525 -153 533 -144.5 c 128,-1,60
 541 -136 541 -136 554 -136 c 0,61,62
 566 -136 566 -136 574.5 -144.5 c 128,-1,63
 583 -153 583 -153 583 -165 c 0,64,65
 583 -184 583 -184 566 -192 c 1,66,67
 575 -197 575 -197 584 -197 c 0,0,1
414 -197 m 0,68,69
 421 -197 421 -197 428.5 -191 c 128,-1,70
 436 -185 436 -185 442 -173.5 c 128,-1,71
 448 -162 448 -162 454 -148.5 c 128,-1,72
 460 -135 460 -135 465 -119 c 128,-1,73
 470 -103 470 -103 474 -88 c 128,-1,74
 478 -73 478 -73 481.5 -57 c 128,-1,75
 485 -41 485 -41 487 -30.5 c 128,-1,76
 489 -20 489 -20 491 -10 c 0,77,-1
 493 0 l 0,78,79
 504 50 504 50 520.5 146.5 c 128,-1,80
 537 243 537 243 551 309 c 0,81,82
 587 478 587 478 621 618 c 0,83,84
 621 619 621 619 625 635 c 128,-1,85
 629 651 629 651 631.5 661 c 128,-1,86
 634 671 634 671 639.5 690.5 c 128,-1,87
 645 710 645 710 650 724 c 128,-1,88
 655 738 655 738 662 756 c 128,-1,89
 669 774 669 774 677 786.5 c 128,-1,90
 685 799 685 799 694 810.5 c 128,-1,91
 703 822 703 822 713.5 828 c 128,-1,92
 724 834 724 834 735 834 c 0,93,94
 759 834 759 834 776.5 818.5 c 128,-1,95
 794 803 794 803 794 779 c 0,96,97
 794 767 794 767 785.5 758.5 c 128,-1,98
 777 750 777 750 765 750 c 128,-1,99
 753 750 753 750 744.5 758 c 128,-1,100
 736 766 736 766 736 779 c 0,101,102
 736 799 736 799 753 806 c 1,103,104
 745 811 745 811 736 811 c 0,105,106
 735 811 735 811 734 810 c 0,107,108
 717 799 717 799 694 705 c 128,-1,109
 671 611 671 611 643.5 459 c 128,-1,110
 616 307 616 307 616 305 c 0,111,112
 590 180 590 180 545 -4 c 0,113,114
 545 -5 545 -5 540.5 -24 c 128,-1,115
 536 -43 536 -43 533.5 -51.5 c 128,-1,116
 531 -60 531 -60 525 -81.5 c 128,-1,117
 519 -103 519 -103 513.5 -115 c 128,-1,118
 508 -127 508 -127 500 -145.5 c 128,-1,119
 492 -164 492 -164 483.5 -175.5 c 128,-1,120
 475 -187 475 -187 464.5 -198 c 128,-1,121
 454 -209 454 -209 441 -214.5 c 128,-1,122
 428 -220 428 -220 414 -220 c 0,123,124
 390 -220 390 -220 372.5 -204.5 c 128,-1,125
 355 -189 355 -189 355 -165 c 0,126,127
 355 -153 355 -153 363 -144.5 c 128,-1,128
 371 -136 371 -136 384 -136 c 0,129,130
 396 -136 396 -136 404.5 -144.5 c 128,-1,131
 413 -153 413 -153 413 -165 c 0,132,133
 413 -184 413 -184 396 -192 c 1,134,135
 405 -197 405 -197 414 -197 c 0,68,69
244 -197 m 0,136,137
 251 -197 251 -197 258.5 -191 c 128,-1,138
 266 -185 266 -185 272 -173.5 c 128,-1,139
 278 -162 278 -162 284 -148.5 c 128,-1,140
 290 -135 290 -135 295 -119 c 128,-1,141
 300 -103 300 -103 304 -88 c 128,-1,142
 308 -73 308 -73 311.5 -57 c 128,-1,143
 315 -41 315 -41 317 -30.5 c 128,-1,144
 319 -20 319 -20 321 -10 c 0,145,-1
 323 0 l 0,146,147
 334 50 334 50 350.5 146.5 c 128,-1,148
 367 243 367 243 381 309 c 0,149,150
 417 478 417 478 451 618 c 0,151,152
 451 619 451 619 455 635 c 128,-1,153
 459 651 459 651 461.5 661 c 128,-1,154
 464 671 464 671 469.5 690.5 c 128,-1,155
 475 710 475 710 480 724 c 128,-1,156
 485 738 485 738 492 756 c 128,-1,157
 499 774 499 774 507 786.5 c 128,-1,158
 515 799 515 799 524 810.5 c 128,-1,159
 533 822 533 822 543.5 828 c 128,-1,160
 554 834 554 834 565 834 c 0,161,162
 589 834 589 834 606.5 818.5 c 128,-1,163
 624 803 624 803 624 779 c 0,164,165
 624 767 624 767 615.5 758.5 c 128,-1,166
 607 750 607 750 595 750 c 128,-1,167
 583 750 583 750 574.5 758 c 128,-1,168
 566 766 566 766 566 779 c 0,169,170
 566 799 566 799 583 806 c 1,171,172
 575 811 575 811 566 811 c 0,173,174
 565 811 565 811 564 810 c 0,175,176
 547 799 547 799 524 705 c 128,-1,177
 501 611 501 611 473.5 459 c 128,-1,178
 446 307 446 307 446 305 c 0,179,180
 420 180 420 180 375 -4 c 0,181,182
 375 -5 375 -5 370.5 -24 c 128,-1,183
 366 -43 366 -43 363.5 -51.5 c 128,-1,184
 361 -60 361 -60 355 -81.5 c 128,-1,185
 349 -103 349 -103 343.5 -115 c 128,-1,186
 338 -127 338 -127 330 -145.5 c 128,-1,187
 322 -164 322 -164 313.5 -175.5 c 128,-1,188
 305 -187 305 -187 294.5 -198 c 128,-1,189
 284 -209 284 -209 271 -214.5 c 128,-1,190
 258 -220 258 -220 244 -220 c 0,191,192
 220 -220 220 -220 202.5 -204.5 c 128,-1,193
 185 -189 185 -189 185 -165 c 0,194,195
 185 -153 185 -153 193 -144.5 c 128,-1,196
 201 -136 201 -136 214 -136 c 0,197,198
 226 -136 226 -136 234.5 -144.5 c 128,-1,199
 243 -153 243 -153 243 -165 c 0,200,201
 243 -184 243 -184 226 -192 c 1,202,203
 235 -197 235 -197 244 -197 c 0,136,137
74 -197 m 0,204,205
 81 -197 81 -197 88.5 -191 c 128,-1,206
 96 -185 96 -185 102 -173.5 c 128,-1,207
 108 -162 108 -162 114 -148.5 c 128,-1,208
 120 -135 120 -135 125 -119 c 128,-1,209
 130 -103 130 -103 134 -88 c 128,-1,210
 138 -73 138 -73 141.5 -57 c 128,-1,211
 145 -41 145 -41 147 -30.5 c 128,-1,212
 149 -20 149 -20 151 -10 c 0,213,-1
 153 0 l 0,214,215
 164 50 164 50 180.5 146.5 c 128,-1,216
 197 243 197 243 211 309 c 0,217,218
 247 478 247 478 281 618 c 0,219,220
 281 619 281 619 285 635 c 128,-1,221
 289 651 289 651 291.5 661 c 128,-1,222
 294 671 294 671 299.5 690.5 c 128,-1,223
 305 710 305 710 310 724 c 128,-1,224
 315 738 315 738 322 756 c 128,-1,225
 329 774 329 774 337 786.5 c 128,-1,226
 345 799 345 799 354 810.5 c 128,-1,227
 363 822 363 822 373.5 828 c 128,-1,228
 384 834 384 834 395 834 c 0,229,230
 419 834 419 834 436.5 818.5 c 128,-1,231
 454 803 454 803 454 779 c 0,232,233
 454 767 454 767 445.5 758.5 c 128,-1,234
 437 750 437 750 425 750 c 128,-1,235
 413 750 413 750 404.5 758 c 128,-1,236
 396 766 396 766 396 779 c 0,237,238
 396 799 396 799 413 806 c 1,239,240
 405 811 405 811 396 811 c 0,241,242
 395 811 395 811 394 810 c 0,243,244
 377 799 377 799 354 705 c 128,-1,245
 331 611 331 611 303.5 459 c 128,-1,246
 276 307 276 307 276 305 c 0,247,248
 250 180 250 180 205 -4 c 0,249,250
 205 -5 205 -5 200.5 -24 c 128,-1,251
 196 -43 196 -43 193.5 -51.5 c 128,-1,252
 191 -60 191 -60 185 -81.5 c 128,-1,253
 179 -103 179 -103 173.5 -115 c 128,-1,254
 168 -127 168 -127 160 -145.5 c 128,-1,255
 152 -164 152 -164 143.5 -175.5 c 128,-1,256
 135 -187 135 -187 124.5 -198 c 128,-1,257
 114 -209 114 -209 101 -214.5 c 128,-1,258
 88 -220 88 -220 74 -220 c 0,259,260
 50 -220 50 -220 32.5 -204.5 c 128,-1,261
 15 -189 15 -189 15 -165 c 0,262,263
 15 -153 15 -153 23 -144.5 c 128,-1,264
 31 -136 31 -136 44 -136 c 0,265,266
 56 -136 56 -136 64.5 -144.5 c 128,-1,267
 73 -153 73 -153 73 -165 c 0,268,269
 73 -184 73 -184 56 -192 c 1,270,271
 65 -197 65 -197 74 -197 c 0,204,205
EndSplineSet
Validated: 19457
EndChar

StartChar: A
Encoding: 65 65 33
Width: 722
VWidth: 1000
Flags: W
HStem: -10 55<7.35889 76.7876 128 147 198.578 241.623 365.514 444.372 497 600 652.272 712.688> 187 55<221 390> 694 20G<342 350.5>
VStem: 7 187<11.5 115>
LayerCount: 2
Fore
SplineSet
631 105 m 2,0,1
 656 50 656 50 682 45 c 0,2,3
 692 43 692 43 693 43 c 0,4,5
 713 37 713 37 713 18 c 128,-1,6
 713 -1 713 -1 700.5 -5.5 c 128,-1,7
 688 -10 688 -10 669 -10 c 2,8,-1
 408 -10 l 2,9,10
 396 -10 396 -10 388.5 -9.5 c 128,-1,11
 381 -9 381 -9 373 -1.5 c 128,-1,12
 365 6 365 6 365 18 c 0,13,14
 365 42 365 42 391 45 c 0,15,16
 425 49 425 49 445 66 c 1,17,18
 441 101 441 101 411 187 c 1,19,-1
 206 187 l 1,20,21
 194 130 194 130 194 100 c 0,22,23
 194 48 194 48 224 45 c 0,24,25
 230 44 230 44 236 42 c 0,26,27
 254 35 254 35 254 18 c 0,28,29
 254 -1 254 -1 242 -5.5 c 128,-1,30
 230 -10 230 -10 211 -10 c 2,31,-1
 51 -10 l 2,32,33
 37 -10 37 -10 32 -9.5 c 128,-1,34
 27 -9 27 -9 23 -7 c 0,35,36
 20 -5 20 -5 13.5 0 c 128,-1,37
 7 5 7 5 7 18 c 0,38,39
 7 45 7 45 37 45 c 1,40,41
 74 50 74 50 89 89 c 2,42,-1
 317 687 l 1,43,44
 323 700 323 700 329 706 c 0,45,46
 337 714 337 714 347 714 c 0,47,48
 354 714 354 714 359 712 c 128,-1,49
 364 710 364 710 367 705.5 c 128,-1,50
 370 701 370 701 376 686 c 2,51,-1
 631 105 l 2,0,1
221 242 m 1,52,-1
 390 242 l 1,53,54
 352 344 352 344 297 463 c 1,55,56
 245 331 245 331 221 242 c 1,52,-1
141 72 m 1,57,58
 135 56 135 56 128 45 c 1,59,-1
 147 45 l 1,60,61
 143 57 143 57 141 72 c 1,57,58
322 543 m 1,62,-1
 369 435 l 1,63,64
 500 131 500 131 500 67 c 0,65,66
 500 54 500 54 497 45 c 1,67,-1
 600 45 l 1,68,69
 589 62 589 62 581 83 c 2,70,-1
 348 613 l 1,71,-1
 322 543 l 1,62,-1
EndSplineSet
Validated: 19457
EndChar

StartChar: B
Encoding: 66 66 34
Width: 666
VWidth: 1000
Flags: W
HStem: -10 55<-0.427124 86.6804 145 223 274.625 395.182> 327 55<272 366.164> 640 55<11.8922 86.6814 145 223 281.686 371.748>
VStem: 95 55<53.2866 631.713> 217 55<48.0791 327 382 629.715> 408 55<421.475 601.701> 439 55<91.2615 288.35> 538 55<454.992 590.059> 576 55<119.52 264.192>
LayerCount: 2
Fore
SplineSet
150 594 m 2,0,-1
 150 91 l 2,1,2
 150 63 150 63 145 45 c 1,3,-1
 223 45 l 1,4,5
 217 61 217 61 217 86 c 2,6,-1
 217 599 l 2,7,8
 217 624 217 624 223 640 c 1,9,-1
 145 640 l 1,10,11
 150 622 150 622 150 594 c 2,0,-1
439 402 m 1,12,13
 472 414 472 414 505 443.5 c 128,-1,14
 538 473 538 473 538 514 c 0,15,16
 538 576 538 576 506.5 599.5 c 128,-1,17
 475 623 475 623 432 632 c 1,18,19
 463 585 463 585 463 510 c 0,20,21
 463 443 463 443 439 402 c 1,12,13
272 596 m 2,22,-1
 272 382 l 1,23,24
 342 385 342 385 375 410.5 c 128,-1,25
 408 436 408 436 408 510 c 0,26,27
 408 578 408 578 380.5 609 c 128,-1,28
 353 640 353 640 319 640 c 0,29,30
 303 640 303 640 281 630 c 1,31,32
 272 621 272 621 272 596 c 2,22,-1
589 307 m 128,-1,34
 631 263 631 263 631 187 c 0,35,36
 631 134 631 134 603.5 94 c 128,-1,37
 576 54 576 54 531 32 c 128,-1,38
 486 10 486 10 438 0 c 128,-1,39
 390 -10 390 -10 340 -10 c 2,40,-1
 43 -10 l 2,41,42
 29 -10 29 -10 24 -9.5 c 128,-1,43
 19 -9 19 -9 15 -7 c 0,44,45
 12 -5 12 -5 5.5 0.5 c 128,-1,46
 -1 6 -1 6 -1 18 c 0,47,48
 0 37 0 37 20 43 c 0,49,50
 27 45 27 45 38 45 c 0,51,52
 77 45 77 45 87 51 c 0,53,-1
 88 52 l 2,54,55
 89 53 l 0,56,57
 95 62 95 62 95 93 c 2,58,-1
 95 592 l 2,59,60
 95 623 95 623 89 632 c 0,61,62
 88 633 l 0,63,64
 87 634 l 0,65,66
 77 640 77 640 42 640 c 0,67,68
 28 640 28 640 19 643 c 0,69,70
 -1 649 -1 649 -1 667 c 0,71,72
 -1 686 -1 686 11.5 690.5 c 128,-1,73
 24 695 24 695 43 695 c 2,74,-1
 346 695 l 2,75,76
 593 695 593 695 593 514 c 0,77,78
 593 463 593 463 563 427.5 c 128,-1,79
 533 392 533 392 497 370 c 1,80,33
 547 351 547 351 589 307 c 128,-1,34
272 89 m 2,81,82
 272 79 272 79 273 73.5 c 128,-1,83
 274 68 274 68 277.5 60.5 c 128,-1,84
 281 53 281 53 291.5 49 c 128,-1,85
 302 45 302 45 321 45 c 0,86,87
 439 45 439 45 439 187 c 0,88,89
 439 277 439 277 401 306 c 0,90,91
 382 320 382 320 357 323.5 c 128,-1,92
 332 327 332 327 272 327 c 1,93,-1
 272 89 l 2,81,82
465 64 m 1,94,95
 576 99 576 99 576 187 c 0,96,97
 576 246 576 246 541 278.5 c 128,-1,98
 506 311 506 311 458 324 c 1,99,100
 494 275 494 275 494 187 c 0,101,102
 494 113 494 113 465 64 c 1,94,95
EndSplineSet
Validated: 19457
EndChar

StartChar: C
Encoding: 67 67 35
Width: 722
VWidth: 1000
Flags: W
HStem: -29 68<320.971 520.853> 659 55<324.887 473.766>
VStem: 27 55<213.749 479.664> 168 55<174.091 512.839> 612 55<596 615>
LayerCount: 2
Fore
SplineSet
667 504 m 2,0,1
 667 489 667 489 664 481 c 0,2,3
 658 461 658 461 640 461 c 0,4,5
 625 462 625 462 617 475 c 0,6,7
 614 480 614 480 611 487 c 0,8,9
 588 559 588 559 519 609 c 128,-1,10
 450 659 450 659 392 659 c 0,11,12
 318 659 318 659 270.5 572.5 c 128,-1,13
 223 486 223 486 223 341 c 0,14,15
 223 279 223 279 232 228 c 128,-1,16
 241 177 241 177 260.5 132.5 c 128,-1,17
 280 88 280 88 317 63.5 c 128,-1,18
 354 39 354 39 407 39 c 0,19,20
 472 39 472 39 532 66 c 128,-1,21
 592 93 592 93 636 142 c 0,22,23
 645 152 645 152 654 156 c 0,24,25
 660 159 660 159 664 159 c 0,26,27
 670 159 670 159 675 156 c 0,28,29
 679 154 679 154 687 148.5 c 128,-1,30
 695 143 695 143 695 129 c 0,31,32
 695 114 695 114 661 81 c 128,-1,33
 627 48 627 48 593 27 c 0,34,35
 500 -29 500 -29 391 -29 c 0,36,37
 322 -29 322 -29 259 -7 c 128,-1,38
 196 15 196 15 143 58.5 c 128,-1,39
 90 102 90 102 58.5 175.5 c 128,-1,40
 27 249 27 249 27 343 c 128,-1,41
 27 437 27 437 59 510.5 c 128,-1,42
 91 584 91 584 144 627.5 c 128,-1,43
 197 671 197 671 259.5 692.5 c 128,-1,44
 322 714 322 714 389 714 c 0,45,46
 451 714 451 714 503 691 c 128,-1,47
 555 668 555 668 589 668 c 0,48,49
 610 668 610 668 612 687 c 0,50,51
 615 714 615 714 640 714 c 0,52,53
 658 714 658 714 664 694 c 0,54,55
 667 685 667 685 667 671 c 2,56,-1
 667 504 l 2,0,1
612 596 m 1,57,-1
 612 615 l 1,58,59
 605 613 605 613 596 613 c 1,60,-1
 612 596 l 1,57,-1
235 623 m 1,61,62
 179 594 179 594 136 538 c 0,63,64
 82 466 82 466 82 342 c 0,65,66
 82 240 82 240 130 158 c 0,67,68
 167 94 167 94 242 59 c 1,69,70
 168 151 168 151 168 341 c 0,71,72
 168 431 168 431 187.5 504 c 128,-1,73
 207 577 207 577 224 606 c 0,74,75
 230 615 230 615 235 623 c 1,61,62
EndSplineSet
Validated: 19457
EndChar

StartChar: D
Encoding: 68 68 36
Width: 722
VWidth: 1000
Flags: W
HStem: -10 55<6.59082 81.7446 140 223 274.625 403.7> 640 55<6.34375 83.9998 140 223 274.064 400.785>
VStem: 89 55<52 634> 217 55<48.0791 617.841> 505 55<183.198 512.087> 646 55<221.804 476.428>
LayerCount: 2
Fore
SplineSet
339 695 m 2,0,1
 390 695 390 695 440 684 c 128,-1,2
 490 673 490 673 537.5 646.5 c 128,-1,3
 585 620 585 620 621 581 c 128,-1,4
 657 542 657 542 679 484 c 128,-1,5
 701 426 701 426 701 355 c 0,6,7
 701 281 701 281 680 220 c 128,-1,8
 659 159 659 159 625 117 c 0,9,10
 590 75 590 75 543 46 c 128,-1,11
 496 17 496 17 445 3 c 0,12,13
 394 -10 394 -10 338 -10 c 2,14,-1
 50 -10 l 2,15,16
 36 -10 36 -10 32 -9 c 0,17,18
 27 -8 27 -8 22 -7 c 0,19,20
 19 -5 19 -5 15 -2 c 0,21,22
 6 6 6 6 6 18 c 0,23,24
 6 37 6 37 26 43 c 0,25,26
 33 45 33 45 44 45 c 0,27,28
 74 45 74 45 82 51 c 0,29,-1
 83 52 l 0,30,-1
 84 52 l 0,31,32
 89 61 89 61 89 92 c 2,33,-1
 89 593 l 2,34,35
 89 624 89 624 84 633 c 0,36,37
 84 634 84 634 83 634 c 0,38,-1
 82 634 l 0,39,40
 73 640 73 640 43 640 c 0,41,42
 35 640 35 640 28 641 c 0,43,44
 6 646 6 646 6 667 c 0,45,46
 6 686 6 686 20 691 c 0,47,48
 30 695 30 695 50 695 c 2,49,-1
 339 695 l 2,0,1
491 608 m 1,50,51
 560 513 560 513 560 353 c 0,52,53
 560 176 560 176 498 83 c 1,54,55
 554 112 554 112 594 167 c 0,56,57
 646 239 646 239 646 355 c 0,58,59
 646 451 646 451 601 519 c 0,60,61
 563 576 563 576 491 608 c 1,50,51
140 45 m 1,62,-1
 223 45 l 1,63,64
 217 61 217 61 217 86 c 2,65,-1
 217 599 l 2,66,67
 217 624 217 624 223 640 c 1,68,-1
 140 640 l 1,69,70
 144 622 144 622 144 595 c 2,71,-1
 144 90 l 2,72,73
 144 63 144 63 140 45 c 1,62,-1
272 596 m 2,74,-1
 272 89 l 2,75,76
 272 79 272 79 273 73.5 c 128,-1,77
 274 68 274 68 277.5 60.5 c 128,-1,78
 281 53 281 53 291.5 49 c 128,-1,79
 302 45 302 45 321 45 c 0,80,81
 366 45 366 45 400.5 65 c 128,-1,82
 435 85 435 85 454 115.5 c 128,-1,83
 473 146 473 146 485 190 c 128,-1,84
 497 234 497 234 501 272 c 128,-1,85
 505 310 505 310 505 353 c 0,86,87
 505 503 505 503 451 571.5 c 128,-1,88
 397 640 397 640 328 640 c 0,89,90
 300 640 300 640 286 630 c 0,91,92
 276 623 276 623 274 618 c 128,-1,93
 272 613 272 613 272 596 c 2,74,-1
EndSplineSet
Validated: 19457
EndChar

StartChar: E
Encoding: 69 69 37
Width: 666
VWidth: 1000
Flags: W
HStem: -10 55<4.37573 83.8062 143 221 280.063 466.039 545 572.938> 326 56<269 356.255> 522 20G<425.5 446> 640 55<4.34375 84.9998 143 221 271.441 466.548 532 548>
VStem: 92 55<55.6166 631.806 632.031 634> 214 55<49.1263 326 382 639.78> 409 55<187.529 282.452 339 375 433.078 541.525> 548 55<480.561 568.649 627 640>
LayerCount: 2
Fore
SplineSet
619 11 m 0,0,1
 616 2 616 2 612 -3 c 0,2,3
 609 -6 609 -6 603 -8 c 128,-1,4
 597 -10 597 -10 578 -10 c 2,5,-1
 48 -10 l 2,6,7
 34 -10 34 -10 29 -9.5 c 128,-1,8
 24 -9 24 -9 20 -7 c 0,9,10
 17 -5 17 -5 10.5 0 c 128,-1,11
 4 5 4 5 4 18 c 0,12,13
 4 36 4 36 23 42 c 0,14,15
 32 45 32 45 46 45 c 0,16,17
 78 45 78 45 84 51 c 0,18,19
 85 52 85 52 88.5 55.5 c 128,-1,20
 92 59 92 59 92 92 c 2,21,-1
 92 593 l 2,22,23
 92 626 92 626 86 632 c 0,24,25
 85 633 85 633 85 633.5 c 128,-1,26
 85 634 85 634 84 634 c 0,27,28
 75 640 75 640 41 640 c 0,29,30
 33 640 33 640 26 641 c 0,31,32
 4 646 4 646 4 667 c 0,33,34
 4 686 4 686 16 690.5 c 128,-1,35
 28 695 28 695 48 695 c 2,36,-1
 560 695 l 2,37,38
 587 695 587 695 593 689 c 0,39,40
 594 688 594 688 598.5 683.5 c 128,-1,41
 603 679 603 679 603 652 c 2,42,-1
 603 522 l 2,43,44
 603 507 603 507 600 499 c 0,45,46
 594 480 594 480 576 480 c 0,47,48
 559 480 559 480 552 497 c 0,49,50
 549 504 549 504 548 511 c 0,51,52
 543 564 543 564 492.5 602 c 128,-1,53
 442 640 442 640 350 640 c 2,54,-1
 302 640 l 2,55,56
 288 640 288 640 285 639 c 128,-1,57
 282 638 282 638 280 636 c 0,58,59
 277 633 277 633 273 623 c 128,-1,60
 269 613 269 613 269 583 c 2,61,-1
 269 382 l 1,62,63
 283 382 283 382 296 384 c 128,-1,64
 309 386 309 386 332 393.5 c 128,-1,65
 355 401 355 401 369.5 413 c 128,-1,66
 384 425 384 425 396 450 c 0,67,68
 409 477 409 477 409 505 c 0,69,70
 409 507 409 507 409 509 c 0,71,72
 409 516 409 516 410 518 c 0,73,74
 414 542 414 542 437 542 c 0,75,76
 455 542 455 542 461 523 c 0,77,78
 464 514 464 514 464 500 c 2,79,-1
 464 229 l 2,80,81
 464 215 464 215 463.5 210 c 128,-1,82
 463 205 463 205 460 200 c 0,83,84
 459 198 459 198 454.5 192.5 c 128,-1,85
 450 187 450 187 437.5 187 c 128,-1,86
 425 187 425 187 418 194.5 c 128,-1,87
 411 202 411 202 410 210.5 c 128,-1,88
 409 219 409 219 409 224 c 0,89,90
 408 234 408 234 406.5 243 c 128,-1,91
 405 252 405 252 392.5 273.5 c 128,-1,92
 380 295 380 295 362 307 c 0,93,94
 333 325 333 325 269 326 c 1,95,-1
 269 102 l 2,96,97
 269 72 269 72 273 62.5 c 128,-1,98
 277 53 277 53 280 49 c 0,99,100
 282 47 282 47 285.5 46 c 128,-1,101
 289 45 289 45 302 45 c 2,102,-1
 357 45 l 2,103,104
 437 45 437 45 510 89 c 0,105,106
 543 109 543 109 562 130 c 128,-1,107
 581 151 581 151 586 163.5 c 128,-1,108
 591 176 591 176 594 192 c 0,109,110
 595 196 595 196 596.5 199 c 128,-1,111
 598 202 598 202 600 205 c 0,112,113
 602 207 602 207 607.5 211 c 128,-1,114
 613 215 613 215 622.5 215 c 128,-1,115
 632 215 632 215 640.5 207 c 128,-1,116
 649 199 649 199 649 187 c 0,117,118
 649 182 649 182 636 102 c 0,119,120
 624 22 624 22 619 11 c 0,0,1
548 640 m 1,121,-1
 532 640 l 1,122,123
 540 634 540 634 548 627 c 1,124,-1
 548 640 l 1,121,-1
384 357 m 1,125,126
 391 353 391 353 400 346 c 0,127,128
 405 343 405 343 409 339 c 1,129,-1
 409 375 l 1,130,131
 397 365 397 365 384 357 c 1,125,126
147 595 m 2,132,-1
 147 90 l 2,133,134
 147 63 147 63 143 45 c 1,135,-1
 221 45 l 1,136,137
 214 68 214 68 214 100 c 2,138,-1
 214 585 l 2,139,140
 214 618 214 618 221 640 c 1,141,-1
 143 640 l 1,142,143
 147 622 147 622 147 595 c 2,132,-1
545 45 m 1,144,-1
 570 45 l 1,145,146
 571 56 571 56 573 65 c 1,147,148
 559 54 559 54 545 45 c 1,144,-1
EndSplineSet
Validated: 19457
EndChar

StartChar: F
Encoding: 70 70 38
Width: 611
VWidth: 1000
Flags: W
HStem: -10 55<4.37573 83.7139 143 219 281.653 367.623> 326 57<269 349.146> 522 20G<415.5 435> 640 55<4.34375 84.9998 143 221 271.441 459.651 524 538>
VStem: 92 55<55.6166 631.744 632.031 634> 214 55<53.2871 326 383 639.78> 398 55<187.488 283.109 342 373 428.809 541.536> 538 55<480.159 570.024 627 640>
LayerCount: 2
Fore
SplineSet
269 95 m 2,0,1
 269 62 269 62 276 53 c 0,2,3
 277 52 277 52 281.5 48.5 c 128,-1,4
 286 45 286 45 340 45 c 0,5,6
 352 45 352 45 360 42 c 0,7,8
 380 36 380 36 380 18 c 0,9,10
 380 -1 380 -1 368 -5.5 c 128,-1,11
 356 -10 356 -10 337 -10 c 2,12,-1
 48 -10 l 2,13,14
 34 -10 34 -10 29 -9.5 c 128,-1,15
 24 -9 24 -9 20 -7 c 0,16,17
 17 -5 17 -5 10.5 0 c 128,-1,18
 4 5 4 5 4 18 c 0,19,20
 4 36 4 36 23 42 c 0,21,22
 32 45 32 45 46 45 c 0,23,24
 75 45 75 45 84 51 c 0,25,26
 85 52 85 52 88.5 55.5 c 128,-1,27
 92 59 92 59 92 92 c 2,28,-1
 92 593 l 2,29,30
 92 624 92 624 86 632 c 0,31,32
 85 633 85 633 85 633.5 c 128,-1,33
 85 634 85 634 84 634 c 0,34,35
 75 640 75 640 41 640 c 0,36,37
 33 640 33 640 26 641 c 0,38,39
 4 646 4 646 4 667 c 0,40,41
 4 686 4 686 16 690.5 c 128,-1,42
 28 695 28 695 48 695 c 2,43,-1
 550 695 l 2,44,45
 575 695 575 695 583 689 c 0,46,47
 584 688 584 688 588.5 683.5 c 128,-1,48
 593 679 593 679 593 652 c 2,49,-1
 593 522 l 2,50,51
 593 507 593 507 590 499 c 0,52,53
 584 479 584 479 566 479.5 c 128,-1,54
 548 480 548 480 542 497 c 0,55,56
 539 504 539 504 538 511 c 0,57,58
 533 564 533 564 484.5 602 c 128,-1,59
 436 640 436 640 349 640 c 2,60,-1
 302 640 l 2,61,62
 288 640 288 640 285 639 c 128,-1,63
 282 638 282 638 280 636 c 0,64,65
 277 633 277 633 273 623 c 128,-1,66
 269 613 269 613 269 583 c 2,67,-1
 269 383 l 1,68,69
 325 387 325 387 359.5 412 c 128,-1,70
 394 437 394 437 398 512 c 0,71,72
 398 516 398 516 399 520 c 0,73,74
 405 542 405 542 426 542 c 0,75,76
 444 542 444 542 450 523 c 0,77,78
 453 514 453 514 453 500 c 2,79,-1
 453 229 l 2,80,81
 453 215 453 215 452.5 210 c 128,-1,82
 452 205 452 205 449 200 c 0,83,84
 448 198 448 198 443.5 192.5 c 128,-1,85
 439 187 439 187 426 187 c 0,86,87
 407 187 407 187 401 207 c 0,88,89
 399 213 399 213 398 221 c 0,90,91
 391 322 391 322 269 326 c 1,92,-1
 269 95 l 2,0,1
538 640 m 1,93,-1
 524 640 l 1,94,95
 531 634 531 634 538 627 c 1,96,-1
 538 640 l 1,93,-1
398 342 m 1,97,-1
 398 373 l 1,98,99
 388 364 388 364 377 356 c 1,100,101
 388 350 388 350 398 342 c 1,97,-1
147 595 m 2,102,-1
 147 90 l 2,103,104
 147 63 147 63 143 45 c 1,105,-1
 219 45 l 1,106,107
 214 64 214 64 214 93 c 2,108,-1
 214 585 l 2,109,110
 214 618 214 618 221 640 c 1,111,-1
 143 640 l 1,112,113
 147 622 147 622 147 595 c 2,102,-1
EndSplineSet
Validated: 19457
EndChar

StartChar: G
Encoding: 71 71 39
Width: 777
VWidth: 1000
Flags: W
HStem: -29 55<318.419 497.926> 245 55<400.438 483.555 536 638 691.44 757.438> 659 55<322.995 473.846>
VStem: 27 55<210.938 479.506> 168 55<158.446 512.314> 502 55<52.6934 225.556> 611 55<597 615 673.157 713.578> 621 55<68.1602 224.433>
LayerCount: 2
Fore
SplineSet
638 245 m 1,0,-1
 536 245 l 1,1,2
 548 229 548 229 552.5 206.5 c 128,-1,3
 557 184 557 184 557 120 c 0,4,5
 557 74 557 74 555 52 c 1,6,7
 589 63 589 63 621 78 c 1,8,-1
 621 174 l 2,9,10
 621 215 621 215 638 245 c 1,0,-1
133 68 m 0,11,12
 27 165 27 165 27 343 c 0,13,14
 27 437 27 437 59 510 c 0,15,16
 91 584 91 584 144 628 c 0,17,18
 197 671 197 671 259.5 692.5 c 128,-1,19
 322 714 322 714 389 714 c 0,20,21
 450 714 450 714 509 688 c 0,22,23
 555 668 555 668 589 668 c 0,24,25
 601 668 601 668 605.5 673 c 128,-1,26
 610 678 610 678 611 687 c 0,27,28
 614 714 614 714 639 714 c 0,29,30
 657 714 657 714 663 694 c 0,31,32
 666 685 666 685 666 671 c 2,33,-1
 666 504 l 2,34,35
 666 489 666 489 663 481 c 0,36,37
 657 461 657 461 639 461 c 0,38,39
 625 461 625 461 618 471 c 0,40,41
 613 480 613 480 608 495 c 0,42,43
 591 551 591 551 522 606 c 0,44,45
 454 659 454 659 392 659 c 0,46,47
 318 659 318 659 271 575 c 0,48,49
 223 488 223 488 223 340 c 0,50,51
 223 212 223 212 254 132 c 0,52,53
 295 26 295 26 397 26 c 0,54,55
 447 26 447 26 479 36 c 0,56,57
 498 42 498 42 498 49 c 2,58,59
 502 58 502 58 502 82 c 2,60,-1
 502 158 l 2,61,62
 502 171 502 171 502 178 c 128,-1,63
 502 185 502 185 497 199 c 0,64,65
 493 212 493 212 487 219 c 0,66,67
 480 227 480 227 465 235 c 0,68,69
 449 243 449 243 428 244 c 0,70,71
 400 246 400 246 400 272 c 0,72,73
 400 291 400 291 415 296 c 0,74,75
 425 300 425 300 446 300 c 2,76,-1
 713 300 l 2,77,78
 727 300 727 300 732 299 c 0,79,80
 738 298 738 298 743 296 c 0,81,82
 746 294 746 294 749 292 c 0,83,84
 759 284 759 284 758 272 c 0,85,86
 757 252 757 252 736 245 c 0,87,88
 733 244 733 244 730 244 c 0,89,90
 705 242 705 242 691 225 c 0,91,92
 676 207 676 207 676 172 c 2,93,-1
 676 80 l 2,94,95
 674 67 674 67 674 54 c 0,96,97
 674 53 674 53 673 52 c 128,-1,98
 672 51 672 51 672 50 c 0,99,-1
 671 48 l 0,100,101
 669 45 669 45 668 44 c 0,102,103
 661 37 661 37 645 29 c 0,104,105
 531 -29 531 -29 395 -29 c 0,106,107
 238 -29 238 -29 133 68 c 0,11,12
611 597 m 1,108,-1
 611 615 l 1,109,110
 603 613 603 613 597 613 c 1,111,112
 604 606 604 606 611 597 c 1,108,-1
225 68 m 1,113,114
 168 163 168 163 168 340 c 0,115,116
 168 429 168 429 186 501 c 0,117,118
 203 568 203 568 223 604 c 0,119,120
 232 618 232 618 235 623 c 1,121,122
 180 594 180 594 136 538 c 0,123,124
 82 466 82 466 82 342 c 0,125,126
 82 242 82 242 125 165 c 0,127,128
 160 104 160 104 225 68 c 1,113,114
EndSplineSet
Validated: 19457
EndChar

StartChar: H
Encoding: 72 72 40
Width: 777
VWidth: 1000
Flags: W
HStem: -10 55<23.1562 86.7139 87.0312 93.7681 146 227 279.318 345.75 428.156 491.714 492.031 498.768 551 632 684.318 750.75> -7 49<7.11597 33 328.312 365.915 412.116 438 733.312 770.915> 314 66<278 500> 640 55<7.43506 88 146 227 284 357.75 434.219 493 551 632 689 762.75> 642 52<330.281 357.75 412.263 448.75>
VStem: 95 55<52.2251 633.969> 223 55<52.2559 314 380 634> 500 55<52.2251 314 380 633.969> 628 55<52.2559 634>
LayerCount: 2
Fore
SplineSet
683 92 m 2,0,1
 683 60 683 60 689 52 c 2,2,-1
 690 52 l 2,3,4
 691 52 691 52 690 51 c 2,5,-1
 691 51 l 2,6,7
 700 45 700 45 733 45 c 0,8,9
 743 45 743 45 751 43 c 0,10,11
 771 37 771 37 771 18 c 128,-1,12
 771 -1 771 -1 757 -6 c 0,13,14
 747 -10 747 -10 728 -10 c 2,15,-1
 456 -10 l 2,16,17
 442 -10 442 -10 438 -9 c 0,18,19
 433 -8 433 -8 428 -7 c 0,20,21
 425 -5 425 -5 421 -2 c 0,22,23
 412 6 412 6 412 18 c 0,24,25
 412 36 412 36 431 42 c 0,26,27
 440 45 440 45 454 45 c 0,28,29
 483 45 483 45 492 51 c 0,30,31
 493 52 493 52 494 52 c 0,32,33
 500 59 500 59 500 92 c 2,34,-1
 500 314 l 1,35,-1
 278 314 l 1,36,-1
 278 92 l 2,37,38
 278 60 278 60 284 52 c 2,39,-1
 285 52 l 2,40,41
 286 52 286 52 285 51 c 2,42,-1
 286 51 l 2,43,44
 295 45 295 45 328 45 c 0,45,46
 338 45 338 45 346 43 c 0,47,48
 366 37 366 37 366 18 c 128,-1,49
 366 -1 366 -1 352 -6 c 0,50,51
 342 -10 342 -10 323 -10 c 2,52,-1
 51 -10 l 2,53,54
 37 -10 37 -10 33 -9 c 0,55,56
 28 -8 28 -8 23 -7 c 0,57,58
 20 -5 20 -5 16 -2 c 0,59,60
 7 6 7 6 7 18 c 0,61,62
 7 36 7 36 26 42 c 0,63,64
 35 45 35 45 49 45 c 0,65,66
 78 45 78 45 87 51 c 0,67,68
 88 52 88 52 89 52 c 0,69,70
 95 59 95 59 95 92 c 2,71,-1
 95 593 l 2,72,73
 95 624 95 624 89 632 c 0,74,75
 88 634 l 0,76,-1
 87 634 l 1,77,78
 78 640 78 640 44 640 c 0,79,80
 36 640 36 640 29 641 c 0,81,82
 7 646 7 646 7 667 c 0,83,84
 7 686 7 686 22 691 c 0,85,86
 32 695 32 695 51 695 c 2,87,-1
 323 695 l 2,88,89
 335 695 335 695 341 694 c 0,90,91
 350 693 350 693 358 687 c 0,92,93
 367 679 367 679 366 667 c 0,94,95
 365 647 365 647 345 642 c 0,96,97
 339 640 339 640 330 640 c 0,98,99
 294 640 294 640 285 634 c 0,100,101
 284 634 284 634 284 633.5 c 128,-1,102
 284 633 284 633 284 632 c 0,103,104
 278 623 278 623 278 593 c 2,105,-1
 278 380 l 1,106,-1
 500 380 l 1,107,-1
 500 593 l 2,108,109
 500 624 500 624 494 632 c 0,110,-1
 493 634 l 0,111,-1
 492 634 l 1,112,113
 483 640 483 640 449 640 c 0,114,115
 441 640 441 640 434 641 c 0,116,117
 412 646 412 646 412 667 c 0,118,119
 412 686 412 686 426 691 c 0,120,121
 436 695 436 695 456 695 c 2,122,-1
 728 695 l 2,123,124
 740 695 740 695 746 694 c 0,125,126
 755 693 755 693 763 687 c 0,127,128
 772 679 772 679 771 667 c 0,129,130
 770 647 770 647 750 642 c 0,131,132
 744 640 744 640 735 640 c 0,133,134
 699 640 699 640 690 634 c 0,135,136
 689 634 689 634 689 633.5 c 128,-1,137
 689 633 689 633 689 632 c 0,138,139
 683 623 683 623 683 593 c 2,140,-1
 683 92 l 2,0,1
150 595 m 2,141,-1
 150 90 l 2,142,143
 150 63 150 63 146 45 c 1,144,-1
 227 45 l 1,145,146
 223 63 223 63 223 90 c 2,147,-1
 223 595 l 2,148,149
 223 622 223 622 227 640 c 1,150,-1
 146 640 l 1,151,152
 150 622 150 622 150 595 c 2,141,-1
555 595 m 2,153,-1
 555 90 l 2,154,155
 555 63 555 63 551 45 c 1,156,-1
 632 45 l 1,157,158
 628 63 628 63 628 90 c 2,159,-1
 628 595 l 2,160,161
 628 622 628 622 632 640 c 1,162,-1
 551 640 l 1,163,164
 555 622 555 622 555 595 c 2,153,-1
EndSplineSet
Validated: 19457
EndChar

StartChar: I
Encoding: 73 73 41
Width: 388
VWidth: 1000
Flags: W
HStem: -10 55<10.4062 99.3912 153 236 292.031 366.623> 640 55<22.377 94.7129 96 101.682 153 236 289.609 358.749>
VStem: 103 55<55.1321 633> 231 55<51.0001 52.9689 53.2556 629.868>
LayerCount: 2
Fore
SplineSet
286 92 m 2,0,1
 286 61 286 61 292 53 c 0,2,3
 293 52 293 52 293 51.5 c 128,-1,4
 293 51 293 51 294 51 c 0,5,6
 304 45 304 45 341 45 c 0,7,8
 351 45 351 45 359 42 c 0,9,10
 379 36 379 36 379 17.5 c 128,-1,11
 379 -1 379 -1 367 -5.5 c 128,-1,12
 355 -10 355 -10 336 -10 c 2,13,-1
 54 -10 l 2,14,15
 40 -10 40 -10 35 -9.5 c 128,-1,16
 30 -9 30 -9 26 -7 c 0,17,18
 23 -5 23 -5 16.5 0.5 c 128,-1,19
 10 6 10 6 10 18 c 0,20,21
 10 37 10 37 30 42 c 0,22,23
 38 44 38 44 51 45 c 0,24,25
 86 45 86 45 95 51 c 0,26,27
 96 51 96 51 99.5 55 c 128,-1,28
 103 59 103 59 103 92 c 2,29,-1
 103 593 l 2,30,31
 103 625 103 625 97 633 c 2,32,-1
 96 633 l 2,33,-1
 95 634 l 0,34,35
 86 640 86 640 53 640 c 0,36,37
 39 640 39 640 30 643 c 0,38,39
 10 649 10 649 10 667 c 0,40,41
 10 686 10 686 22 690.5 c 128,-1,42
 34 695 34 695 54 695 c 2,43,-1
 336 695 l 2,44,45
 348 695 348 695 355.5 694.5 c 128,-1,46
 363 694 363 694 371 686.5 c 128,-1,47
 379 679 379 679 379 667 c 0,48,49
 379 648 379 648 359 642 c 0,50,51
 351 640 351 640 338 640 c 0,52,53
 303 640 303 640 294 634 c 0,54,55
 293 634 293 634 289.5 630 c 128,-1,56
 286 626 286 626 286 593 c 2,57,-1
 286 92 l 2,0,1
158 595 m 2,58,-1
 158 90 l 2,59,60
 158 62 158 62 153 45 c 1,61,-1
 236 45 l 1,62,63
 231 62 231 62 231 90 c 2,64,-1
 231 595 l 2,65,66
 231 623 231 623 236 640 c 1,67,-1
 153 640 l 1,68,69
 158 623 158 623 158 595 c 2,58,-1
EndSplineSet
Validated: 19457
EndChar

StartChar: J
Encoding: 74 74 42
Width: 500
VWidth: 1000
Flags: W
HStem: -85 55<133.302 202.501> 61 55<55.5043 100.238> 640 55<113.415 205.618 265 348 398.766 477.75>
VStem: -4 55<-4.47461 57.1242> 105 55<7.30701 56.8667> 215 55<-13.405 631.744> 343 55<32.2703 633.968>
LayerCount: 2
Fore
SplineSet
443 695 m 2,0,1
 455 695 455 695 461 694 c 0,2,3
 470 693 470 693 478 687 c 0,4,5
 486 680 486 680 486 667 c 0,6,7
 486 656 486 656 478 648 c 128,-1,8
 470 640 470 640 459 640 c 0,9,10
 415 639 415 639 405 634 c 0,11,12
 403 633 403 633 402 630 c 0,13,14
 398 622 398 622 398 604 c 2,15,-1
 398 184 l 2,16,17
 398 95 398 95 397 86 c 0,18,19
 376 -85 376 -85 167 -85 c 0,20,21
 92 -85 92 -85 45 -52 c 0,22,23
 -4 -18 -4 -18 -4 36 c 0,24,25
 -4 70 -4 70 21 93 c 0,26,27
 45 116 45 116 78 116 c 128,-1,28
 111 116 111 116 135 93 c 0,29,30
 160 70 160 70 160 36 c 0,31,32
 160 3 160 3 139 -19 c 0,33,34
 135 -23 135 -23 134 -26 c 0,35,36
 134 -27 134 -27 133 -27 c 0,37,38
 140 -30 140 -30 160 -30 c 0,39,40
 184 -30 184 -30 201 -15 c 0,41,42
 215 -2 215 -2 215 31 c 2,43,-1
 215 592 l 2,44,45
 215 624 215 624 208 632 c 0,46,-1
 207 633 l 0,47,-1
 206 634 l 0,48,49
 194 640 194 640 152 640 c 0,50,51
 141 640 141 640 134 642 c 0,52,53
 113 648 113 648 113 667 c 128,-1,54
 113 686 113 686 128 691 c 0,55,56
 138 695 138 695 157 695 c 2,57,-1
 443 695 l 2,0,1
80 -9 m 1,58,59
 85 5 85 5 96 16 c 2,60,-1
 96 17 l 1,61,-1
 97 17 l 2,62,63
 105 23 105 23 105 36 c 0,64,65
 105 47 105 47 96.5 54 c 128,-1,66
 88 61 88 61 77.5 61 c 128,-1,67
 67 61 67 61 59 54.5 c 128,-1,68
 51 48 51 48 51 35 c 0,69,70
 51 9 51 9 80 -9 c 1,58,59
270 594 m 2,71,-1
 270 29 l 2,72,73
 270 5 270 5 264 -14 c 1,74,75
 331 13 331 13 342 87 c 0,76,77
 343 93 343 93 343 176 c 2,78,-1
 343 579 l 2,79,80
 343 619 343 619 348 640 c 1,81,-1
 265 640 l 1,82,83
 270 622 270 622 270 594 c 2,71,-1
EndSplineSet
Validated: 19457
EndChar

StartChar: K
Encoding: 75 75 43
Width: 777
VWidth: 1000
Flags: W
HStem: -10 55<30.1562 93.7139 94.0312 100.768 153 234 286.318 352.75 559.893 665> -10 55<14.5625 93.7139 153 234 293.287 372.604 478.25 507.347 559.893 665 717.462 778.656> 640 55<14.3438 95 153 234 291 364.75 551 587 649.915 732.75>
VStem: 102 55<52.2251 633.969> 230 55<52.2559 281 365 634>
LayerCount: 2
Fore
SplineSet
710 76 m 2,0,1
 718 66 718 66 730 55 c 0,2,3
 739 46 739 46 751 45 c 0,4,5
 755 44 755 44 757 44 c 0,6,7
 779 38 779 38 779 18 c 0,8,9
 779 -1 779 -1 765 -6 c 0,10,11
 755 -10 755 -10 736 -10 c 2,12,-1
 513 -10 l 2,13,14
 501 -10 501 -10 495 -9 c 0,15,16
 486 -8 486 -8 478 -2 c 0,17,18
 469 6 469 6 470 18 c 0,19,20
 470 27 470 27 473 32 c 0,21,22
 475 36 475 36 480 39 c 0,23,24
 487 43 487 43 508 46 c 1,25,26
 503 56 503 56 498 63 c 2,27,-1
 302 297 l 1,28,-1
 285 281 l 1,29,-1
 285 92 l 2,30,31
 285 60 285 60 291 52 c 2,32,-1
 292 52 l 2,33,34
 293 52 293 52 292 51 c 2,35,-1
 293 51 l 2,36,37
 302 45 302 45 335 45 c 0,38,39
 345 45 345 45 353 43 c 0,40,41
 373 37 373 37 373 18 c 128,-1,42
 373 -1 373 -1 359 -6 c 0,43,44
 349 -10 349 -10 330 -10 c 2,45,-1
 58 -10 l 2,46,47
 44 -10 44 -10 40 -9 c 0,48,49
 35 -8 35 -8 30 -7 c 0,50,51
 27 -5 27 -5 23 -2 c 0,52,53
 14 6 14 6 14 18 c 0,54,55
 14 36 14 36 33 42 c 0,56,57
 42 45 42 45 56 45 c 0,58,59
 85 45 85 45 94 51 c 0,60,61
 95 52 95 52 96 52 c 0,62,63
 102 59 102 59 102 92 c 2,64,-1
 102 593 l 2,65,66
 102 624 102 624 96 632 c 0,67,68
 95 634 l 0,69,70
 94 634 l 1,71,72
 85 640 85 640 51 640 c 0,73,74
 43 640 43 640 36 641 c 0,75,76
 14 646 14 646 14 667 c 0,77,78
 14 686 14 686 28 691 c 0,79,80
 38 695 38 695 58 695 c 2,81,-1
 330 695 l 2,82,83
 342 695 342 695 348 694 c 0,84,85
 357 693 357 693 365 687 c 0,86,87
 374 679 374 679 373 667 c 0,88,89
 372 647 372 647 352 642 c 0,90,91
 346 640 346 640 337 640 c 0,92,93
 301 640 301 640 292 634 c 0,94,95
 291 634 291 634 291 633.5 c 128,-1,96
 291 633 291 633 291 632 c 0,97,98
 285 623 285 623 285 593 c 2,99,-1
 285 365 l 1,100,-1
 299 379 l 1,101,-1
 342 421 l 1,102,-1
 372 450 l 1,103,-1
 481 553 l 2,104,105
 503 575 503 575 503 600 c 0,106,107
 503 635 503 635 474 640 c 0,108,109
 467 641 467 641 462 643 c 0,110,111
 444 650 444 650 444 667 c 0,112,113
 444 686 444 686 458 691 c 0,114,115
 468 695 468 695 487 695 c 2,116,-1
 698 695 l 2,117,118
 710 695 710 695 716 694 c 0,119,120
 725 693 725 693 733 687 c 0,121,122
 742 679 742 679 741 667 c 0,123,124
 740 650 740 650 724 643 c 0,125,126
 717 640 717 640 710 640 c 0,127,128
 688 638 688 638 668 628 c 0,129,130
 647 618 647 618 615 592 c 0,131,132
 582 565 582 565 560 544 c 2,133,-1
 485 472 l 1,134,-1
 427 415 l 1,135,-1
 710 76 l 2,0,1
587 640 m 1,136,-1
 551 640 l 1,137,138
 555 629 555 629 557 616 c 1,139,-1
 587 640 l 1,136,-1
153 45 m 1,140,-1
 234 45 l 1,141,142
 230 63 230 63 230 90 c 2,143,-1
 230 595 l 2,144,145
 230 622 230 622 234 640 c 1,146,-1
 153 640 l 1,147,148
 157 622 157 622 157 595 c 2,149,-1
 157 90 l 2,150,151
 157 63 157 63 153 45 c 1,140,-1
387 378 m 1,152,-1
 343 335 l 1,153,154
 375 299 375 299 436 222 c 1,155,156
 514 130 514 130 538 100 c 0,157,158
 551 84 551 84 557.5 72 c 128,-1,159
 564 60 564 60 564.5 55 c 128,-1,160
 565 50 565 50 566 45 c 1,161,-1
 665 45 l 1,162,-1
 387 378 l 1,152,-1
EndSplineSet
Validated: 19457
EndChar

StartChar: L
Encoding: 76 76 44
Width: 666
VWidth: 1000
Flags: W
HStem: -10 55<4.37573 83.7139 143 223 282.063 459.792 534 569> 640 55<4.34375 84.9998 143 220 278 353.5>
VStem: 92 55<55.6166 631.744 632.031 634> 216 55<49.1263 634> 594.5 53.5<157.116 225.749>
LayerCount: 2
Fore
SplineSet
271 102 m 2,0,1
 271 72 271 72 275 62.5 c 128,-1,2
 279 53 279 53 282 49 c 0,3,4
 284 47 284 47 287.5 46 c 128,-1,5
 291 45 291 45 304 45 c 2,6,-1
 356 45 l 2,7,8
 430 45 430 45 499 88 c 0,9,10
 529 107 529 107 547 124.5 c 128,-1,11
 565 142 565 142 574.5 159.5 c 128,-1,12
 584 177 584 177 586.5 184 c 128,-1,13
 589 191 589 191 594.5 212.5 c 128,-1,14
 600 234 600 234 622 234 c 0,15,16
 632 234 632 234 640.5 226 c 128,-1,17
 649 218 649 218 648 206 c 0,18,19
 648 202 648 202 635 110.5 c 128,-1,20
 622 19 622 19 620 11 c 0,21,22
 620 10 620 10 619 9 c 0,23,24
 614 -5 614 -5 605 -7.5 c 128,-1,25
 596 -10 596 -10 578 -10 c 2,26,-1
 48 -10 l 2,27,28
 34 -10 34 -10 29 -9.5 c 128,-1,29
 24 -9 24 -9 20 -7 c 0,30,31
 17 -5 17 -5 10.5 0 c 128,-1,32
 4 5 4 5 4 18 c 0,33,34
 4 36 4 36 23 42 c 0,35,36
 32 45 32 45 46 45 c 0,37,38
 75 45 75 45 84 51 c 0,39,40
 85 52 85 52 88.5 55.5 c 128,-1,41
 92 59 92 59 92 92 c 2,42,-1
 92 593 l 2,43,44
 92 624 92 624 86 632 c 0,45,46
 85 633 85 633 85 633.5 c 128,-1,47
 85 634 85 634 84 634 c 0,48,49
 75 640 75 640 41 640 c 0,50,51
 33 640 33 640 26 641 c 0,52,53
 4 646 4 646 4 667 c 0,54,55
 4 686 4 686 16 690.5 c 128,-1,56
 28 695 28 695 48 695 c 2,57,-1
 311 695 l 2,58,59
 323 695 323 695 330.5 694.5 c 128,-1,60
 338 694 338 694 346 686.5 c 128,-1,61
 354 679 354 679 354 667 c 0,62,63
 354 648 354 648 334 642 c 0,64,65
 327 640 327 640 316 640 c 0,66,67
 287 640 287 640 278 635 c 0,68,69
 276 634 l 0,70,-1
 276 633 l 0,71,-1
 276 632 l 2,72,73
 271 622 271 622 271 593 c 2,74,-1
 271 102 l 2,0,1
147 595 m 2,75,-1
 147 90 l 2,76,77
 147 63 147 63 143 45 c 1,78,-1
 223 45 l 1,79,80
 216 68 216 68 216 100 c 2,81,-1
 216 595 l 2,82,83
 216 622 216 622 220 640 c 1,84,-1
 143 640 l 1,85,86
 147 622 147 622 147 595 c 2,75,-1
569 45 m 1,87,-1
 574 76 l 1,88,89
 554 59 554 59 534 45 c 1,90,-1
 569 45 l 1,87,-1
EndSplineSet
Validated: 19457
EndChar

StartChar: M
Encoding: 77 77 45
Width: 944
VWidth: 1000
Flags: W
HStem: -10 55<7.5625 84.7168 165.017 248.609 581.562 658.717 710 801 851.017 934.609> 640 55<10.375 93.28 178 236 723 800 851.283 920.75>
VStem: 94 62<56.1807 558> 668 55<55.2039 558> 787 55<56.8542 629.796>
LayerCount: 2
Fore
SplineSet
647 668 m 2,0,1
 654 682 654 682 658 687 c 0,2,3
 661 690 661 690 663 691 c 0,4,5
 666 693 666 693 669 693 c 0,6,7
 670 693 670 693 671 693 c 0,8,9
 679 695 679 695 693 695 c 2,10,-1
 886 695 l 2,11,12
 898 695 898 695 904 694 c 0,13,14
 913 693 913 693 921 687 c 0,15,16
 930 679 930 679 929 667 c 0,17,18
 928 646 928 646 907 641 c 0,19,20
 904 640 904 640 901 640 c 0,21,22
 879 638 879 638 866 631 c 0,23,24
 854 625 854 625 850 615 c 0,25,26
 845 604 845 604 843 597 c 0,27,28
 842 590 842 590 842 579 c 2,29,-1
 842 106 l 2,30,31
 842 94 842 94 843 87 c 128,-1,32
 844 80 844 80 850 69 c 0,33,34
 855 60 855 60 869 54 c 128,-1,35
 883 48 883 48 910 45 c 0,36,37
 935 43 935 43 935 18 c 0,38,39
 935 -1 935 -1 921 -6 c 0,40,41
 911 -10 911 -10 892 -10 c 2,42,-1
 625 -10 l 2,43,44
 611 -10 611 -10 607 -9 c 0,45,46
 602 -8 602 -8 597 -7 c 0,47,48
 594 -5 594 -5 590 -2 c 0,49,50
 580 6 580 6 581 18 c 0,51,52
 582 39 582 39 603 44 c 0,53,54
 606 45 606 45 609 45 c 0,55,56
 631 47 631 47 644 54 c 0,57,58
 656 60 656 60 660 70 c 0,59,60
 665 81 665 81 667 88 c 0,61,62
 668 95 668 95 668 106 c 2,63,-1
 668 558 l 1,64,-1
 441 16 l 2,65,66
 436 4 436 4 431 -1 c 0,67,68
 422 -10 422 -10 412 -10 c 128,-1,69
 402 -10 402 -10 394 -2 c 0,70,71
 387 5 387 5 382 17 c 2,72,-1
 156 558 l 1,73,-1
 156 106 l 2,74,75
 156 94 156 94 157 87 c 128,-1,76
 158 80 158 80 164 69 c 0,77,78
 169 60 169 60 183 54 c 128,-1,79
 197 48 197 48 224 45 c 0,80,81
 249 43 249 43 249 18 c 0,82,83
 249 -1 249 -1 235 -6 c 0,84,85
 225 -10 225 -10 206 -10 c 2,86,-1
 51 -10 l 2,87,88
 37 -10 37 -10 33 -9 c 0,89,90
 28 -8 28 -8 23 -7 c 0,91,92
 20 -5 20 -5 16 -2 c 0,93,94
 6 6 6 6 7 18 c 0,95,96
 8 39 8 39 29 44 c 0,97,98
 32 45 32 45 35 45 c 0,99,100
 57 47 57 47 70 54 c 0,101,102
 82 60 82 60 86 70 c 0,103,104
 91 81 91 81 93 88 c 0,105,106
 94 95 94 95 94 106 c 2,107,-1
 94 633 l 1,108,109
 71 640 71 640 43 640 c 0,110,111
 38 640 38 640 34 641 c 0,112,113
 10 645 10 645 10 667 c 0,114,115
 10 686 10 686 24 691 c 0,116,117
 34 695 34 695 53 695 c 2,118,-1
 239 695 l 2,119,120
 257 695 257 695 263 693 c 0,121,122
 264 693 264 693 265 693 c 128,-1,123
 266 693 266 693 267 692 c 0,124,125
 268 692 268 692 269 691 c 0,126,127
 272 689 272 689 273 689 c 0,128,129
 279 684 279 684 284 669 c 2,130,-1
 466 236 l 1,131,-1
 647 668 l 2,0,1
427 188 m 2,132,-1
 236 640 l 1,133,-1
 178 640 l 1,134,135
 184 631 184 631 192 612 c 2,136,-1
 412 88 l 1,137,-1
 444 165 l 1,138,-1
 443 165 l 2,139,140
 442 165 442 165 438 169 c 2,141,-1
 436 170 l 1,142,-1
 437 170 l 1,143,144
 433 174 433 174 427 188 c 2,132,-1
125 31 m 1,145,-1
 125 29 l 1,146,147
 129 35 129 35 130 36 c 0,148,149
 134 40 134 40 134 45 c 1,150,-1
 125 36 l 1,151,-1
 117 40 l 1,152,-1
 125 31 l 1,145,-1
723 640 m 1,153,-1
 723 104 l 2,154,155
 723 69 723 69 710 45 c 1,156,-1
 801 45 l 1,157,158
 787 69 787 69 787 104 c 2,159,-1
 787 581 l 2,160,161
 787 616 787 616 800 640 c 1,162,-1
 723 640 l 1,153,-1
EndSplineSet
Validated: 19457
EndChar

StartChar: N
Encoding: 78 78 46
Width: 722
VWidth: 1000
Flags: W
HStem: -10 55<15.3955 93.2286 173.803 244.623> 640 55<27.3589 101.201 155 247 479.369 562.197 642.255 711.518>
VStem: 102 62<58.3816 537> 572 62<81 192 293 626.618>
LayerCount: 2
Fore
SplineSet
103 616 m 1,0,1
 84 637 84 637 57 640 c 1,2,3
 27 640 27 640 27 667 c 0,4,5
 27 686 27 686 39 690.5 c 128,-1,6
 51 695 51 695 70 695 c 2,7,-1
 244 695 l 2,8,9
 264 695 264 695 269.5 693 c 128,-1,10
 275 691 275 691 278 688 c 0,11,12
 283 684 283 684 288 677 c 2,13,-1
 572 293 l 1,14,-1
 572 576 l 2,15,16
 572 615 572 615 562.5 627 c 128,-1,17
 553 639 553 639 518 640 c 0,18,19
 506 640 506 640 500 642 c 0,20,21
 479 648 479 648 479 667 c 128,-1,22
 479 686 479 686 491.5 690.5 c 128,-1,23
 504 695 504 695 523 695 c 2,24,-1
 669 695 l 2,25,26
 681 695 681 695 688.5 694.5 c 128,-1,27
 696 694 696 694 704.5 686.5 c 128,-1,28
 713 679 713 679 712 667 c 0,29,30
 711 644 711 644 688 641 c 0,31,32
 685 640 685 640 679 640 c 0,33,34
 650 639 650 639 642 629 c 128,-1,35
 634 619 634 619 634 579 c 2,36,-1
 634 14 l 2,37,38
 634 -1 634 -1 631 -9 c 0,39,40
 625 -29 625 -29 607 -29 c 0,41,42
 600 -29 600 -29 594 -25 c 0,43,44
 586 -20 586 -20 578 -10 c 2,45,-1
 164 537 l 1,46,-1
 164 109 l 2,47,48
 164 70 164 70 173.5 58 c 128,-1,49
 183 46 183 46 217 45 c 0,50,51
 230 45 230 45 237 42 c 0,52,53
 257 36 257 36 257 18 c 0,54,55
 257 -1 257 -1 245 -5.5 c 128,-1,56
 233 -10 233 -10 214 -10 c 2,57,-1
 59 -10 l 2,58,59
 45 -10 45 -10 40 -9.5 c 128,-1,60
 35 -9 35 -9 31 -7 c 0,61,62
 28 -5 28 -5 21.5 0 c 128,-1,63
 15 5 15 5 15 18 c 0,64,65
 15 37 15 37 35 43 c 0,66,67
 42 45 42 45 53 45 c 0,68,69
 85 45 85 45 93.5 56.5 c 128,-1,70
 102 68 102 68 102 107 c 2,71,-1
 102 595 l 2,72,73
 102 608 102 608 103 616 c 1,0,1
579 81 m 1,74,-1
 579 192 l 1,75,-1
 247 640 l 1,76,-1
 155 640 l 1,77,-1
 162 632 l 1,78,-1
 579 81 l 1,74,-1
EndSplineSet
Validated: 19457
EndChar

StartChar: O
Encoding: 79 79 47
Width: 777
VWidth: 1000
Flags: W
HStem: -29 55<313.83 463.932> 659 55<314.068 464.17>
VStem: 23 55<209.435 476.063> 164 55<158.753 524.177> 559 55<160.9 524.861> 700 55<208.937 476.353>
LayerCount: 2
Fore
SplineSet
724.5 178.5 m 128,-1,1
 694 106 694 106 642 61.5 c 128,-1,2
 590 17 590 17 525.5 -6 c 128,-1,3
 461 -29 461 -29 389 -29 c 0,4,5
 333 -29 333 -29 280.5 -15.5 c 128,-1,6
 228 -2 228 -2 181 27.5 c 128,-1,7
 134 57 134 57 99 100 c 128,-1,8
 64 143 64 143 43.5 205.5 c 128,-1,9
 23 268 23 268 23 343 c 0,10,11
 23 434 23 434 53.5 506.5 c 128,-1,12
 84 579 84 579 136 623.5 c 128,-1,13
 188 668 188 668 252.5 691 c 128,-1,14
 317 714 317 714 389 714 c 0,15,16
 445 714 445 714 497.5 700.5 c 128,-1,17
 550 687 550 687 597 657.5 c 128,-1,18
 644 628 644 628 679 585 c 128,-1,19
 714 542 714 542 734.5 479.5 c 128,-1,20
 755 417 755 417 755 342 c 0,21,0
 755 251 755 251 724.5 178.5 c 128,-1,1
222 618 m 1,22,-1
 214 613 l 2,23,24
 194 602 194 602 168.5 578.5 c 128,-1,25
 143 555 143 555 123.5 524.5 c 128,-1,26
 104 494 104 494 91 446.5 c 128,-1,27
 78 399 78 399 78 342 c 0,28,29
 78 275 78 275 96 221 c 128,-1,30
 114 167 114 167 142 135 c 0,31,32
 171 102 171 102 199 82 c 0,33,34
 210 74 210 74 222 67 c 1,35,36
 164 162 164 162 164 343 c 128,-1,37
 164 524 164 524 222 618 c 1,22,-1
555 619 m 1,38,39
 614 525 614 525 614 342 c 0,40,41
 614 162 614 162 556 66 c 1,42,-1
 563 71 l 2,43,44
 583 82 583 82 609 106 c 128,-1,45
 635 130 635 130 654.5 160.5 c 128,-1,46
 674 191 674 191 687 238.5 c 128,-1,47
 700 286 700 286 700 343 c 0,48,49
 700 397 700 397 688 443 c 0,50,51
 676 490 676 490 657 520 c 128,-1,52
 638 550 638 550 613.5 574.5 c 128,-1,53
 589 599 589 599 568 612 c 0,54,55
 561 616 561 616 555 619 c 1,38,39
389 26 m 128,-1,57
 432 26 432 26 463.5 47.5 c 128,-1,58
 495 69 495 69 513 101 c 128,-1,59
 531 133 531 133 542 179.5 c 128,-1,60
 553 226 553 226 556 263 c 128,-1,61
 559 300 559 300 559 343 c 0,62,63
 559 384 559 384 556 420.5 c 128,-1,64
 553 457 553 457 542.5 503.5 c 128,-1,65
 532 550 532 550 514 582.5 c 128,-1,66
 496 615 496 615 464 637 c 128,-1,67
 432 659 432 659 389 659 c 128,-1,68
 346 659 346 659 314.5 637.5 c 128,-1,69
 283 616 283 616 265 584 c 128,-1,70
 247 552 247 552 236 505.5 c 128,-1,71
 225 459 225 459 222 422 c 128,-1,72
 219 385 219 385 219 342 c 0,73,74
 219 301 219 301 222 264.5 c 128,-1,75
 225 228 225 228 235.5 181.5 c 128,-1,76
 246 135 246 135 264 102.5 c 128,-1,77
 282 70 282 70 314 48 c 128,-1,56
 346 26 346 26 389 26 c 128,-1,57
EndSplineSet
Validated: 19457
EndChar

StartChar: P
Encoding: 80 80 48
Width: 611
VWidth: 1000
Flags: W
HStem: -10 55<22.1562 81.7446 83 87.8269 140 221 279 340.75> -7 50<6.12207 32 323.312 360.877> 297 56<272 285 287 386.482> 640 55<6.34375 83.9998 140 223 274.625 390.432>
VStem: 89 55<52 634> 217 55<51 52 53.2556 298 353 636.827> 417 55<384.966 613.153> 554 55<425.42 570.922>
LayerCount: 2
Fore
SplineSet
272 92 m 2,0,1
 272 61 272 61 278 53 c 0,2,3
 279 52 l 0,4,-1
 279 51 l 2,5,-1
 280 51 l 1,6,7
 289 45 289 45 323 45 c 0,8,9
 333 45 333 45 341 43 c 0,10,11
 361 37 361 37 361 18 c 128,-1,12
 361 -1 361 -1 347 -6 c 0,13,14
 337 -10 337 -10 318 -10 c 2,15,-1
 50 -10 l 2,16,17
 36 -10 36 -10 32 -9 c 0,18,19
 27 -8 27 -8 22 -7 c 0,20,21
 19 -5 19 -5 15 -2 c 0,22,23
 6 6 6 6 6 18 c 0,24,25
 6 37 6 37 26 43 c 0,26,27
 33 45 33 45 44 45 c 0,28,29
 74 45 74 45 82 51 c 0,30,-1
 83 52 l 0,31,-1
 84 52 l 0,32,33
 89 61 89 61 89 92 c 2,34,-1
 89 593 l 2,35,36
 89 624 89 624 84 633 c 0,37,38
 84 634 84 634 83 634 c 0,39,-1
 82 634 l 0,40,41
 73 640 73 640 43 640 c 0,42,43
 35 640 35 640 28 641 c 0,44,45
 6 646 6 646 6 667 c 0,46,47
 6 686 6 686 20 691 c 0,48,49
 30 695 30 695 50 695 c 2,50,-1
 342 695 l 2,51,52
 394 695 394 695 439 685 c 128,-1,53
 484 675 484 675 523 653 c 0,54,55
 563 631 563 631 586 591 c 128,-1,56
 609 551 609 551 609 497 c 0,57,58
 609 412 609 412 538 354 c 0,59,60
 468 297 468 297 323 297 c 2,61,-1
 287 297 l 1,62,-1
 285 298 l 2,63,-1
 272 298 l 1,64,-1
 272 92 l 2,0,1
449 370 m 1,65,66
 554 405 554 405 554 497 c 0,67,68
 554 592 554 592 451 625 c 1,69,70
 472 579 472 579 472 498 c 128,-1,71
 472 417 472 417 449 370 c 1,65,66
272 596 m 2,72,-1
 272 353 l 1,73,-1
 312 353 l 2,74,75
 338 353 338 353 353.5 357 c 128,-1,76
 369 361 369 361 385 374 c 128,-1,77
 401 387 401 387 409 417.5 c 128,-1,78
 417 448 417 448 417 498 c 0,79,80
 417 585 417 585 395.5 612.5 c 128,-1,81
 374 640 374 640 322 640 c 0,82,83
 303 640 303 640 292 636 c 128,-1,84
 281 632 281 632 277.5 624.5 c 128,-1,85
 274 617 274 617 273 611.5 c 128,-1,86
 272 606 272 606 272 596 c 2,72,-1
140 45 m 1,87,-1
 221 45 l 1,88,89
 217 63 217 63 217 90 c 2,90,-1
 217 599 l 2,91,92
 217 624 217 624 223 640 c 1,93,-1
 140 640 l 1,94,95
 144 622 144 622 144 595 c 2,96,-1
 144 90 l 2,97,98
 144 63 144 63 140 45 c 1,87,-1
EndSplineSet
Validated: 19457
EndChar

StartChar: Q
Encoding: 81 81 49
Width: 777
VWidth: 1000
Flags: W
HStem: -189 55<443.396 537> -158 60<650.843 740.517> -29 55<343.881 442.694> 659 55<314.068 464.17>
VStem: 23 55<209.771 476.063> 164 55<158.753 524.177> 559 55<160.9 524.861> 700 55<209.286 476.353>
LayerCount: 2
Fore
SplineSet
551 -79 m 128,-1,1
 590 -107 590 -107 650 -107 c 0,2,3
 677 -107 677 -107 702 -100 c 0,4,5
 711 -98 711 -98 715 -98 c 0,6,7
 742 -98 742 -98 742 -126 c 0,8,9
 742 -139 742 -139 733.5 -145.5 c 128,-1,10
 725 -152 725 -152 708 -158 c 0,11,12
 628 -189 628 -189 547 -189 c 0,13,14
 453 -189 453 -189 380.5 -140 c 128,-1,15
 308 -91 308 -91 272 -12 c 1,16,17
 226 0 226 0 184.5 25.5 c 128,-1,18
 143 51 143 51 105 93.5 c 128,-1,19
 67 136 67 136 45 200 c 128,-1,20
 23 264 23 264 23 343 c 0,21,22
 23 434 23 434 53.5 506.5 c 128,-1,23
 84 579 84 579 136 623.5 c 128,-1,24
 188 668 188 668 252.5 691 c 128,-1,25
 317 714 317 714 389 714 c 0,26,27
 445 714 445 714 497.5 700.5 c 128,-1,28
 550 687 550 687 597 657.5 c 128,-1,29
 644 628 644 628 679 585 c 128,-1,30
 714 542 714 542 734.5 479.5 c 128,-1,31
 755 417 755 417 755 342 c 0,32,33
 755 190 755 190 679 100.5 c 128,-1,34
 603 11 603 11 493 -16 c 1,35,0
 512 -51 512 -51 551 -79 c 128,-1,1
222 618 m 1,36,-1
 214 613 l 2,37,38
 194 602 194 602 168.5 578.5 c 128,-1,39
 143 555 143 555 123.5 524.5 c 128,-1,40
 104 494 104 494 91 446.5 c 128,-1,41
 78 399 78 399 78 342 c 0,42,43
 78 275 78 275 96 221 c 128,-1,44
 114 167 114 167 142 135 c 0,45,46
 171 102 171 102 199 82 c 0,47,48
 210 74 210 74 222 67 c 1,49,50
 164 162 164 162 164 343 c 128,-1,51
 164 524 164 524 222 618 c 1,36,-1
555 619 m 1,52,53
 614 525 614 525 614 342 c 0,54,55
 614 162 614 162 556 66 c 1,56,-1
 563 71 l 2,57,58
 583 82 583 82 609 106 c 128,-1,59
 635 130 635 130 654.5 160.5 c 128,-1,60
 674 191 674 191 687 238.5 c 128,-1,61
 700 286 700 286 700 343 c 0,62,63
 700 397 700 397 688 443 c 0,64,65
 676 490 676 490 657 520 c 128,-1,66
 638 550 638 550 613.5 574.5 c 128,-1,67
 589 599 589 599 568 612 c 0,68,69
 561 616 561 616 555 619 c 1,52,53
389 26 m 128,-1,71
 432 26 432 26 463.5 47.5 c 128,-1,72
 495 69 495 69 513 101 c 128,-1,73
 531 133 531 133 542 179.5 c 128,-1,74
 553 226 553 226 556 263 c 128,-1,75
 559 300 559 300 559 343 c 0,76,77
 559 384 559 384 556 420.5 c 128,-1,78
 553 457 553 457 542.5 503.5 c 128,-1,79
 532 550 532 550 514 582.5 c 128,-1,80
 496 615 496 615 464 637 c 128,-1,81
 432 659 432 659 389 659 c 128,-1,82
 346 659 346 659 314.5 637.5 c 128,-1,83
 283 616 283 616 265 584 c 128,-1,84
 247 552 247 552 236 505.5 c 128,-1,85
 225 459 225 459 222 422 c 128,-1,86
 219 385 219 385 219 342 c 0,87,88
 219 301 219 301 222 264.5 c 128,-1,89
 225 228 225 228 235.5 181.5 c 128,-1,90
 246 135 246 135 264 102.5 c 128,-1,91
 282 70 282 70 314 48 c 128,-1,70
 346 26 346 26 389 26 c 128,-1,71
343 -27 m 1,92,93
 376 -76 376 -76 425 -103 c 0,94,95
 478 -132 478 -132 537 -134 c 1,96,97
 470 -98 470 -98 437 -27 c 1,98,99
 412 -29 412 -29 389 -29 c 0,100,101
 364 -29 364 -29 343 -27 c 1,92,93
EndSplineSet
Validated: 19457
EndChar

StartChar: R
Encoding: 82 82 50
Width: 722
VWidth: 1000
Flags: W
HStem: -10 55<6.5625 88.4843 146 227 284.031 354.623 530 599 655.881 712.641> 304 55<278 299 362 410.158> 640 55<6.34375 87.9998 146 229 280.75 409.913>
VStem: 95 55<51.5157 631.744 632.031 634> 223 55<51.0001 52.9689 53.2556 304 359 636.484> 447 55<391.534 602.605> 584 55<423.664 568.552>
LayerCount: 2
Fore
SplineSet
278 92 m 2,0,1
 278 61 278 61 284 53 c 0,2,3
 285 52 285 52 285 51.5 c 128,-1,4
 285 51 285 51 286 51 c 0,5,6
 295 45 295 45 329 45 c 0,7,8
 339 45 339 45 347 42 c 0,9,10
 367 36 367 36 367 17.5 c 128,-1,11
 367 -1 367 -1 355 -5.5 c 128,-1,12
 343 -10 343 -10 324 -10 c 2,13,-1
 50 -10 l 2,14,15
 36 -10 36 -10 31 -9.5 c 128,-1,16
 26 -9 26 -9 22 -7 c 0,17,18
 19 -5 19 -5 12.5 0.5 c 128,-1,19
 6 6 6 6 6 18 c 0,20,21
 7 39 7 39 28 44 c 0,22,23
 34 45 34 45 43 45 c 0,24,25
 78 45 78 45 87 51 c 0,26,27
 88 51 88 51 88.5 51.5 c 128,-1,28
 89 52 89 52 89 53 c 0,29,30
 95 62 95 62 95 92 c 2,31,-1
 95 593 l 2,32,33
 95 624 95 624 89 632 c 0,34,35
 88 633 88 633 88 633.5 c 128,-1,36
 88 634 88 634 87 634 c 0,37,38
 78 640 78 640 43 640 c 0,39,40
 35 640 35 640 28 641 c 0,41,42
 6 646 6 646 6 667 c 0,43,44
 6 686 6 686 18 690.5 c 128,-1,45
 30 695 30 695 50 695 c 2,46,-1
 364 695 l 2,47,48
 412 695 412 695 457.5 684.5 c 128,-1,49
 503 674 503 674 545 652.5 c 128,-1,50
 587 631 587 631 613 591 c 128,-1,51
 639 551 639 551 639 498 c 0,52,53
 639 412 639 412 590.5 372.5 c 128,-1,54
 542 333 542 333 470 318 c 1,55,56
 508 258 508 258 586 147 c 1,57,58
 658 52 658 52 690 45 c 0,59,60
 713 40 713 40 713 18 c 0,61,62
 713 -1 713 -1 701 -5.5 c 128,-1,63
 689 -10 689 -10 670 -10 c 2,64,-1
 532 -10 l 2,65,66
 513 -10 513 -10 505 -7.5 c 128,-1,67
 497 -5 497 -5 490 7 c 2,68,-1
 446 77 l 1,69,-1
 299 304 l 1,70,-1
 278 304 l 1,71,-1
 278 92 l 2,0,1
481 378 m 1,72,73
 533 391 533 391 558.5 420 c 128,-1,74
 584 449 584 449 584 498 c 0,75,76
 584 530 584 530 570 555.5 c 128,-1,77
 556 581 556 581 533 595.5 c 128,-1,78
 510 610 510 610 497 615 c 128,-1,79
 484 620 484 620 477 622 c 1,80,81
 502 574 502 574 502 497.5 c 128,-1,82
 502 421 502 421 481 378 c 1,72,73
278 596 m 2,83,-1
 278 359 l 1,84,85
 386 360 386 360 416.5 383 c 128,-1,86
 447 406 447 406 447 497 c 0,87,88
 447 579 447 579 419.5 609.5 c 128,-1,89
 392 640 392 640 330 640 c 0,90,91
 310 640 310 640 299 636 c 128,-1,92
 288 632 288 632 284 624.5 c 128,-1,93
 280 617 280 617 279 611.5 c 128,-1,94
 278 606 278 606 278 596 c 2,83,-1
146 45 m 1,95,-1
 227 45 l 1,96,97
 223 63 223 63 223 90 c 2,98,-1
 223 599 l 2,99,100
 223 624 223 624 229 640 c 1,101,-1
 146 640 l 1,102,103
 150 622 150 622 150 595 c 2,104,-1
 150 90 l 2,105,106
 150 63 150 63 146 45 c 1,95,-1
362 306 m 2,107,-1
 530 45 l 1,108,-1
 599 45 l 1,109,110
 528 124 528 124 411 309 c 1,111,112
 384 306 384 306 364 306 c 0,113,114
 363 306 363 306 362 306 c 2,107,-1
EndSplineSet
Validated: 19457
EndChar

StartChar: S
Encoding: 83 83 51
Width: 555
VWidth: 1000
Flags: W
HStem: -22 55<188.414 354.293> 659 55<189.04 331.051>
VStem: 19 55<432.669 592.12> 27 55<56 76 142.248 249.617> 103 55<518.725 608.64> 384 55<83.8097 197.298> 437 55<476.396 558.8 619 635 687.498 704> 485 55<114.377 272.482>
LayerCount: 2
Fore
SplineSet
82 76 m 1,0,-1
 82 56 l 1,1,2
 89 58 89 58 96 59 c 1,3,4
 91 65 91 65 86 71 c 2,5,-1
 82 76 l 1,0,-1
58.5 393.5 m 128,-1,7
 19 444 19 444 19 504 c 0,8,9
 19 606 19 606 83 660 c 128,-1,10
 147 714 147 714 256 714 c 0,11,12
 298 714 298 714 344 697 c 0,13,14
 376 686 376 686 401 686 c 0,15,16
 425 686 425 686 442 703 c 2,17,-1
 442 704 l 1,18,-1
 443 704 l 2,19,20
 456 713 456 713 463 714 c 0,21,-1
 465 714 l 0,22,23
 483 713 483 713 489 694 c 0,24,25
 492 685 492 685 492 671 c 2,26,-1
 492 519 l 2,27,28
 492 504 492 504 489 496 c 0,29,30
 483 476 483 476 465 476 c 0,31,32
 454 476 454 476 449.5 480.5 c 128,-1,33
 445 485 445 485 443 488 c 0,34,35
 442 489 442 489 441.5 489.5 c 128,-1,36
 441 490 441 490 441 491 c 128,-1,37
 441 492 441 492 439.5 495 c 128,-1,38
 438 498 438 498 436 508 c 0,39,40
 423 567 423 567 366 613 c 128,-1,41
 309 659 309 659 258 659 c 0,42,43
 211 659 211 659 184.5 632.5 c 128,-1,44
 158 606 158 606 158 567 c 0,45,46
 158 550 158 550 169.5 533 c 128,-1,47
 181 516 181 516 194.5 504 c 128,-1,48
 208 492 208 492 237.5 476.5 c 128,-1,49
 267 461 267 461 287.5 452.5 c 128,-1,50
 308 444 308 444 340 431 c 0,51,52
 444 391 444 391 492 327.5 c 128,-1,53
 540 264 540 264 540 192 c 0,54,55
 540 92 540 92 459.5 35 c 128,-1,56
 379 -22 379 -22 263 -22 c 0,57,58
 216 -22 216 -22 173 -6 c 1,59,60
 146 6 146 6 118 6 c 0,61,62
 93 6 93 6 77 -10 c 0,63,64
 72 -15 72 -15 70 -16 c 0,65,66
 62 -22 62 -22 55 -22 c 0,67,68
 36 -22 36 -22 31.5 -10 c 128,-1,69
 27 2 27 2 27 21 c 2,70,-1
 27 207 l 2,71,72
 27 220 27 220 27.5 225 c 128,-1,73
 28 230 28 230 30 234 c 0,74,75
 32 237 32 237 37 243.5 c 128,-1,76
 42 250 42 250 55 250 c 0,77,78
 66 250 66 250 74 242 c 128,-1,79
 82 234 82 234 82 223 c 0,80,81
 82 154 82 154 140 94 c 0,82,83
 199 33 199 33 264 33 c 0,84,85
 331 33 331 33 357.5 58 c 128,-1,86
 384 83 384 83 384 135 c 0,87,88
 384 158 384 158 372 180.5 c 128,-1,89
 360 203 360 203 345.5 217.5 c 128,-1,90
 331 232 331 232 301.5 249.5 c 128,-1,91
 272 267 272 267 264 271 c 2,92,-1
 206 297 l 1,93,6
 98 343 98 343 58.5 393.5 c 128,-1,7
437 619 m 1,94,-1
 437 635 l 1,95,96
 432 634 432 634 425 633 c 1,97,-1
 437 619 l 1,94,-1
433 83 m 1,98,99
 485 122 485 122 485 192 c 0,100,101
 485 256 485 256 433 312 c 0,102,103
 399 348 399 348 309 385 c 0,104,105
 267 402 267 402 238 415 c 0,106,107
 210 428 210 428 176 451 c 0,108,109
 140 474 140 474 122 503 c 0,110,111
 103 532 103 532 103 567 c 0,112,113
 103 589 103 589 109 609 c 1,114,115
 74 572 74 572 74 504 c 0,116,117
 74 472 74 472 87 447.5 c 128,-1,118
 100 423 100 423 127 403 c 0,119,120
 156 382 156 382 181 369 c 0,121,122
 208 356 208 356 251 337 c 0,123,124
 287 322 287 322 314 307 c 0,125,126
 342 292 342 292 372 267 c 0,127,128
 404 242 404 242 421 209 c 0,129,130
 439 175 439 175 439 135 c 0,131,132
 439 106 439 106 433 83 c 1,98,99
EndSplineSet
Validated: 19457
EndChar

StartChar: T
Encoding: 84 84 52
Width: 666
VWidth: 1000
Flags: W
HStem: -10 55<145.396 233.68 292 375 433.32 521.646> 640 55<78 96 297 370 425 505.847 571 590>
VStem: 23 55<470.376 565.533 624 640> 242 55<53.2866 638> 370 55<53.2559 638> 590 55<470.617 563.479 623 640>
LayerCount: 2
Fore
SplineSet
425 93 m 2,0,1
 425 61 425 61 431 53 c 0,2,3
 432 52 l 0,4,-1
 433 51 l 0,5,6
 443 45 443 45 484 45 c 0,7,8
 494 45 494 45 502 43 c 0,9,10
 522 37 522 37 522 18 c 128,-1,11
 522 -1 522 -1 510 -5.5 c 128,-1,12
 498 -10 498 -10 479 -10 c 2,13,-1
 189 -10 l 2,14,15
 175 -10 175 -10 170 -9.5 c 128,-1,16
 165 -9 165 -9 161 -7 c 0,17,18
 158 -5 158 -5 151.5 0 c 128,-1,19
 145 5 145 5 145 18 c 0,20,21
 145 37 145 37 165 42 c 0,22,23
 173 44 173 44 185 45 c 0,24,25
 224 45 224 45 234 51 c 0,26,-1
 235 52 l 2,27,-1
 236 53 l 0,28,29
 242 62 242 62 242 93 c 2,30,-1
 242 638 l 1,31,32
 173 631 173 631 126.5 593.5 c 128,-1,33
 80 556 80 556 78 500 c 0,34,35
 77 470 77 470 50 470 c 0,36,37
 32 470 32 470 26 489 c 0,38,39
 23 498 23 498 23 512 c 2,40,-1
 23 653 l 2,41,42
 23 676 23 676 28 684 c 0,43,44
 29 686 29 686 34 690.5 c 128,-1,45
 39 695 39 695 66 695 c 2,46,-1
 601 695 l 2,47,48
 620 695 620 695 628 692 c 0,49,50
 633 690 633 690 635 689 c 2,51,-1
 639 684 l 1,52,53
 645 675 645 675 645 649 c 2,54,-1
 645 516 l 2,55,56
 645 504 645 504 644.5 496 c 128,-1,57
 644 488 644 488 636.5 478.5 c 128,-1,58
 629 469 629 469 617 470 c 0,59,60
 599 471 599 471 593 489 c 0,61,62
 590 496 590 496 589 509 c 0,63,64
 586 551 586 551 544 591.5 c 128,-1,65
 502 632 502 632 425 638 c 1,66,-1
 425 93 l 2,0,1
78 640 m 1,67,-1
 78 624 l 1,68,69
 87 633 87 633 96 640 c 1,70,-1
 78 640 l 1,67,-1
590 640 m 1,71,-1
 571 640 l 1,72,73
 581 632 581 632 590 623 c 1,74,-1
 590 640 l 1,71,-1
292 45 m 1,75,-1
 375 45 l 1,76,77
 370 63 370 63 370 91 c 2,78,-1
 370 640 l 1,79,-1
 297 640 l 1,80,-1
 297 91 l 2,81,82
 297 63 297 63 292 45 c 1,75,-1
EndSplineSet
Validated: 19457
EndChar

StartChar: U
Encoding: 85 85 53
Width: 722
VWidth: 1000
Flags: W
HStem: -29 62<272.51 484.774> 634 61<271.609 318.913> 640 55<6.35938 78.8362 140 218 271.609 360.5 596 602 652.719 717.5>
VStem: 89 55<118.696 630.81> 213 55<86.5781 629.868> 568 62<127.486 616.648>
LayerCount: 2
Fore
SplineSet
675 695 m 2,0,1
 687 695 687 695 694.5 694.5 c 128,-1,2
 702 694 702 694 710 686.5 c 128,-1,3
 718 679 718 679 718 667 c 0,4,5
 718 648 718 648 698 642 c 0,6,7
 693 641 693 641 687 640 c 0,8,9
 672 638 672 638 660.5 626.5 c 128,-1,10
 649 615 649 615 643.5 601 c 128,-1,11
 638 587 638 587 634.5 561.5 c 128,-1,12
 631 536 631 536 630.5 521 c 128,-1,13
 630 506 630 506 630 480 c 2,14,-1
 630 275 l 2,15,16
 630 250 630 250 629.5 233.5 c 128,-1,17
 629 217 629 217 624 182 c 128,-1,18
 619 147 619 147 609.5 122.5 c 128,-1,19
 600 98 600 98 579.5 67.5 c 128,-1,20
 559 37 559 37 531 17.5 c 128,-1,21
 503 -2 503 -2 459 -15.5 c 128,-1,22
 415 -29 415 -29 360 -29 c 0,23,24
 237 -29 237 -29 166 31 c 0,25,26
 138 55 138 55 121.5 83.5 c 128,-1,27
 105 112 105 112 98.5 144 c 128,-1,28
 92 176 92 176 90.5 194.5 c 128,-1,29
 89 213 89 213 89 239 c 2,30,-1
 89 608 l 2,31,32
 89 625 89 625 85 631 c 0,33,34
 84 633 84 633 79 636 c 128,-1,35
 74 639 74 639 38 640 c 0,36,37
 32 640 32 640 29 641 c 0,38,39
 6 645 6 645 6 667 c 0,40,41
 6 686 6 686 18 690.5 c 128,-1,42
 30 695 30 695 50 695 c 2,43,-1
 318 695 l 2,44,45
 330 695 330 695 337.5 694.5 c 128,-1,46
 345 694 345 694 353 686.5 c 128,-1,47
 361 679 361 679 361 667 c 0,48,49
 361 648 361 648 341 642 c 0,50,51
 333 640 333 640 320 640 c 0,52,53
 285 640 285 640 276 634 c 0,54,55
 275 634 275 634 271.5 630 c 128,-1,56
 268 626 268 626 268 593 c 2,57,-1
 268 218 l 2,58,59
 268 157 268 157 278.5 118 c 128,-1,60
 289 79 289 79 307.5 62 c 128,-1,61
 326 45 326 45 345 39 c 128,-1,62
 364 33 364 33 390 33 c 0,63,64
 486 33 486 33 527 93 c 128,-1,65
 568 153 568 153 568 250 c 2,66,-1
 568 515 l 2,67,68
 568 567 568 567 553.5 602 c 128,-1,69
 539 637 539 637 514 640 c 0,70,71
 504 641 504 641 500 643 c 0,72,73
 480 649 480 649 480 667 c 0,74,75
 480 686 480 686 492 690.5 c 128,-1,76
 504 695 504 695 524 695 c 2,77,-1
 675 695 l 2,0,1
602 640 m 1,78,-1
 596 640 l 1,79,-1
 599 635 l 1,80,-1
 602 640 l 1,78,-1
213 216 m 2,81,-1
 213 595 l 2,82,83
 213 623 213 623 218 640 c 1,84,-1
 140 640 l 1,85,-1
 143 627 l 1,86,-1
 143 626 l 1,87,88
 144 613 144 613 144 552 c 2,89,-1
 144 273 l 2,90,91
 144 210 144 210 145 199 c 0,92,93
 155 80 155 80 252 44 c 1,94,95
 213 104 213 104 213 216 c 2,81,-1
EndSplineSet
Validated: 19457
EndChar

StartChar: V
Encoding: 86 86 54
Width: 722
VWidth: 1000
Flags: W
HStem: 640 55<105 207 260.062 330.75 483.391 525.905 588 607 659.202 721.75>
VStem: 204 56<537.584 618> 540 190<560.5 673.5>
LayerCount: 2
Fore
SplineSet
397 -2 m 2,0,1
 391 -17 391 -17 387 -22 c 0,2,3
 380 -30 380 -30 368 -29 c 0,4,5
 358 -29 358 -29 350 -21 c 0,6,7
 344 -15 344 -15 338 -2 c 2,8,-1
 69 591 l 1,9,-1
 67 595 l 1,10,-1
 61 605 l 2,11,12
 58 610 58 610 54 616 c 0,13,14
 49 623 49 623 43 627 c 0,15,16
 38 632 38 632 32 636 c 0,17,18
 27 639 27 639 21 640 c 0,19,20
 14 641 14 641 9 643 c 0,21,22
 -9 650 -9 650 -9 667 c 0,23,24
 -9 686 -9 686 5 691 c 0,25,26
 15 695 15 695 34 695 c 2,27,-1
 296 695 l 2,28,29
 308 695 308 695 314 694 c 0,30,31
 323 693 323 693 331 687 c 0,32,33
 339 680 339 680 339 667 c 0,34,35
 339 642 339 642 311 640 c 0,36,37
 296 639 296 639 283 633 c 128,-1,38
 270 627 270 627 264 622 c 0,39,40
 261 619 261 619 260 618 c 0,41,42
 261 578 261 578 326 424 c 0,43,44
 384 286 384 286 420 210 c 1,45,46
 481 364 481 364 492 393 c 0,47,48
 540 529 540 529 540 592 c 0,49,50
 540 614 540 614 534 625 c 0,51,52
 531 632 531 632 528 635 c 0,53,54
 527 636 527 636 526 637 c 0,55,56
 523 639 523 639 513 640 c 0,57,58
 506 641 506 641 499 644 c 0,59,60
 483 651 483 651 483 667 c 0,61,62
 483 686 483 686 497 691 c 0,63,64
 507 695 507 695 526 695 c 2,65,-1
 687 695 l 2,66,67
 699 695 699 695 705 694 c 0,68,69
 714 693 714 693 722 687 c 0,70,71
 730 680 730 680 730 667 c 0,72,73
 730 640 730 640 699 640 c 1,74,75
 663 637 663 637 646 595 c 2,76,-1
 397 -2 l 2,0,1
607 640 m 1,77,-1
 588 640 l 1,78,79
 592 628 592 628 594 613 c 1,80,81
 599 627 599 627 607 640 c 1,77,-1
123 605 m 2,82,-1
 367 67 l 1,83,-1
 394 133 l 1,84,85
 204 552 204 552 204 620 c 0,86,87
 204 631 204 631 207 640 c 1,88,-1
 105 640 l 1,89,90
 113 627 113 627 123 605 c 2,82,-1
EndSplineSet
Validated: 19457
EndChar

StartChar: W
Encoding: 87 87 55
Width: 1000
VWidth: 1000
Flags: W
HStem: 640 55<100 188 373.375 431.625 483 579 632.44 692.75 774.391 833.32 882 901 959.22 993.75>
VStem: 186 55<523.018 638.778>
LayerCount: 2
Fore
SplineSet
729 1 m 2,0,1
 725 -14 725 -14 720 -20 c 0,2,3
 713 -29 713 -29 700 -29 c 128,-1,4
 687 -29 687 -29 680 -20 c 0,5,6
 675 -14 675 -14 670 2 c 2,7,-1
 512 417 l 1,8,-1
 329 -3 l 2,9,10
 323 -16 323 -16 319 -22 c 0,11,12
 313 -29 313 -29 300 -29 c 128,-1,13
 287 -29 287 -29 280 -20 c 0,14,15
 275 -14 275 -14 271 1 c 2,16,-1
 57 602 l 2,17,18
 44 637 44 637 25 640 c 0,19,20
 19 641 19 641 14 644 c 0,21,22
 -2 651 -2 651 -2 667 c 0,23,24
 -2 686 -2 686 12 691 c 0,25,26
 22 695 22 695 41 695 c 2,27,-1
 253 695 l 2,28,29
 267 695 267 695 271 694 c 0,30,31
 276 693 276 693 281 692 c 0,32,33
 284 690 284 690 288 687 c 0,34,35
 297 679 297 679 297 667 c 0,36,37
 297 642 297 642 269 640 c 0,38,39
 260 639 260 639 249 632 c 0,40,41
 245 629 245 629 243 627 c 128,-1,42
 241 625 241 625 241 624 c 0,43,44
 241 582 241 582 302 400 c 1,45,-1
 365 220 l 1,46,-1
 483 492 l 1,47,48
 464 546 464 546 447 588 c 0,49,50
 436 613 436 613 427 624 c 128,-1,51
 418 635 418 635 414 636 c 0,52,53
 409 638 409 638 397 640 c 0,54,55
 373 644 373 644 373 667 c 0,56,57
 373 686 373 686 388 691 c 0,58,59
 398 695 398 695 417 695 c 2,60,-1
 658 695 l 2,61,62
 670 695 670 695 676 694 c 0,63,64
 685 693 685 693 693 687 c 0,65,66
 701 680 701 680 701 667 c 0,67,68
 701 640 701 640 670 640 c 1,69,70
 646 638 646 638 632 623 c 1,71,72
 636 569 636 569 687 421 c 0,73,74
 729 300 729 300 752 245 c 1,75,-1
 792 364 l 2,76,77
 808 413 808 413 822 476 c 0,78,79
 837 539 837 539 837 578 c 0,80,81
 837 601 837 601 834 615 c 0,82,83
 831 627 831 627 826 631 c 0,84,85
 819 636 819 636 814 638 c 0,86,87
 811 639 811 639 799 640 c 0,88,89
 774 643 774 643 774 667 c 0,90,91
 774 686 774 686 788 691 c 0,92,93
 798 695 798 695 817 695 c 2,94,-1
 959 695 l 2,95,96
 971 695 971 695 977 694 c 0,97,98
 986 693 986 693 994 687 c 0,99,100
 1002 680 1002 680 1002 667 c 0,101,102
 1002 644 1002 644 977 640 c 0,103,104
 966 638 966 638 959 631 c 0,105,106
 951 622 951 622 943 600 c 2,107,-1
 729 1 l 2,0,1
901 640 m 1,108,-1
 882 640 l 1,109,110
 886 627 886 627 889 610 c 1,111,-1
 901 640 l 1,108,-1
500 605 m 2,112,-1
 699 79 l 1,113,-1
 727 157 l 1,114,-1
 689 257 l 2,115,116
 651 357 651 357 614 470 c 128,-1,117
 577 583 577 583 577 620 c 0,118,119
 577 632 577 632 579 640 c 1,120,-1
 483 640 l 1,121,122
 491 625 491 625 500 605 c 2,112,-1
113 607 m 1,123,-1
 303 74 l 1,124,-1
 333 144 l 1,125,126
 186 548 186 548 186 625 c 0,127,128
 186 633 186 633 188 640 c 1,129,-1
 100 640 l 1,130,131
 108 624 108 624 113 607 c 1,123,-1
EndSplineSet
Validated: 19457
EndChar

StartChar: X
Encoding: 88 88 56
Width: 722
VWidth: 1000
Flags: W
HStem: -10 55<9.66833 78.2209 136 161 362.547 447.403 506 606 670.22 691> 640 55<13.3594 62.3243 130 232.153 286.47 355.438 416.344 444 519 540 605.319 701.436>
LayerCount: 2
Fore
SplineSet
659 695 m 2,0,1
 671 695 671 695 678.5 694.5 c 128,-1,2
 686 694 686 694 694 686.5 c 128,-1,3
 702 679 702 679 702 667 c 0,4,5
 701 648 701 648 681 642 c 0,6,7
 676 641 676 641 669 640 c 0,8,9
 634 637 634 637 600 614.5 c 128,-1,10
 566 592 566 592 545.5 570 c 128,-1,11
 525 548 525 548 493 505 c 2,12,-1
 443 440 l 1,13,-1
 437 432 l 1,14,-1
 426 418 l 1,15,-1
 421 411 l 1,16,-1
 553 216 l 2,17,18
 650 71 650 71 670 52 c 1,19,20
 677 47 677 47 691 45 c 1,21,22
 697 43 l 1,23,24
 715 36 715 36 715 18 c 0,25,26
 715 -1 715 -1 703 -5.5 c 128,-1,27
 691 -10 691 -10 672 -10 c 2,28,-1
 405 -10 l 2,29,30
 393 -10 393 -10 385.5 -9.5 c 128,-1,31
 378 -9 378 -9 370 -1.5 c 128,-1,32
 362 6 362 6 362 18 c 0,33,34
 363 38 363 38 383 43 c 0,35,36
 389 45 389 45 398 45 c 0,37,38
 429 45 429 45 448 53 c 1,39,40
 426 106 426 106 332 250 c 1,41,42
 261 171 261 171 228 132 c 1,43,44
 208 106 208 106 208 85 c 2,45,-1
 208 82 l 2,46,47
 208 79 208 79 209.5 72 c 128,-1,48
 211 65 211 65 214 60 c 128,-1,49
 217 55 217 55 223 50.5 c 128,-1,50
 229 46 229 46 237 45 c 0,51,52
 246 43 246 43 250 42 c 0,53,54
 267 35 267 35 267 18 c 0,55,56
 267 -1 267 -1 254.5 -5.5 c 128,-1,57
 242 -10 242 -10 223 -10 c 2,58,-1
 52 -10 l 2,59,60
 40 -10 40 -10 32.5 -9.5 c 128,-1,61
 25 -9 25 -9 16.5 -1.5 c 128,-1,62
 8 6 8 6 9 18 c 0,63,64
 10 34 10 34 25 41 c 0,65,66
 30 43 30 43 38 45 c 0,67,68
 54 48 54 48 79 68 c 128,-1,69
 104 88 104 88 125 110 c 128,-1,70
 146 132 146 132 192 185 c 2,71,-1
 296 303 l 1,72,73
 159 515 159 515 81 613 c 0,74,75
 68 630 68 630 62.5 633.5 c 128,-1,76
 57 637 57 637 36 640 c 0,77,78
 13 644 13 644 13 667 c 0,79,80
 13 686 13 686 25 690.5 c 128,-1,81
 37 695 37 695 56 695 c 2,82,-1
 313 695 l 2,83,84
 325 695 325 695 332.5 694.5 c 128,-1,85
 340 694 340 694 348 686.5 c 128,-1,86
 356 679 356 679 356 667 c 0,87,88
 355 646 355 646 334 641 c 0,89,90
 329 640 329 640 322 640 c 0,91,92
 301 640 301 640 286 634 c 1,93,94
 305 590 305 590 385 466 c 1,95,96
 397 481 397 481 432 528 c 0,97,98
 436 533 436 533 444.5 544.5 c 128,-1,99
 453 556 453 556 457 562 c 128,-1,100
 461 568 461 568 465.5 579 c 128,-1,101
 470 590 470 590 470 602 c 0,102,103
 470 637 470 637 444 640 c 0,104,105
 438 641 l 0,106,107
 416 646 416 646 416 667 c 0,108,109
 416 686 416 686 428 690.5 c 128,-1,110
 440 695 440 695 459 695 c 2,111,-1
 659 695 l 2,0,1
540 640 m 1,112,-1
 519 640 l 1,113,114
 522 633 522 633 523 624 c 1,115,-1
 540 640 l 1,112,-1
155 63 m 1,116,-1
 136 45 l 1,117,-1
 161 45 l 1,118,119
 157 52 157 52 155 63 c 1,116,-1
227 640 m 1,120,-1
 130 640 l 1,121,122
 184 570 184 570 236 492 c 1,123,-1
 453 161 l 1,124,125
 506 71 506 71 506 46 c 0,126,-1
 506 45 l 2,127,-1
 606 45 l 1,128,129
 558 108 558 108 508 182 c 1,130,-1
 291 511 l 1,131,132
 262 559 262 559 247 587.5 c 128,-1,133
 232 616 232 616 230 624 c 128,-1,134
 228 632 228 632 227 640 c 1,120,-1
EndSplineSet
Validated: 19457
EndChar

StartChar: Y
Encoding: 89 89 57
Width: 722
VWidth: 1000
Flags: W
HStem: -10 64<193.156 268.563> -10 55<177.547 261.711 318 405 462.257 531.685> 640 55<24.3147 68.3594 120 215.25 266.281 308.75 594 604 656.755 704.75>
VStem: 270 55<54.0002 260> 398 55<54.3201 287>
LayerCount: 2
Fore
SplineSet
542 548 m 2,0,1
 554 567 554 567 554 584 c 0,2,3
 554 592 554 592 550 603 c 0,4,5
 547 613 547 613 535 626 c 0,6,7
 524 637 524 637 504 640 c 0,8,9
 496 641 496 641 490 643 c 0,10,11
 473 650 473 650 473 667 c 0,12,13
 473 686 473 686 488 691 c 0,14,15
 498 695 498 695 517 695 c 2,16,-1
 670 695 l 2,17,18
 682 695 682 695 688 694 c 0,19,20
 697 693 697 693 705 687 c 0,21,22
 714 679 714 679 713 667 c 0,23,24
 712 647 712 647 691 641 c 0,25,26
 689 641 l 0,27,28
 687 641 687 641 686 640 c 0,29,30
 678 638 678 638 667 628 c 0,31,32
 655 618 655 618 640 596 c 0,33,34
 624 573 624 573 613 558 c 2,35,-1
 581 509 l 1,36,-1
 453 301 l 1,37,-1
 453 105 l 2,38,39
 453 64 453 64 462 54 c 0,40,41
 470 45 470 45 506 45 c 0,42,43
 518 45 518 45 526 42 c 0,44,45
 546 36 546 36 546 18 c 0,46,47
 546 -1 546 -1 532 -6 c 0,48,49
 522 -10 522 -10 503 -10 c 2,50,-1
 221 -10 l 2,51,52
 207 -10 207 -10 203 -9 c 0,53,54
 198 -8 198 -8 193 -7 c 0,55,56
 190 -5 190 -5 186 -2 c 0,57,58
 176 6 176 6 177 18 c 0,59,60
 178 38 178 38 198 43 c 0,61,62
 203 44 203 44 213 45 c 0,63,64
 253 46 253 46 262 54 c 0,65,66
 263 54 263 54 263 55 c 2,67,-1
 263 56 l 2,68,69
 270 67 270 67 270 105 c 2,70,-1
 270 260 l 1,71,-1
 71 613 l 2,72,73
 60 633 60 633 56 637 c 0,74,-1
 55 637 l 0,75,76
 51 639 51 639 42 640 c 0,77,78
 35 640 35 640 33 641 c 0,79,80
 9 645 9 645 9 667 c 0,81,82
 9 686 9 686 24 691 c 0,83,84
 34 695 34 695 53 695 c 2,85,-1
 274 695 l 2,86,87
 286 695 286 695 292 694 c 0,88,89
 301 693 301 693 309 687 c 0,90,91
 318 679 318 679 317 667 c 0,92,93
 316 645 316 645 294 641 c 0,94,95
 289 640 289 640 282 640 c 128,-1,96
 275 640 275 640 266 638 c 1,97,98
 269 628 269 628 276 617 c 0,99,100
 290 592 290 592 296 582 c 2,101,-1
 422 355 l 1,102,-1
 542 548 l 2,0,1
604 640 m 1,103,-1
 594 640 l 1,104,105
 596 636 596 636 598 633 c 1,106,-1
 604 640 l 1,103,-1
318 45 m 1,107,-1
 405 45 l 1,108,109
 398 68 398 68 398 103 c 2,110,-1
 398 287 l 1,111,-1
 265 522 l 1,112,-1
 246 555 l 2,113,114
 230 582 230 582 227 590 c 0,115,116
 212 620 212 620 210 640 c 1,117,-1
 120 640 l 1,118,-1
 325 275 l 1,119,-1
 325 103 l 2,120,121
 325 68 325 68 318 45 c 1,107,-1
EndSplineSet
Validated: 19457
EndChar

StartChar: Z
Encoding: 90 90 58
Width: 666
VWidth: 1000
Flags: W
HStem: -10 55<95 173 238 470.732 539 566> 640 55<122 134 206.461 395 460 538>
VStem: 594 52<171.7 252.541>
LayerCount: 2
Fore
SplineSet
238 45 m 1,0,-1
 362 45 l 2,1,2
 456 45 456 45 516 97 c 128,-1,3
 576 149 576 149 589 215 c 0,4,5
 593 233 593 233 594 236.5 c 128,-1,6
 595 240 595 240 601.5 246.5 c 128,-1,7
 608 253 608 253 619 253 c 0,8,9
 629 253 629 253 637.5 245 c 128,-1,10
 646 237 646 237 646 225 c 2,11,-1
 646 224 l 1,12,-1
 619 27 l 2,13,14
 616 7 616 7 611 -0 c 0,15,16
 610 -2 610 -2 609 -3 c 2,17,-1
 604 -6 l 1,18,19
 596 -10 596 -10 575 -10 c 2,20,-1
 62 -10 l 2,21,22
 48 -10 48 -10 43 -9.5 c 128,-1,23
 38 -9 38 -9 34 -7 c 0,24,25
 31 -5 31 -5 24.5 0 c 128,-1,26
 18 5 18 5 18 18 c 0,27,28
 18 26 18 26 29 41 c 1,29,-1
 395 640 l 1,30,-1
 332 640 l 2,31,32
 237 640 237 640 176 602 c 0,33,34
 117 564 117 564 107 502 c 1,35,36
 101 479 101 479 80 479 c 0,37,38
 73 479 73 479 66 483 c 0,39,40
 64 484 64 484 58 489 c 128,-1,41
 52 494 52 494 52 508 c 2,42,-1
 52 509 l 1,43,-1
 54 522 l 1,44,-1
 69 657 l 2,45,46
 72 679 72 679 78 686 c 0,47,48
 79 687 79 687 83 691 c 128,-1,49
 87 695 87 695 114 695 c 2,50,-1
 572 695 l 2,51,52
 584 695 584 695 591.5 694.5 c 128,-1,53
 599 694 599 694 607 686.5 c 128,-1,54
 615 679 615 679 615 667 c 0,55,56
 615 659 615 659 604 644 c 1,57,-1
 238 45 l 1,0,-1
122 640 m 1,58,-1
 121 629 l 1,59,-1
 134 640 l 1,60,-1
 122 640 l 1,58,-1
460 640 m 1,61,-1
 95 45 l 1,62,-1
 173 45 l 1,63,-1
 538 640 l 1,64,-1
 460 640 l 1,61,-1
539 45 m 1,65,-1
 566 45 l 1,66,-1
 570 72 l 1,67,68
 555 57 555 57 539 45 c 1,65,-1
EndSplineSet
Validated: 19457
EndChar

StartChar: k
Encoding: 107 107 59
Width: 555
VWidth: 1000
Flags: W
HStem: -10 55<18.2502 43.9053 103 164 215.812 257.658 292.25 324 375 444> 418 55<300.705 331.999 385 387 500 519.75> 640 55<24.3147 51.5 103 158>
VStem: 56 55<48.0347 638.737> 158 55<45.6582 190 269 640>
LayerCount: 2
Fore
SplineSet
485 473 m 2,0,1
 497 473 497 473 503 472 c 0,2,3
 512 471 512 471 520 465 c 0,4,5
 529 457 529 457 528 445 c 0,6,7
 528 426 528 426 508 420 c 0,8,9
 504 419 504 419 500 418 c 0,10,11
 464 412 464 412 386 347 c 0,12,13
 346 313 346 313 321 289 c 1,14,-1
 413 173 l 2,15,16
 499 64 499 64 515 49 c 0,17,18
 517 47 517 47 525 45 c 0,19,20
 530 44 530 44 533 41 c 0,21,22
 548 33 548 33 548 18 c 0,23,24
 548 -1 548 -1 534 -6 c 0,25,26
 524 -10 524 -10 504 -10 c 2,27,-1
 327 -10 l 2,28,29
 315 -10 315 -10 309 -9 c 0,30,31
 300 -8 300 -8 292 -2 c 0,32,33
 283 6 283 6 284 18 c 0,34,35
 285 35 285 35 302 42 c 0,36,37
 309 45 309 45 323 46 c 1,38,-1
 324 46 l 1,39,40
 317 60 317 60 303 76 c 2,41,-1
 252 141 l 1,42,-1
 213 190 l 1,43,-1
 213 97 l 2,44,45
 213 49 213 49 233 45 c 0,46,47
 237 44 237 44 241 42 c 0,48,49
 258 35 258 35 258 18 c 0,50,51
 258 -1 258 -1 244 -6 c 0,52,53
 234 -10 234 -10 215 -10 c 2,54,-1
 53 -10 l 2,55,56
 41 -10 41 -10 35 -9 c 0,57,58
 26 -8 26 -8 18 -2 c 0,59,60
 10 5 10 5 10 18 c 0,61,62
 10 39 10 39 32 45 c 2,63,-1
 33 45 l 1,64,-1
 34 45 l 2,65,66
 41 46 41 46 44 48 c 0,67,68
 46 49 46 49 51 64 c 0,69,70
 56 81 56 81 56 114 c 2,71,-1
 56 571 l 2,72,73
 55 631 55 631 40 639 c 0,74,75
 39 639 39 639 38 640 c 2,76,-1
 37 640 l 2,77,78
 33 640 33 640 30 641 c 0,79,80
 23 643 23 643 17 650 c 0,81,82
 10 657 10 657 10 667 c 0,83,84
 10 686 10 686 24 691 c 0,85,86
 34 695 34 695 53 695 c 2,87,-1
 169 695 l 2,88,89
 188 695 188 695 196 692 c 0,90,91
 201 690 201 690 204 687 c 0,92,93
 207 684 l 0,94,95
 213 675 213 675 213 649 c 2,96,-1
 213 269 l 1,97,-1
 242 294 l 1,98,-1
 294 341 l 2,99,100
 332 375 332 375 332 400 c 0,101,102
 332 409 332 409 329 413 c 0,103,104
 327 416 327 416 325 417 c 128,-1,105
 323 418 323 418 322 418 c 0,106,107
 307 418 307 418 300.5 426.5 c 128,-1,108
 294 435 294 435 294 445 c 0,109,110
 294 464 294 464 308 469 c 0,111,112
 318 473 318 473 338 473 c 2,113,-1
 485 473 l 2,0,1
386 417 m 1,114,-1
 387 418 l 1,115,-1
 385 418 l 1,116,-1
 386 417 l 1,114,-1
111 573 m 2,117,-1
 111 112 l 2,118,119
 111 71 111 71 103 45 c 1,120,-1
 164 45 l 1,121,122
 158 66 158 66 158 95 c 2,123,-1
 158 640 l 1,124,-1
 103 640 l 1,125,126
 111 614 111 614 111 573 c 2,117,-1
254 227 m 1,127,-1
 363 90 l 1,128,129
 378 67 378 67 381 45 c 1,130,-1
 444 45 l 1,131,-1
 280 251 l 1,132,-1
 254 227 l 1,127,-1
EndSplineSet
Validated: 19457
EndChar

StartChar: setminus
Encoding: 8726 8726 60
Width: 513
VWidth: 1000
Flags: W
VStem: 47 59<743 758.893>
LayerCount: 2
Fore
SplineSet
401 -229 m 2,0,1
 54 706 l 2,2,3
 49 718 49 718 48 721 c 0,4,-1
 48 723 l 0,5,6
 47 726 47 726 47 728 c 0,7,8
 47 734 47 734 49 741 c 0,9,10
 51 747 51 747 56 751 c 0,11,12
 64 758 64 758 70 759 c 0,13,14
 74 760 74 760 78 760 c 128,-1,15
 82 760 82 760 86 759 c 0,16,17
 99 756 99 756 106 744 c 1,18,-1
 106 743 l 1,19,-1
 459 -206 l 2,20,21
 463 -216 463 -216 465 -221 c 2,22,-1
 465 -223 l 2,23,24
 466 -226 466 -226 466 -228 c 0,25,26
 466 -233 466 -233 465 -238 c 128,-1,27
 464 -243 464 -243 456 -251 c 0,28,29
 451 -256 451 -256 448 -257 c 0,30,31
 441 -260 441 -260 435 -260 c 0,32,33
 432 -260 432 -260 428 -259 c 0,34,35
 423 -258 423 -258 422 -257 c 0,36,37
 408 -247 408 -247 401 -229 c 2,0,1
EndSplineSet
Validated: 19457
EndChar

StartChar: lparenbig
Encoding: 40 40 61
Width: 392
VWidth: 1548
Flags: W
VStem: 121 85<58.9492 441.051>
LayerCount: 2
Fore
SplineSet
329 -256 m 2,0,1
 222 -168 222 -168 171.5 -34 c 128,-1,2
 121 100 121 100 121 250 c 128,-1,3
 121 400 121 400 171.5 534 c 128,-1,4
 222 668 222 668 329 756 c 2,5,-1
 330 756 l 1,6,-1
 331 757 l 2,7,8
 337 760 337 760 340 760 c 2,9,-1
 350 760 l 2,10,11
 359 760 359 760 363.5 754 c 128,-1,12
 368 748 368 748 368 741 c 0,13,14
 368 735 368 735 366 731 c 2,15,-1
 365 729 l 1,16,-1
 364 728 l 2,17,18
 206 569 206 569 206 250 c 128,-1,19
 206 -69 206 -69 364 -228 c 2,20,-1
 365 -229 l 1,21,-1
 366 -231 l 2,22,23
 368 -235 368 -235 368 -241 c 0,24,25
 368 -248 368 -248 363.5 -254 c 128,-1,26
 359 -260 359 -260 350 -260 c 2,27,-1
 340 -260 l 2,28,29
 337 -260 337 -260 331 -257 c 2,30,-1
 330 -256 l 1,31,-1
 329 -256 l 2,0,1
EndSplineSet
Validated: 19457
EndChar

StartChar: rparenbig
Encoding: 41 41 62
Width: 392
VWidth: 1548
Flags: W
VStem: 186 85<58.9492 441.384>
LayerCount: 2
Fore
SplineSet
43 -260 m 2,0,1
 34 -260 34 -260 29.5 -254 c 128,-1,2
 25 -248 25 -248 25 -241 c 0,3,4
 25 -233 25 -233 30 -228 c 0,5,6
 186 -69 186 -69 186 250 c 128,-1,7
 186 569 186 569 30 728 c 0,8,9
 25 733 25 733 25 741 c 0,10,11
 25 748 25 748 29.5 754 c 128,-1,12
 34 760 34 760 43 760 c 2,13,-1
 53 760 l 2,14,15
 56 760 56 760 62 757 c 2,16,-1
 63 756 l 1,17,-1
 64 756 l 2,18,19
 170 668 170 668 220.5 534.5 c 128,-1,20
 271 401 271 401 271 250 c 0,21,22
 271 100 271 100 221 -34 c 128,-1,23
 171 -168 171 -168 64 -256 c 2,24,-1
 63 -256 l 1,25,-1
 62 -257 l 2,26,27
 56 -260 56 -260 53 -260 c 2,28,-1
 43 -260 l 2,0,1
EndSplineSet
Validated: 19457
EndChar

StartChar: slashbig
Encoding: 47 47 63
Width: 494
VWidth: 1548
Flags: W
LayerCount: 2
Fore
SplineSet
38 -234 m 2,0,-1
 38 -224 l 1,1,-1
 40 -221 l 1,2,-1
 403 744 l 1,3,4
 408 755 408 755 423 759 c 2,5,-1
 424 760 l 1,6,-1
 433 760 l 1,7,-1
 435 760 l 2,8,9
 458 753 458 753 458 734 c 2,10,-1
 458 725 l 1,11,-1
 93 -244 l 1,12,13
 88 -255 88 -255 73 -259 c 2,14,-1
 72 -260 l 1,15,-1
 63 -260 l 1,16,-1
 61 -260 l 2,17,18
 38 -253 38 -253 38 -234 c 2,0,-1
EndSplineSet
Validated: 3073
EndChar

StartChar: lbracketbig
Encoding: 91 91 64
Width: 356
VWidth: 1548
Flags: W
HStem: -260 56<219 349> 704 56<219 349>
VStem: 163 186<-260 -204 704 760> 163 56<-204 704>
LayerCount: 2
Fore
SplineSet
163 -260 m 1,0,-1
 163 760 l 1,1,-1
 349 760 l 1,2,-1
 349 704 l 1,3,-1
 219 704 l 1,4,-1
 219 -204 l 1,5,-1
 349 -204 l 1,6,-1
 349 -260 l 1,7,-1
 163 -260 l 1,0,-1
EndSplineSet
Validated: 19457
EndChar

StartChar: backslashbig
Encoding: 92 92 65
Width: 494
VWidth: 1548
Flags: W
LayerCount: 2
Fore
SplineSet
403 -244 m 1,0,-1
 41 719 l 2,1,2
 38 726 38 726 38 728 c 2,3,-1
 38 734 l 2,4,5
 38 753 38 753 61 760 c 2,6,-1
 63 760 l 1,7,-1
 72 760 l 1,8,-1
 73 759 l 2,9,10
 88 754 88 754 93 744 c 0,11,-1
 455 -219 l 2,12,13
 458 -226 458 -226 458 -228 c 2,14,-1
 458 -234 l 2,15,16
 458 -253 458 -253 435 -260 c 2,17,-1
 433 -260 l 1,18,-1
 424 -260 l 1,19,-1
 423 -259 l 2,20,21
 408 -255 408 -255 403 -244 c 1,0,-1
EndSplineSet
Validated: 3073
EndChar

StartChar: rbracketbig
Encoding: 93 93 66
Width: 356
VWidth: 1548
Flags: W
HStem: -260 56<8 138> 704 56<8 138>
VStem: 8 186<-260 -204 704 760> 138 56<-204 704>
LayerCount: 2
Fore
SplineSet
8 -260 m 1,0,-1
 8 -204 l 1,1,-1
 138 -204 l 1,2,-1
 138 704 l 1,3,-1
 8 704 l 1,4,-1
 8 760 l 1,5,-1
 194 760 l 1,6,-1
 194 -260 l 1,7,-1
 8 -260 l 1,0,-1
EndSplineSet
Validated: 19457
EndChar

StartChar: lbracebig
Encoding: 123 123 67
Width: 499
VWidth: 1548
Flags: W
HStem: -260 46<349.31 416> 714 46<349.31 416>
VStem: 208 85<-167.033 177.197 322.803 667.033>
LayerCount: 2
Fore
SplineSet
208 -121 m 2,0,-1
 208 123 l 2,1,2
 208 152 208 152 190.5 172.5 c 128,-1,3
 173 193 173 193 152 202 c 128,-1,4
 131 211 131 211 110.5 221 c 128,-1,5
 90 231 90 231 86 240 c 2,6,-1
 85 242 l 1,7,-1
 85 257 l 1,8,-1
 86 259 l 2,9,10
 90 268 90 268 110.5 278.5 c 128,-1,11
 131 289 131 289 152.5 298 c 128,-1,12
 174 307 174 307 191 327.5 c 128,-1,13
 208 348 208 348 208 377 c 2,14,-1
 208 621 l 2,15,16
 208 653 208 653 226 678.5 c 128,-1,17
 244 704 244 704 273.5 720 c 128,-1,18
 303 736 303 736 329.5 745 c 128,-1,19
 356 754 356 754 385 760 c 2,20,-1
 386 760 l 1,21,-1
 397 760 l 2,22,23
 404 760 404 760 410 755 c 128,-1,24
 416 750 416 750 416 742 c 2,25,-1
 416 731 l 2,26,27
 416 717 416 717 402 714 c 1,28,29
 293 679 293 679 293 617 c 2,30,-1
 293 374 l 2,31,32
 293 293 293 293 177 250 c 1,33,34
 293 207 293 207 293 126 c 2,35,-1
 293 -117 l 2,36,37
 293 -179 293 -179 402 -214 c 1,38,39
 416 -217 416 -217 416 -231 c 2,40,-1
 416 -242 l 2,41,42
 416 -250 416 -250 410 -255 c 128,-1,43
 404 -260 404 -260 397 -260 c 2,44,-1
 386 -260 l 1,45,-1
 385 -260 l 2,46,47
 356 -254 356 -254 330 -245 c 128,-1,48
 304 -236 304 -236 274 -220 c 128,-1,49
 244 -204 244 -204 226 -178.5 c 128,-1,50
 208 -153 208 -153 208 -121 c 2,0,-1
EndSplineSet
Validated: 19457
EndChar

StartChar: rbracebig
Encoding: 125 125 68
Width: 499
VWidth: 1548
Flags: W
HStem: -260 46<85 151.69> 714 46<85 151.69>
VStem: 208 85<-167.033 176.746 323.254 667.033>
LayerCount: 2
Fore
SplineSet
85 -242 m 2,0,-1
 85 -231 l 2,1,2
 85 -217 85 -217 99 -214 c 1,3,4
 208 -179 208 -179 208 -117 c 2,5,-1
 208 126 l 2,6,7
 208 206 208 206 323 250 c 1,8,9
 208 294 208 294 208 374 c 2,10,-1
 208 617 l 2,11,12
 208 679 208 679 99 714 c 1,13,14
 85 717 85 717 85 731 c 2,15,-1
 85 742 l 2,16,17
 85 749 85 749 90.5 754.5 c 128,-1,18
 96 760 96 760 103 760 c 2,19,-1
 114 760 l 1,20,-1
 115 760 l 2,21,22
 144 754 144 754 170.5 745 c 128,-1,23
 197 736 197 736 227 720 c 128,-1,24
 257 704 257 704 275 678.5 c 128,-1,25
 293 653 293 653 293 621 c 2,26,-1
 293 377 l 2,27,28
 293 348 293 348 310.5 327.5 c 128,-1,29
 328 307 328 307 349 298 c 128,-1,30
 370 289 370 289 390.5 279 c 128,-1,31
 411 269 411 269 415 259 c 2,32,-1
 416 257 l 1,33,-1
 416 242 l 1,34,-1
 415 240 l 2,35,36
 410 231 410 231 389.5 221 c 128,-1,37
 369 211 369 211 348 202 c 128,-1,38
 327 193 327 193 310 172.5 c 128,-1,39
 293 152 293 152 293 123 c 2,40,-1
 293 -121 l 2,41,42
 293 -153 293 -153 275 -178.5 c 128,-1,43
 257 -204 257 -204 227 -220 c 128,-1,44
 197 -236 197 -236 170.5 -245 c 128,-1,45
 144 -254 144 -254 115 -260 c 2,46,-1
 114 -260 l 1,47,-1
 103 -260 l 2,48,49
 96 -260 96 -260 90.5 -254.5 c 128,-1,50
 85 -249 85 -249 85 -242 c 2,0,-1
EndSplineSet
Validated: 19457
EndChar

StartChar: lceilbig
Encoding: 8968 8968 69
Width: 404
VWidth: 1548
Flags: W
HStem: 704 56<219 397>
VStem: 163 56<-260 704>
LayerCount: 2
Fore
SplineSet
163 -260 m 1,0,-1
 163 760 l 1,1,-1
 397 760 l 1,2,-1
 397 704 l 1,3,-1
 219 704 l 1,4,-1
 219 -260 l 1,5,-1
 163 -260 l 1,0,-1
EndSplineSet
Validated: 19457
EndChar

StartChar: rceilbig
Encoding: 8969 8969 70
Width: 404
VWidth: 1548
Flags: W
HStem: 704 56<8 186>
VStem: 186 56<-260 704>
LayerCount: 2
Fore
SplineSet
186 -260 m 1,0,-1
 186 704 l 1,1,-1
 8 704 l 1,2,-1
 8 760 l 1,3,-1
 242 760 l 1,4,-1
 242 -260 l 1,5,-1
 186 -260 l 1,0,-1
EndSplineSet
Validated: 19457
EndChar

StartChar: lfloorbig
Encoding: 8970 8970 71
Width: 404
VWidth: 1548
Flags: W
HStem: -260 56<219 397>
VStem: 163 56<-204 760>
LayerCount: 2
Fore
SplineSet
163 -260 m 1,0,-1
 163 760 l 1,1,-1
 219 760 l 1,2,-1
 219 -204 l 1,3,-1
 397 -204 l 1,4,-1
 397 -260 l 1,5,-1
 163 -260 l 1,0,-1
EndSplineSet
Validated: 19457
EndChar

StartChar: rfloorbig
Encoding: 8971 8971 72
Width: 404
VWidth: 1548
Flags: W
HStem: -260 56<8 186>
VStem: 186 56<-204 760>
LayerCount: 2
Fore
SplineSet
8 -260 m 1,0,-1
 8 -204 l 1,1,-1
 186 -204 l 1,2,-1
 186 760 l 1,3,-1
 242 760 l 1,4,-1
 242 -260 l 1,5,-1
 8 -260 l 1,0,-1
EndSplineSet
Validated: 19457
EndChar

StartChar: langlebig
Encoding: 12296 12296 73
Width: 404
VWidth: 1548
Flags: W
VStem: 295 53<-259.585 -199.875 743 759.585>
LayerCount: 2
Fore
SplineSet
295 -243 m 0,0,1
 259 -163 259 -163 186 -2.5 c 128,-1,2
 113 158 113 158 76 239 c 0,3,4
 74 244 74 244 74 250 c 0,5,6
 74 251 74 251 74.5 255.5 c 128,-1,7
 75 260 75 260 77 262 c 2,8,-1
 295 743 l 2,9,10
 302 760 302 760 321 760 c 0,11,12
 332 760 332 760 340 751.5 c 128,-1,13
 348 743 348 743 348 732 c 0,14,15
 348 726 348 726 346 722 c 2,16,-1
 132 250 l 1,17,-1
 346 -222 l 2,18,19
 348 -226 348 -226 348 -232 c 0,20,21
 348 -243 348 -243 340 -251.5 c 128,-1,22
 332 -260 332 -260 321 -260 c 0,23,24
 302 -260 302 -260 295 -243 c 0,0,1
EndSplineSet
Validated: 19457
EndChar

StartChar: ranglebig
Encoding: 12297 12297 74
Width: 404
VWidth: 1548
Flags: W
VStem: 56 54<-259.299 -243 743 759.299>
LayerCount: 2
Fore
SplineSet
56 -232 m 0,0,1
 56 -225 56 -225 60 -220 c 1,2,-1
 272 250 l 1,3,-1
 60 720 l 1,4,5
 56 724 56 724 56 732 c 0,6,7
 56 743 56 743 64.5 751.5 c 128,-1,8
 73 760 73 760 85 760 c 0,9,10
 103 760 103 760 110 743 c 2,11,-1
 329 260 l 2,12,13
 331 256 331 256 331 250 c 128,-1,14
 331 244 331 244 329 240 c 2,15,-1
 329 239 l 1,16,-1
 110 -243 l 2,17,18
 103 -260 103 -260 85 -260 c 0,19,20
 73 -260 73 -260 64.5 -251.5 c 128,-1,21
 56 -243 56 -243 56 -232 c 0,0,1
EndSplineSet
Validated: 19457
EndChar

StartChar: Box
Encoding: 9633 9633 75
Width: 747
VWidth: 1000
Flags: W
HStem: 49 60<141 606> 574 60<141 606>
VStem: 81 60<109 574> 606 60<109 574>
LayerCount: 2
Fore
SplineSet
666 604 m 2,0,-1
 666 79 l 2,1,2
 666 67 666 67 657 58 c 128,-1,3
 648 49 648 49 636 49 c 2,4,-1
 111 49 l 2,5,6
 99 49 99 49 90 58 c 128,-1,7
 81 67 81 67 81 79 c 2,8,-1
 81 604 l 2,9,10
 81 616 81 616 90 625 c 128,-1,11
 99 634 99 634 111 634 c 2,12,-1
 636 634 l 2,13,14
 648 634 648 634 657 625 c 128,-1,15
 666 616 666 616 666 604 c 2,0,-1
141 574 m 1,16,-1
 141 109 l 1,17,-1
 606 109 l 1,18,-1
 606 574 l 1,19,-1
 141 574 l 1,16,-1
EndSplineSet
Validated: 19457
EndChar

StartChar: Diamond
Encoding: 9671 9671 76
Width: 791
VWidth: 1000
Flags: W
HStem: -9 21G<389.5 402>
LayerCount: 2
Fore
SplineSet
737 320 m 2,0,-1
 417 -0 l 2,1,2
 408 -9 408 -9 396 -9 c 0,3,4
 383 -9 383 -9 374 1 c 2,5,-1
 54 321 l 2,6,7
 46 329 46 329 46 342 c 0,8,9
 46 353 46 353 53 362 c 2,10,-1
 53 363 l 1,11,-1
 374 682 l 2,12,13
 383 692 383 692 396 692 c 0,14,15
 408 692 408 692 417 683 c 2,16,-1
 737 363 l 2,17,18
 746 354 746 354 746 342 c 0,19,20
 746 328 746 328 737 320 c 2,0,-1
118 342 m 1,21,-1
 396 64 l 1,22,-1
 674 342 l 1,23,-1
 396 620 l 1,24,-1
 118 342 l 1,21,-1
EndSplineSet
Validated: 19457
EndChar

StartChar: Join
Encoding: 8904 8904 77
Width: 722
VWidth: 1000
Flags: W
VStem: 53 60<139 545> 609 60<139 545>
LayerCount: 2
Fore
SplineSet
361 384 m 1,0,-1
 618 638 l 2,1,2
 627 647 627 647 639 647 c 128,-1,3
 651 647 651 647 660 638 c 128,-1,4
 669 629 669 629 669 617 c 2,5,-1
 669 67 l 2,6,7
 669 55 669 55 660 46 c 128,-1,8
 651 37 651 37 639 37 c 0,9,10
 628 37 628 37 619 44 c 2,11,-1
 618 44 l 1,12,-1
 361 300 l 1,13,-1
 104 45 l 2,14,15
 96 37 96 37 83 37 c 0,16,17
 71 37 71 37 62 46 c 128,-1,18
 53 55 53 55 53 67 c 2,19,-1
 53 617 l 2,20,21
 53 629 53 629 62 638 c 128,-1,22
 71 647 71 647 83 647 c 0,23,24
 96 647 96 647 105 638 c 2,25,-1
 361 384 l 1,0,-1
319 342 m 1,26,-1
 113 545 l 1,27,-1
 113 139 l 1,28,-1
 319 342 l 1,26,-1
404 342 m 1,29,-1
 609 139 l 1,30,-1
 609 545 l 1,31,-1
 404 342 l 1,29,-1
EndSplineSet
Validated: 19457
EndChar

StartChar: triangleup
Encoding: 9651 9651 78
Width: 913
VWidth: 1000
Flags: W
HStem: -10 63<136 777>
LayerCount: 2
Fore
SplineSet
488 704 m 2,0,-1
 855 43 l 2,1,2
 862 30 862 30 862 22 c 0,3,4
 862 -10 862 -10 817 -10 c 2,5,-1
 96 -10 l 2,6,7
 51 -10 51 -10 51 22 c 0,8,9
 51 32 51 32 59 46 c 2,10,-1
 425 704 l 2,11,12
 437 726 437 726 457 726 c 0,13,14
 476 726 476 726 488 704 c 2,0,-1
456 629 m 1,15,-1
 136 53 l 1,16,-1
 777 53 l 1,17,-1
 456 629 l 1,15,-1
EndSplineSet
Validated: 19457
EndChar

StartChar: triangledown
Encoding: 9661 9661 79
Width: 913
VWidth: 1000
Flags: W
HStem: 447 63<136 777>
LayerCount: 2
Fore
SplineSet
854 455 m 2,0,-1
 488 -204 l 2,1,2
 476 -226 476 -226 457 -226 c 0,3,4
 448 -226 448 -226 441.5 -222 c 128,-1,5
 435 -218 435 -218 432 -214 c 128,-1,6
 429 -210 429 -210 424 -201 c 2,7,-1
 58 457 l 2,8,9
 51 471 51 471 51 478 c 0,10,11
 51 510 51 510 96 510 c 2,12,-1
 817 510 l 2,13,14
 862 510 862 510 862 478 c 0,15,16
 862 471 862 471 854 455 c 2,0,-1
136 447 m 1,17,-1
 457 -129 l 1,18,-1
 777 447 l 1,19,-1
 136 447 l 1,17,-1
EndSplineSet
Validated: 19457
EndChar

StartChar: bigcirc
Encoding: 9675 9675 80
Width: 1027
VWidth: 1000
Flags: W
HStem: -226 63<382.12 644.702> 663 63<382.241 645.702>
VStem: 47 63<115.225 384.775> 917 63<115.225 385.719>
LayerCount: 2
Fore
SplineSet
980 250 m 0,0,1
 980 53 980 53 842.5 -86.5 c 128,-1,2
 705 -226 705 -226 514 -226 c 0,3,4
 321 -226 321 -226 184 -86.5 c 128,-1,5
 47 53 47 53 47 250 c 128,-1,6
 47 447 47 447 184 586.5 c 128,-1,7
 321 726 321 726 514 726 c 0,8,9
 640 726 640 726 747 662.5 c 128,-1,10
 854 599 854 599 917 489.5 c 128,-1,11
 980 380 980 380 980 250 c 0,0,1
514 -163 m 0,12,13
 679 -163 679 -163 798 -42 c 128,-1,14
 917 79 917 79 917 250 c 128,-1,15
 917 421 917 421 798.5 542 c 128,-1,16
 680 663 680 663 513 663 c 0,17,18
 348 663 348 663 229 542 c 128,-1,19
 110 421 110 421 110 250 c 128,-1,20
 110 79 110 79 228.5 -42 c 128,-1,21
 347 -163 347 -163 514 -163 c 0,12,13
EndSplineSet
Validated: 19457
EndChar
